<svg xmlns="http://www.w3.org/2000/svg" width="3508" height="2480" fill-rule="evenodd" clip-rule="evenodd" image-rendering="optimizeQuality" shape-rendering="geometricPrecision" text-rendering="geometricPrecision" viewBox="0 0 3508 2480.4"><defs><mask id="b"><linearGradient id="a" x1="1735.3" x2="1735.3" y1="253.81" y2="2211.2" gradientUnits="userSpaceOnUse"><stop offset="0" stop-color="#fff"/><stop offset="1" stop-color="#fff" stop-opacity="0"/></linearGradient><path fill="url(#a)" d="M2.7-.18h3502.5v2482.4H2.7z"/></mask></defs><path fill="#3b6fa3" d="M3.88 1H3504v2480.1H3.88z" mask="url(#b)"/><g fill="#ebebeb"><path d="M326.01 181.17c7.26 0 13.15 5.89 13.15 13.15s-5.89 13.15-13.15 13.15c-7.27 0-13.15-5.89-13.15-13.15s5.88-13.15 13.15-13.15m112.5 10.39c9.58 0 17.35 7.77 17.35 17.35s-7.77 17.34-17.35 17.34-17.35-7.76-17.35-17.34 7.77-17.35 17.35-17.35m-88.83 233.02c9.58 0 17.35 7.76 17.35 17.34s-7.77 17.35-17.35 17.35-17.35-7.77-17.35-17.35 7.77-17.34 17.35-17.34m104.56-118.3c6.06 0 10.98 4.92 10.98 10.99s-4.92 10.99-10.98 10.99c-6.07 0-11-4.92-11-10.99s4.93-10.99 11-10.99M289.86 74.53c3.94 0 7.14 3.19 7.14 7.13s-3.2 7.13-7.14 7.13-7.13-3.19-7.13-7.13 3.19-7.13 7.13-7.13M254.25 299c6.05 0 10.96 4.91 10.96 10.96s-4.91 10.96-10.96 10.96-10.96-4.91-10.96-10.96S248.2 299 254.25 299m-21.13 114.95c3.86 0 6.98 3.12 6.98 6.97s-3.12 6.97-6.98 6.97c-3.85 0-6.97-3.12-6.97-6.97s3.12-6.97 6.97-6.97m183.22-37.78c3.94 0 7.14 3.19 7.14 7.14 0 3.94-3.2 7.13-7.14 7.13s-7.13-3.19-7.13-7.13a7.13 7.13 0 0 1 7.13-7.14m-23.66-24.08c6.06 0 10.98 4.92 10.98 10.99s-4.92 10.99-10.98 10.99c-6.07 0-11-4.92-11-10.99s4.93-10.99 11-10.99m141.67-64.01c3.94 0 7.13 3.19 7.13 7.13s-3.19 7.13-7.13 7.13-7.13-3.19-7.13-7.13 3.19-7.13 7.13-7.13m-192.56-13.39c3.94 0 7.13 3.19 7.13 7.13s-3.19 7.14-7.13 7.14-7.14-3.2-7.14-7.14 3.2-7.13 7.14-7.13M139.35 292.4c3.94 0 7.13 3.19 7.13 7.13 0 3.95-3.19 7.14-7.13 7.14s-7.13-3.19-7.13-7.14c0-3.94 3.19-7.13 7.13-7.13m115.82-165.32c6.07 0 10.99 4.92 10.99 10.99s-4.92 10.99-10.99 10.99-10.99-4.92-10.99-10.99 4.92-10.99 10.99-10.99M132.69 417.72c6.06 0 10.98 4.92 10.98 10.99s-4.92 10.99-10.98 10.99c-6.07 0-11-4.92-11-10.99s4.93-10.99 11-10.99m306.83 54.17c6.07 0 10.99 4.92 10.99 10.99s-4.92 10.99-10.99 10.99-10.99-4.92-10.99-10.99 4.92-10.99 10.99-10.99m-171.31 44.79c6.07 0 10.99 4.92 10.99 10.99s-4.92 10.99-10.99 10.99-10.99-4.92-10.99-10.99 4.92-10.99 10.99-10.99m314.77 150.57c-7.26 0-13.15-5.89-13.15-13.15s5.89-13.15 13.15-13.15 13.15 5.89 13.15 13.15-5.89 13.15-13.15 13.15m-83.19 24.74c-9.58 0-17.35-7.76-17.35-17.34s7.77-17.35 17.35-17.35 17.35 7.77 17.35 17.35-7.77 17.34-17.35 17.34m114.6-257.06c-9.58 0-17.34-7.77-17.34-17.35s7.76-17.35 17.34-17.35c9.59 0 17.35 7.77 17.35 17.35s-7.76 17.35-17.35 17.35m-104.55 118.3c-6.07 0-10.99-4.92-10.99-10.99s4.92-10.99 10.99-10.99 10.99 4.92 10.99 10.99-4.92 10.99-10.99 10.99m164.37 231.75c-3.94 0-7.13-3.2-7.13-7.14s3.19-7.13 7.13-7.13 7.13 3.19 7.13 7.13-3.19 7.14-7.13 7.14m35.62-224.48c-6.06 0-10.96-4.9-10.96-10.96 0-6.05 4.9-10.96 10.96-10.96 6.05 0 10.95 4.91 10.95 10.96 0 6.06-4.9 10.96-10.95 10.96m21.12-114.94c-3.85 0-6.97-3.13-6.97-6.98s3.12-6.97 6.97-6.97 6.97 3.12 6.97 6.97-3.12 6.98-6.97 6.98m-183.22 37.77c-3.94 0-7.13-3.19-7.13-7.13s3.19-7.14 7.13-7.14 7.14 3.2 7.14 7.14-3.2 7.13-7.14 7.13m73.06 67.61c-6.07 0-10.99-4.92-10.99-10.99s4.92-10.99 10.99-10.99 10.99 4.92 10.99 10.99-4.92 10.99-10.99 10.99m-157.85 59.92c-3.94 0-7.14-3.2-7.14-7.14s3.2-7.13 7.14-7.13c3.93 0 7.13 3.19 7.13 7.13s-3.2 7.14-7.13 7.14m193.91 39.42c-3.94 0-7.13-3.19-7.13-7.13s3.19-7.14 7.13-7.14 7.13 3.2 7.13 7.14-3.19 7.13-7.13 7.13m167.87-83.18c-3.94 0-7.13-3.19-7.13-7.13s3.19-7.14 7.13-7.14 7.14 3.2 7.14 7.14-3.2 7.13-7.14 7.13m-38.87 96.56c-6.07 0-10.99-4.92-10.99-10.99s4.92-10.99 10.99-10.99 10.99 4.92 10.99 10.99-4.92 10.99-10.99 10.99m45.54-221.87c-6.07 0-10.99-4.92-10.99-10.99s4.92-10.99 10.99-10.99 10.99 4.92 10.99 10.99-4.92 10.99-10.99 10.99m-306.84-54.17c-6.07 0-10.99-4.92-10.99-10.99s4.92-10.99 10.99-10.99 10.99 4.92 10.99 10.99-4.92 10.99-10.99 10.99m114.52-65.64c-6.07 0-10.99-4.92-10.99-10.99S633 300 639.07 300s10.99 4.92 10.99 10.99-4.92 10.99-10.99 10.99m-368.3 329.26c-7.26 0-13.15-5.89-13.15-13.15s5.89-13.15 13.15-13.15 13.15 5.89 13.15 13.15-5.89 13.15-13.15 13.15m-116.31 42.74c-9.58 0-17.35-7.77-17.35-17.35s7.77-17.35 17.35-17.35 17.35 7.77 17.35 17.35-7.77 17.35-17.35 17.35m121.17 113.18c-3.94 0-7.14-3.19-7.14-7.13s3.2-7.14 7.14-7.14 7.13 3.2 7.13 7.14-3.19 7.13-7.13 7.13M64.35 633.04c-3.94 0-7.13-3.2-7.13-7.14s3.19-7.13 7.13-7.13 7.14 3.19 7.14 7.13-3.2 7.14-7.14 7.14M169.72 779.6c-3.94 0-7.13-3.19-7.13-7.13s3.19-7.14 7.13-7.14 7.14 3.2 7.14 7.14-3.2 7.13-7.14 7.13m256.42-190.31c-3.94 0-7.13-3.2-7.13-7.14s3.19-7.13 7.13-7.13 7.13 3.19 7.13 7.13-3.19 7.14-7.13 7.14m-71.11 106.99c-6.07 0-10.99-4.92-10.99-10.99s4.92-10.99 10.99-10.99 10.99 4.92 10.99 10.99-4.92 10.99-10.99 10.99m766.67-219.64c-7.26 0-13.15-5.89-13.15-13.15s5.89-13.15 13.15-13.15 13.15 5.89 13.15 13.15-5.89 13.15-13.15 13.15m-227.88 71.92c-9.58 0-17.35-7.76-17.35-17.34s7.77-17.35 17.35-17.35 17.34 7.77 17.34 17.35-7.76 17.34-17.34 17.34m259.28-304.24c-9.58 0-17.34-7.77-17.34-17.35s7.76-17.34 17.34-17.34c9.59 0 17.35 7.76 17.35 17.34s-7.76 17.35-17.35 17.35m-104.6 118.3c-6.07 0-10.99-4.92-10.99-10.99s4.92-10.99 10.99-10.99 10.99 4.92 10.99 10.99-4.92 10.99-10.99 10.99m164.4 231.75c-3.94 0-7.13-3.19-7.13-7.13s3.19-7.14 7.13-7.14 7.13 3.2 7.13 7.14-3.19 7.13-7.13 7.13m35.6-224.47c-6.06 0-10.96-4.91-10.96-10.96 0-6.06 4.9-10.96 10.96-10.96 6.05 0 10.95 4.9 10.95 10.96 0 6.05-4.9 10.96-10.95 10.96m21.1-114.95c-3.85 0-6.97-3.12-6.97-6.97s3.12-6.98 6.97-6.98 6.97 3.13 6.97 6.98-3.12 6.97-6.97 6.97m-183.2 37.78c-3.94 0-7.13-3.2-7.13-7.14s3.19-7.13 7.13-7.13 7.14 3.19 7.14 7.13-3.2 7.14-7.14 7.14m73.1 67.6c-6.07 0-10.99-4.92-10.99-10.99s4.92-10.99 10.99-10.99 10.99 4.92 10.99 10.99-4.92 10.99-10.99 10.99m-157.9 59.92c-3.94 0-7.14-3.19-7.14-7.14 0-3.94 3.2-7.13 7.14-7.13a7.136 7.136 0 0 1 0 14.27m194 39.43c-3.94 0-7.13-3.2-7.13-7.14s3.19-7.13 7.13-7.13 7.13 3.19 7.13 7.13-3.19 7.14-7.13 7.14m167.8-83.18c-3.94 0-7.13-3.2-7.13-7.14s3.19-7.13 7.13-7.13 7.14 3.19 7.14 7.13-3.2 7.14-7.14 7.14m-71.1 106.99c-6.07 0-10.99-4.92-10.99-10.99s4.92-10.99 10.99-10.99 10.99 4.92 10.99 10.99-4.92 10.99-10.99 10.99m77.8-232.31c-6.07 0-10.99-4.92-10.99-10.99s4.92-10.99 10.99-10.99 10.99 4.92 10.99 10.99-4.92 10.99-10.99 10.99m-306.9-54.17c-6.07 0-10.99-4.92-10.99-10.99s4.92-10.99 10.99-10.99 10.99 4.92 10.99 10.99-4.92 10.99-10.99 10.99m171.4-44.79c-6.07 0-10.99-4.92-10.99-10.99s4.92-10.99 10.99-10.99 10.99 4.92 10.99 10.99-4.92 10.99-10.99 10.99m-196.1 448.36c7.26 0 13.15 5.89 13.15 13.15 0 7.27-5.89 13.15-13.15 13.15s-13.15-5.88-13.15-13.15c0-7.26 5.89-13.15 13.15-13.15m87.5 54.17c9.58 0 17.35 7.77 17.35 17.35s-7.77 17.35-17.35 17.35-17.35-7.77-17.35-17.35 7.77-17.35 17.35-17.35M877.07 195.72c9.58 0 17.35 7.77 17.35 17.35s-7.77 17.34-17.35 17.34-17.34-7.76-17.34-17.34 7.76-17.35 17.34-17.35m115.87-80.05c6.06 0 10.98 4.92 10.98 10.99s-4.92 10.99-10.98 10.99c-6.07 0-11-4.92-11-10.99s4.93-10.99 11-10.99m9.26 377.78c3.94 0 7.13 3.19 7.13 7.13s-3.19 7.14-7.13 7.14-7.14-3.2-7.14-7.14 3.2-7.13 7.14-7.13M789.56 54.19c6.05 0 10.96 4.91 10.96 10.96s-4.91 10.96-10.96 10.96-10.96-4.91-10.96-10.96 4.91-10.96 10.96-10.96m-17.74 169.15c3.86 0 6.98 3.12 6.98 6.97 0 3.86-3.12 6.98-6.98 6.98-3.85 0-6.97-3.12-6.97-6.98a6.97 6.97 0 0 1 6.97-6.97m183.22-37.78c3.94 0 7.14 3.2 7.14 7.14s-3.2 7.13-7.14 7.13-7.13-3.19-7.13-7.13 3.19-7.14 7.13-7.14m-48.8-122.5c6.07 0 10.99 4.92 10.99 10.99s-4.92 10.99-10.99 10.99-10.99-4.92-10.99-10.99 4.92-10.99 10.99-10.99m123.06 640.81c3.94 0 7.14 3.2 7.14 7.14s-3.2 7.13-7.14 7.13-7.13-3.19-7.13-7.13 3.19-7.14 7.13-7.14M562.48 105.92c3.94 0 7.13 3.2 7.13 7.14s-3.19 7.13-7.13 7.13-7.13-3.19-7.13-7.13 3.19-7.14 7.13-7.14m321.29 619.1c6.06 0 10.98 4.92 10.98 10.99S889.83 747 883.77 747c-6.07 0-10.99-4.92-10.99-10.99s4.92-10.99 10.99-10.99m-265.54-502.1c6.07 0 10.99 4.92 10.99 10.98 0 6.07-4.92 11-10.99 11s-10.99-4.93-10.99-11c0-6.06 4.92-10.98 10.99-10.98m359.99 58.36c6.07 0 10.99 4.92 10.99 10.99s-4.92 10.99-10.99 10.99-10.99-4.92-10.99-10.99 4.92-10.99 10.99-10.99m-171.31 44.79c6.07 0 10.99 4.92 10.99 10.99s-4.92 10.99-10.99 10.99-10.99-4.92-10.99-10.99 4.92-10.99 10.99-10.99M1355 695.51c7.27 0 13.15 5.89 13.15 13.15s-5.88 13.15-13.15 13.15c-7.26 0-13.15-5.89-13.15-13.15s5.89-13.15 13.15-13.15m116.3-42.74c9.58 0 17.35 7.77 17.35 17.35s-7.77 17.35-17.35 17.35-17.34-7.77-17.34-17.35 7.76-17.35 17.34-17.35m-121.1-113.18c3.94 0 7.14 3.19 7.14 7.13s-3.2 7.14-7.14 7.14-7.13-3.2-7.13-7.14 3.19-7.13 7.13-7.13m211.2 174.12c3.94 0 7.13 3.2 7.13 7.14s-3.19 7.13-7.13 7.13-7.13-3.19-7.13-7.13 3.19-7.14 7.13-7.14m-105.3-146.56c3.94 0 7.13 3.19 7.13 7.13s-3.19 7.14-7.13 7.14-7.13-3.2-7.13-7.14 3.19-7.13 7.13-7.13M1131.4 97.59c3.94 0 7.14 3.2 7.14 7.14s-3.2 7.13-7.14 7.13-7.13-3.19-7.13-7.13 3.19-7.14 7.13-7.14m139.4 552.88c6.06 0 10.99 4.92 10.99 10.99s-4.93 10.99-10.99 10.99c-6.07 0-10.99-4.92-10.99-10.99s4.92-10.99 10.99-10.99M2551 678.98c-7.26-.4-12.81-6.6-12.41-13.85s6.6-12.81 13.85-12.41 12.81 6.6 12.41 13.86c-.4 7.25-6.6 12.8-13.85 12.4m-31.3 100.56c-9.57-.53-16.89-8.71-16.37-18.28.53-9.57 8.71-16.89 18.28-16.37 9.56.53 16.89 8.71 16.37 18.28-.53 9.57-8.71 16.89-18.28 16.37M2648 444.72c-9.57-.52-16.9-8.7-16.37-18.27s8.71-16.9 18.27-16.37c9.57.53 16.9 8.71 16.37 18.28-.52 9.56-8.71 16.89-18.27 16.36M2537.1 557.1c-6.06-.34-10.7-5.52-10.36-11.58.33-6.06 5.51-10.71 11.57-10.37 6.06.33 10.71 5.52 10.37 11.58-.33 6.06-5.51 10.7-11.58 10.37m151.3 240.43c-3.94-.21-6.95-3.58-6.74-7.51a7.135 7.135 0 0 1 7.52-6.73c3.93.21 6.95 3.58 6.73 7.51a7.12 7.12 0 0 1-7.51 6.73m48-222.17c-6.04-.34-10.67-5.51-10.34-11.55s5.5-10.67 11.54-10.34c6.05.33 10.68 5.5 10.35 11.54-.34 6.05-5.51 10.68-11.55 10.35m27.4-113.62a6.972 6.972 0 1 1 .77-13.92c3.84.21 6.79 3.5 6.58 7.35-.22 3.84-3.5 6.79-7.35 6.57m-185.1 27.65a7.14 7.14 0 0 1-6.73-7.51 7.144 7.144 0 0 1 7.52-6.74c3.93.22 6.95 3.59 6.73 7.52s-3.58 6.95-7.52 6.73m69.3 71.52c-6.06-.33-10.7-5.52-10.37-11.58.34-6.06 5.52-10.7 11.58-10.37 6.06.34 10.7 5.52 10.37 11.58s-5.52 10.7-11.58 10.37m-160.9 51.15c-3.93-.22-6.94-3.58-6.73-7.52.22-3.93 3.58-6.95 7.52-6.73 3.93.22 6.95 3.58 6.73 7.52-.22 3.93-3.58 6.94-7.52 6.73m191.4 50.03a7.135 7.135 0 0 1-6.73-7.52 7.127 7.127 0 0 1 7.51-6.73 7.13 7.13 0 0 1 6.73 7.52c-.21 3.93-3.58 6.94-7.51 6.73m172.2-73.83a7.127 7.127 0 0 1-6.73-7.51c.22-3.94 3.58-6.95 7.51-6.73 3.94.21 6.95 3.58 6.74 7.51a7.135 7.135 0 0 1-7.52 6.73m-76.9 102.93c-6.06-.34-10.7-5.52-10.37-11.58.34-6.06 5.52-10.7 11.58-10.37s10.7 5.52 10.37 11.58-5.52 10.7-11.58 10.37m90.5-227.69c-6.06-.33-10.71-5.51-10.37-11.57.33-6.06 5.52-10.71 11.58-10.37 6.06.33 10.7 5.52 10.36 11.58-.33 6.06-5.51 10.7-11.57 10.36m-303.4-70.95c-6.06-.34-10.7-5.52-10.36-11.58.33-6.06 5.51-10.7 11.57-10.37s10.71 5.52 10.37 11.58c-.33 6.06-5.51 10.7-11.58 10.37m173.5-35.31c-6.06-.33-10.71-5.52-10.37-11.58.33-6.06 5.52-10.7 11.58-10.37 6.06.34 10.7 5.52 10.37 11.58-.34 6.06-5.52 10.7-11.58 10.37m-306-167.65c7.25.4 12.81 6.6 12.41 13.85s-6.6 12.81-13.85 12.41c-7.26-.4-12.81-6.6-12.41-13.85s6.6-12.81 13.85-12.41m84.4-20.13c9.56.52 16.89 8.7 16.36 18.27-.52 9.57-8.71 16.9-18.27 16.37-9.57-.53-16.9-8.71-16.37-18.28.53-9.56 8.71-16.89 18.28-16.36m-128.6 250.37c9.57.53 16.9 8.71 16.37 18.28-.53 9.56-8.71 16.89-18.28 16.36-9.56-.52-16.89-8.7-16.36-18.27.52-9.57 8.71-16.89 18.27-16.37m110.9-112.37c6.07.34 10.71 5.52 10.37 11.58-.33 6.06-5.51 10.7-11.57 10.37s-10.71-5.52-10.37-11.58c.33-6.06 5.51-10.7 11.57-10.37M2343.7 67.02c3.94.22 6.95 3.59 6.73 7.52a7.127 7.127 0 0 1-7.51 6.73c-3.94-.22-6.95-3.58-6.73-7.51.21-3.94 3.58-6.95 7.51-6.74m-47.9 222.18c6.04.33 10.67 5.5 10.34 11.55-.33 6.04-5.5 10.67-11.55 10.34-6.04-.34-10.67-5.51-10.33-11.55.33-6.04 5.5-10.67 11.54-10.34m-27.4 113.61c3.84.21 6.79 3.5 6.58 7.35-.21 3.84-3.5 6.79-7.35 6.58-3.84-.22-6.79-3.5-6.58-7.35s3.5-6.79 7.35-6.58m185-27.64c3.93.21 6.94 3.58 6.73 7.51a7.13 7.13 0 0 1-7.52 6.73 7.127 7.127 0 0 1-6.73-7.51 7.13 7.13 0 0 1 7.52-6.73m-69.2-71.52c6.06.33 10.7 5.51 10.37 11.57-.34 6.06-5.52 10.71-11.58 10.37-6.06-.33-10.7-5.51-10.37-11.57s5.52-10.71 11.58-10.37m160.9-51.15c3.94.22 6.95 3.58 6.74 7.51a7.15 7.15 0 0 1-7.52 6.74c-3.93-.22-6.95-3.59-6.73-7.52s3.58-6.95 7.51-6.73m-191.4-50.03a7.13 7.13 0 0 1 6.73 7.52c-.21 3.93-3.58 6.94-7.51 6.73a7.13 7.13 0 0 1-6.73-7.52 7.127 7.127 0 0 1 7.51-6.73m-172.2 73.82c3.93.22 6.95 3.58 6.73 7.52-.22 3.93-3.58 6.95-7.51 6.73a7.144 7.144 0 0 1-6.74-7.52c.22-3.93 3.59-6.94 7.52-6.73m44.1-94.27c6.06.33 10.7 5.52 10.36 11.58-.33 6.06-5.51 10.7-11.57 10.36-6.06-.33-10.71-5.51-10.37-11.57.33-6.06 5.51-10.71 11.58-10.37m-57.7 219.03c6.06.34 10.71 5.52 10.37 11.58-.33 6.06-5.51 10.7-11.57 10.37-6.07-.34-10.71-5.52-10.37-11.58.33-6.06 5.51-10.7 11.57-10.37m303.4 70.96c6.07.33 10.71 5.52 10.37 11.58-.33 6.06-5.51 10.7-11.57 10.37-6.06-.34-10.71-5.52-10.37-11.58.33-6.06 5.51-10.7 11.57-10.37m-117.9 59.24c6.06.34 10.71 5.52 10.37 11.58-.33 6.06-5.51 10.7-11.57 10.37s-10.71-5.52-10.37-11.58c.33-6.06 5.51-10.7 11.57-10.37m385.8-308.51c7.25.4 12.81 6.61 12.41 13.86s-6.6 12.8-13.85 12.4c-7.26-.4-12.81-6.6-12.41-13.85s6.6-12.81 13.85-12.41m118.5-36.28c9.56.53 16.89 8.71 16.36 18.28-.52 9.57-8.71 16.89-18.27 16.37-9.57-.53-16.9-8.71-16.37-18.28s8.71-16.89 18.28-16.37M2742.9 66.79a7.13 7.13 0 0 1 6.73 7.52c-.21 3.93-3.58 6.94-7.51 6.73a7.13 7.13 0 0 1-6.73-7.52 7.127 7.127 0 0 1 7.51-6.73m201.4 185.48c3.94.21 6.95 3.58 6.74 7.51a7.135 7.135 0 0 1-7.52 6.73 7.127 7.127 0 0 1-6.73-7.51c.22-3.94 3.58-6.95 7.51-6.73m-97.1-152.14a7.13 7.13 0 0 1 6.73 7.52c-.21 3.93-3.58 6.94-7.51 6.73a7.13 7.13 0 0 1-6.73-7.52 7.127 7.127 0 0 1 7.51-6.73m-266.5 175.93c3.93.22 6.95 3.58 6.73 7.52a7.14 7.14 0 0 1-7.51 6.73 7.15 7.15 0 0 1-6.74-7.52c.22-3.93 3.59-6.95 7.52-6.73m76.9-102.92c6.06.33 10.7 5.51 10.37 11.57-.34 6.06-5.52 10.71-11.58 10.37-6.06-.33-10.7-5.51-10.37-11.57s5.52-10.71 11.58-10.37M1880 350.29c7.25.4 12.8 6.6 12.4 13.85s-6.6 12.81-13.85 12.41-12.81-6.6-12.41-13.85c.4-7.26 6.6-12.81 13.86-12.41M2111.5 291c9.57.53 16.89 8.71 16.37 18.28-.53 9.56-8.71 16.89-18.28 16.37-9.56-.53-16.89-8.71-16.37-18.28.53-9.57 8.71-16.89 18.28-16.37m-275.6 289.53c9.56.53 16.89 8.71 16.36 18.27-.52 9.57-8.7 16.9-18.27 16.37-9.57-.52-16.9-8.71-16.37-18.27.53-9.57 8.71-16.9 18.28-16.37m110.9-112.37c6.06.33 10.7 5.52 10.37 11.58-.34 6.06-5.52 10.7-11.58 10.37-6.06-.34-10.7-5.52-10.37-11.58s5.52-10.7 11.58-10.37m-151.4-240.44c3.93.22 6.95 3.58 6.73 7.52-.22 3.93-3.58 6.94-7.52 6.73-3.93-.22-6.95-3.58-6.73-7.52.22-3.93 3.58-6.95 7.52-6.73m-47.9 222.18c6.05.33 10.68 5.5 10.34 11.54-.33 6.05-5.5 10.68-11.54 10.34-6.04-.33-10.67-5.5-10.34-11.54s5.5-10.67 11.54-10.34m-27.4 113.61c3.85.21 6.79 3.5 6.58 7.34a6.97 6.97 0 0 1-7.34 6.58 6.97 6.97 0 0 1-6.58-7.34c.21-3.85 3.5-6.79 7.34-6.58m185-27.65c3.93.22 6.95 3.59 6.73 7.52a7.127 7.127 0 0 1-7.51 6.73 7.144 7.144 0 0 1-6.74-7.52c.22-3.93 3.59-6.94 7.52-6.73m-69.3-71.52c6.06.34 10.71 5.52 10.37 11.58-.33 6.06-5.52 10.7-11.58 10.37s-10.7-5.52-10.37-11.58c.34-6.06 5.52-10.7 11.58-10.37m161-51.14c3.93.21 6.95 3.58 6.73 7.51-.22 3.94-3.58 6.95-7.51 6.73-3.94-.21-6.95-3.58-6.74-7.51a7.135 7.135 0 0 1 7.52-6.73m-191.5-50.03c3.93.21 6.94 3.58 6.73 7.51a7.13 7.13 0 0 1-7.52 6.73 7.127 7.127 0 0 1-6.73-7.51 7.13 7.13 0 0 1 7.52-6.73m-172.2 73.82c3.94.22 6.95 3.58 6.73 7.51-.21 3.94-3.58 6.95-7.51 6.74-3.93-.22-6.95-3.59-6.73-7.52s3.58-6.95 7.51-6.73m76.9-102.92c6.06.33 10.7 5.51 10.37 11.57s-5.52 10.71-11.58 10.37c-6.06-.33-10.7-5.51-10.37-11.57.34-6.06 5.52-10.71 11.58-10.37m-90.4 227.68c6.06.33 10.7 5.52 10.37 11.58-.34 6.06-5.52 10.7-11.58 10.37-6.06-.34-10.7-5.52-10.37-11.58s5.52-10.71 11.58-10.37m303.4 70.96c6.06.33 10.7 5.52 10.37 11.58-.34 6.06-5.52 10.7-11.58 10.37-6.06-.34-10.7-5.52-10.37-11.58s5.52-10.71 11.58-10.37m-173.6 35.3c6.06.34 10.7 5.52 10.36 11.58-.33 6.06-5.51 10.7-11.57 10.37s-10.71-5.52-10.37-11.58c.33-6.06 5.52-10.7 11.58-10.37m220.5-436.9c-7.26-.4-12.81-6.61-12.41-13.86s6.6-12.8 13.85-12.4 12.81 6.6 12.41 13.85-6.6 12.81-13.85 12.41m-84.4-58.9c-9.57-.53-16.9-8.71-16.37-18.28.53-9.56 8.71-16.89 18.27-16.37 9.57.53 16.9 8.71 16.37 18.28-.52 9.57-8.71 16.89-18.27 16.37m214.1 433.21c-9.56-.53-16.89-8.71-16.37-18.27.53-9.57 8.71-16.9 18.28-16.37s16.89 8.71 16.37 18.27c-.53 9.57-8.71 16.9-18.28 16.37m-110.9 112.37c-6.06-.33-10.7-5.52-10.37-11.58s5.52-10.7 11.58-10.36c6.06.33 10.7 5.51 10.37 11.57-.34 6.06-5.52 10.71-11.58 10.37m11.5-377.71c-3.93-.22-6.95-3.58-6.73-7.52.22-3.93 3.58-6.95 7.52-6.73 3.93.22 6.94 3.58 6.73 7.52-.22 3.93-3.58 6.94-7.52 6.73M2188 736.05c-6.04-.33-10.67-5.5-10.34-11.54.34-6.05 5.51-10.68 11.55-10.34 6.04.33 10.67 5.5 10.34 11.54-.33 6.05-5.5 10.67-11.55 10.34m27.4-113.61c-3.85-.21-6.8-3.5-6.58-7.34.21-3.85 3.5-6.79 7.34-6.58 3.85.21 6.79 3.5 6.58 7.34a6.97 6.97 0 0 1-7.34 6.58m-185 27.65a7.13 7.13 0 0 1-6.73-7.52 7.127 7.127 0 0 1 7.51-6.73 7.13 7.13 0 0 1 6.73 7.52c-.21 3.93-3.58 6.94-7.51 6.73m69.2 71.52c-6.06-.34-10.71-5.52-10.37-11.58.33-6.06 5.51-10.7 11.57-10.37 6.07.33 10.71 5.52 10.37 11.58-.33 6.06-5.51 10.7-11.57 10.37m-160.9 51.14a7.12 7.12 0 0 1-6.73-7.51 7.12 7.12 0 0 1 7.51-6.73 7.12 7.12 0 0 1 6.73 7.51 7.12 7.12 0 0 1-7.51 6.73m46-644.27c-3.94-.22-6.95-3.58-6.73-7.51.21-3.94 3.58-6.95 7.51-6.74 3.94.22 6.95 3.59 6.73 7.52a7.127 7.127 0 0 1-7.51 6.73m430.7 651.77a7.127 7.127 0 0 1-6.73-7.51 7.13 7.13 0 0 1 7.52-6.73c3.93.21 6.94 3.58 6.73 7.51a7.13 7.13 0 0 1-7.52 6.73m-284.8-653.91c-6.06-.33-10.7-5.51-10.36-11.57.33-6.06 5.51-10.71 11.57-10.37 6.06.33 10.71 5.51 10.37 11.58-.33 6.06-5.52 10.7-11.58 10.36m238.1 504.97c-6.06-.33-10.7-5.51-10.37-11.57.34-6.06 5.52-10.71 11.58-10.37 6.06.33 10.7 5.51 10.37 11.57-.34 6.06-5.52 10.71-11.58 10.37m-356.2-78.07c-6.06-.33-10.7-5.51-10.37-11.58.33-6.06 5.52-10.7 11.58-10.36 6.06.33 10.7 5.51 10.37 11.57-.34 6.06-5.52 10.71-11.58 10.37m173.5-35.3c-6.06-.34-10.7-5.52-10.37-11.58.34-6.06 5.52-10.7 11.58-10.37s10.7 5.52 10.37 11.58-5.52 10.7-11.58 10.37m-527-399.02c-7.25-.4-12.81-6.6-12.41-13.85.4-7.26 6.6-12.81 13.86-12.41 7.25.4 12.8 6.6 12.4 13.85s-6.6 12.81-13.85 12.41m-118.4 36.28c-9.57-.53-16.9-8.71-16.37-18.28.53-9.56 8.71-16.89 18.27-16.36 9.57.52 16.9 8.7 16.37 18.27-.52 9.57-8.71 16.9-18.27 16.37m114.7 119.67a7.127 7.127 0 0 1-6.73-7.51c.22-3.94 3.58-6.95 7.51-6.73 3.94.21 6.95 3.58 6.74 7.51a7.135 7.135 0 0 1-7.52 6.73M1453.9 89.4a7.135 7.135 0 0 1-6.73-7.52 7.127 7.127 0 0 1 7.51-6.73c3.94.22 6.95 3.58 6.73 7.51-.21 3.94-3.58 6.95-7.51 6.74m97.2 152.13c-3.94-.22-6.95-3.58-6.73-7.51.22-3.94 3.58-6.95 7.51-6.73a7.12 7.12 0 0 1 6.73 7.51 7.12 7.12 0 0 1-7.51 6.73m352 507.66c-3.93-.21-6.94-3.58-6.73-7.51.22-3.93 3.58-6.95 7.52-6.73 3.93.21 6.95 3.58 6.73 7.51a7.13 7.13 0 0 1-7.52 6.73m-162.4-580.66c-6.06-.34-10.7-5.52-10.36-11.58.33-6.06 5.51-10.71 11.57-10.37 6.06.33 10.71 5.52 10.37 11.58-.33 6.06-5.51 10.7-11.58 10.37m-328.4 380.96a7.13 7.13 0 0 1 6.73 7.52 7.127 7.127 0 0 1-7.51 6.73 7.13 7.13 0 0 1-6.73-7.52c.21-3.93 3.58-6.94 7.51-6.73m76.9-102.92c6.06.34 10.7 5.52 10.37 11.58s-5.52 10.7-11.58 10.37c-6.06-.34-10.7-5.52-10.37-11.58.34-6.06 5.52-10.7 11.58-10.37m-51-215.15c-7.25-.4-12.81-6.6-12.41-13.85s6.6-12.81 13.85-12.41c7.26.4 12.81 6.6 12.41 13.85-.4 7.26-6.6 12.81-13.85 12.41m-3.7 155.96a7.135 7.135 0 0 1-6.73-7.52 7.127 7.127 0 0 1 7.51-6.73 7.13 7.13 0 0 1 6.73 7.52c-.21 3.93-3.58 6.94-7.51 6.73m85.3-106.35c-6.06-.33-10.7-5.52-10.37-11.58.34-6.06 5.52-10.7 11.58-10.37 6.06.34 10.7 5.52 10.37 11.58s-5.52 10.7-11.58 10.37m1461.9 317.36c-3.94 0-7.14-3.19-7.14-7.13s3.2-7.14 7.14-7.14 7.13 3.2 7.13 7.14-3.19 7.13-7.13 7.13m35.6-224.47c-6.05 0-10.96-4.91-10.96-10.96s4.91-10.96 10.96-10.96 10.96 4.91 10.96 10.96-4.91 10.96-10.96 10.96m21.1-114.95c-3.85 0-6.97-3.12-6.97-6.97s3.12-6.97 6.97-6.97c3.86 0 6.98 3.12 6.98 6.97s-3.12 6.97-6.98 6.97m-110.1 105.38c-6.07 0-10.99-4.92-10.99-10.99s4.92-10.99 10.99-10.99 10.99 4.92 10.99 10.99-4.92 10.99-10.99 10.99m36.1 99.35c-3.94 0-7.14-3.2-7.14-7.14s3.2-7.13 7.14-7.13 7.13 3.19 7.13 7.13-3.19 7.14-7.13 7.14m167.8-83.18c-3.94 0-7.14-3.2-7.14-7.14s3.2-7.13 7.14-7.13 7.13 3.19 7.13 7.13-3.19 7.14-7.13 7.14m-71.1 106.99c-6.07 0-10.99-4.92-10.99-10.99s4.92-10.99 10.99-10.99 10.99 4.92 10.99 10.99-4.92 10.99-10.99 10.99m77.8-232.31c-6.06 0-10.99-4.92-10.99-10.99s4.93-10.99 10.99-10.99c6.07 0 10.99 4.92 10.99 10.99s-4.92 10.99-10.99 10.99m-135.5-98.96c-6.07 0-10.99-4.92-10.99-10.99s4.92-10.99 10.99-10.99 10.99 4.92 10.99 10.99-4.92 10.99-10.99 10.99m120.4 543.29c7.26 0 13.15 5.89 13.15 13.15 0 7.27-5.89 13.15-13.15 13.15s-13.15-5.88-13.15-13.15c0-7.26 5.89-13.15 13.15-13.15m116.3-42.74c9.58 0 17.35 7.77 17.35 17.35s-7.77 17.35-17.35 17.35-17.35-7.77-17.35-17.35 7.77-17.35 17.35-17.35M3119 543.61c3.94 0 7.14 3.2 7.14 7.14s-3.2 7.13-7.14 7.13-7.13-3.19-7.13-7.13 3.19-7.14 7.13-7.14m211.2 174.12c3.94 0 7.13 3.2 7.13 7.14s-3.19 7.13-7.13 7.13-7.14-3.19-7.14-7.13 3.2-7.14 7.14-7.14m-105.3-146.56c3.94 0 7.13 3.19 7.13 7.13s-3.19 7.14-7.13 7.14-7.14-3.2-7.14-7.14 3.2-7.13 7.14-7.13m-185.3 83.32c6.07 0 10.99 4.92 10.99 10.99s-4.92 10.99-10.99 10.99-10.99-4.92-10.99-10.99 4.92-10.99 10.99-10.99m362.3-213.48c3.93.22 6.95 3.58 6.73 7.52a7.14 7.14 0 0 1-7.51 6.73 7.13 7.13 0 0 1-6.73-7.52 7.127 7.127 0 0 1 7.51-6.73m-13.5 124.76c6.06.33 10.71 5.52 10.37 11.58-.33 6.06-5.51 10.7-11.58 10.37-6.06-.34-10.7-5.52-10.36-11.58.33-6.06 5.51-10.7 11.57-10.37m39.4-442.83c-7.25-.4-12.81-6.6-12.41-13.85s6.6-12.81 13.85-12.41 12.81 6.6 12.41 13.85-6.6 12.81-13.85 12.41m-118.5 36.28c-9.56-.53-16.89-8.71-16.36-18.28.52-9.56 8.7-16.89 18.27-16.36 9.57.52 16.9 8.71 16.37 18.27-.53 9.57-8.71 16.9-18.28 16.37m114.8 119.67c-3.94-.21-6.95-3.58-6.74-7.51a7.135 7.135 0 0 1 7.52-6.73c3.93.21 6.95 3.58 6.73 7.51a7.12 7.12 0 0 1-7.51 6.73M3222.7 93.42c-3.93-.22-6.94-3.58-6.73-7.52.22-3.93 3.58-6.95 7.52-6.73 3.93.22 6.95 3.58 6.73 7.52-.22 3.93-3.58 6.95-7.52 6.73m97.2 152.13c-3.94-.21-6.95-3.58-6.74-7.51a7.135 7.135 0 0 1 7.52-6.73c3.93.21 6.95 3.58 6.73 7.51a7.12 7.12 0 0 1-7.51 6.73m-138.8 307.97c3.93.21 6.95 3.58 6.73 7.51a7.13 7.13 0 0 1-7.52 6.73 7.14 7.14 0 0 1-6.73-7.51 7.13 7.13 0 0 1 7.52-6.73m76.9-102.93c6.06.34 10.7 5.52 10.37 11.58-.34 6.06-5.52 10.7-11.58 10.37s-10.71-5.52-10.37-11.58c.33-6.06 5.52-10.7 11.58-10.37m-51-215.15c-7.25-.39-12.8-6.6-12.4-13.85s6.6-12.8 13.85-12.41c7.25.4 12.81 6.61 12.41 13.86s-6.6 12.8-13.86 12.4m-3.7 155.96c-3.93-.22-6.94-3.58-6.73-7.52.22-3.93 3.58-6.95 7.52-6.73 3.93.22 6.95 3.58 6.73 7.52-.22 3.93-3.58 6.94-7.52 6.73m85.3-106.35c-6.06-.33-10.7-5.52-10.37-11.58s5.52-10.7 11.58-10.37c6.06.34 10.7 5.52 10.37 11.58-.34 6.06-5.52 10.71-11.58 10.37M3082.5 1399.3c-7.26 0-13.15-5.89-13.15-13.15s5.89-13.15 13.15-13.15c7.27 0 13.15 5.89 13.15 13.15s-5.88 13.15-13.15 13.15m-25.7 102.1c-9.58 0-17.34-7.77-17.34-17.35s7.76-17.35 17.34-17.35 17.35 7.77 17.35 17.35-7.77 17.35-17.35 17.35m109.7-341.3c-9.58 0-17.35-7.77-17.35-17.35s7.77-17.34 17.35-17.34 17.34 7.76 17.34 17.34-7.76 17.35-17.34 17.35m-104.6 118.3c-6.07 0-10.99-4.92-10.99-10.99s4.92-10.99 10.99-10.99 10.99 4.92 10.99 10.99-4.92 10.99-10.99 10.99m164.4 231.7c-3.94 0-7.13-3.19-7.13-7.13s3.19-7.14 7.13-7.14 7.14 3.2 7.14 7.14-3.2 7.13-7.14 7.13m35.6-224.5c-6.05 0-10.96-4.9-10.96-10.95 0-6.06 4.91-10.96 10.96-10.96s10.96 4.9 10.96 10.96c0 6.05-4.91 10.95-10.96 10.95m21.1-114.9c-3.85 0-6.97-3.12-6.97-6.97s3.12-6.98 6.97-6.98 6.97 3.13 6.97 6.98-3.12 6.97-6.97 6.97m-183.2 37.8c-3.94 0-7.13-3.2-7.13-7.14s3.19-7.13 7.13-7.13 7.14 3.19 7.14 7.13-3.2 7.14-7.14 7.14m73 67.6c-6.07 0-10.99-4.92-10.99-10.99s4.92-10.99 10.99-10.99 10.99 4.92 10.99 10.99-4.92 10.99-10.99 10.99M3015 1336c-3.94 0-7.14-3.2-7.14-7.14s3.2-7.13 7.14-7.13 7.13 3.19 7.13 7.13-3.19 7.14-7.13 7.14m193.9 39.4c-3.94 0-7.13-3.19-7.13-7.13s3.19-7.13 7.13-7.13 7.14 3.19 7.14 7.13-3.2 7.13-7.14 7.13m167.9-83.1c-3.94 0-7.14-3.2-7.14-7.14s3.2-7.13 7.14-7.13c3.93 0 7.13 3.19 7.13 7.13s-3.2 7.14-7.13 7.14m-71.1 106.9c-6.07 0-10.99-4.92-10.99-10.99s4.92-10.99 10.99-10.99 10.99 4.92 10.99 10.99-4.92 10.99-10.99 10.99m77.7-232.3c-6.07 0-10.99-4.92-10.99-10.99s4.92-10.99 10.99-10.99 10.99 4.92 10.99 10.99-4.92 10.99-10.99 10.99m-306.8-54.1c-6.07 0-10.99-4.92-10.99-10.99s4.92-10.99 10.99-10.99 10.99 4.92 10.99 10.99-4.92 10.99-10.99 10.99m171.3-44.8c-6.07 0-10.99-4.92-10.99-10.99s4.92-10.99 10.99-10.99 10.99 4.92 10.99 10.99-4.92 10.99-10.99 10.99m-314.7-150.59c7.27 0 13.15 5.89 13.15 13.15s-5.88 13.15-13.15 13.15c-7.26 0-13.15-5.89-13.15-13.15s5.89-13.15 13.15-13.15m83.1-24.75c9.58 0 17.35 7.77 17.35 17.35s-7.77 17.35-17.35 17.35-17.34-7.77-17.34-17.35 7.76-17.35 17.34-17.35m-114.6 257.04c9.58 0 17.35 7.77 17.35 17.35s-7.77 17.34-17.35 17.34-17.35-7.76-17.35-17.34 7.77-17.35 17.35-17.35m104.6-118.3c6.07 0 10.99 4.92 10.99 10.99s-4.92 10.99-10.99 10.99-10.99-4.92-10.99-10.99 4.92-10.99 10.99-10.99m-164.4-231.72c3.93 0 7.13 3.19 7.13 7.13s-3.2 7.14-7.13 7.14c-3.95 0-7.14-3.2-7.14-7.14s3.19-7.13 7.14-7.13m-35.6 224.52c6.05 0 10.96 4.9 10.96 10.95 0 6.06-4.91 10.96-10.96 10.96s-10.96-4.9-10.96-10.96c0-6.05 4.91-10.95 10.96-10.95m-21.1 114.9c3.85 0 6.97 3.12 6.97 6.97s-3.12 6.98-6.97 6.98-6.98-3.13-6.98-6.98 3.13-6.97 6.98-6.97m183.2-37.8c3.94 0 7.14 3.2 7.14 7.14s-3.2 7.13-7.14 7.13c-3.93 0-7.13-3.19-7.13-7.13s3.2-7.14 7.13-7.14m-73-67.6c6.07 0 10.99 4.92 10.99 10.99s-4.92 10.99-10.99 10.99-10.99-4.92-10.99-10.99 4.92-10.99 10.99-10.99m157.8-59.9c3.94 0 7.13 3.2 7.13 7.14s-3.19 7.13-7.13 7.13-7.13-3.19-7.13-7.13 3.19-7.14 7.13-7.14m-193.9-39.42c3.94 0 7.13 3.19 7.13 7.13s-3.19 7.13-7.13 7.13-7.14-3.19-7.14-7.13 3.2-7.13 7.14-7.13m-167.9 83.22c3.94 0 7.14 3.2 7.14 7.14s-3.2 7.13-7.14 7.13-7.13-3.19-7.13-7.13 3.19-7.14 7.13-7.14m38.9-96.6c6.07 0 10.99 4.92 10.99 10.99s-4.92 10.99-10.99 10.99-10.99-4.92-10.99-10.99 4.92-10.99 10.99-10.99m-45.5 221.9c6.07 0 10.99 4.92 10.99 10.99s-4.92 10.99-10.99 10.99-10.99-4.92-10.99-10.99 4.92-10.99 10.99-10.99m306.8 54.1c6.07 0 10.99 4.92 10.99 10.99s-4.92 10.99-10.99 10.99-10.99-4.92-10.99-10.99 4.92-10.99 10.99-10.99m-114.5 65.7c6.07 0 10.99 4.92 10.99 10.99s-4.92 10.99-10.99 10.99-10.99-4.92-10.99-10.99 4.92-10.99 10.99-10.99m368.3-329.28c7.26 0 13.15 5.89 13.15 13.15s-5.89 13.15-13.15 13.15c-7.27 0-13.15-5.89-13.15-13.15s5.88-13.15 13.15-13.15m116.3-42.74c9.58 0 17.34 7.76 17.34 17.35 0 9.58-7.76 17.34-17.34 17.34s-17.35-7.76-17.35-17.34c0-9.59 7.77-17.35 17.35-17.35M3240.5 777.5c3.94 0 7.13 3.19 7.13 7.13s-3.19 7.14-7.13 7.14-7.14-3.2-7.14-7.14 3.2-7.13 7.14-7.13m211.3 174.12c3.94 0 7.14 3.19 7.14 7.13s-3.2 7.14-7.14 7.14-7.13-3.2-7.13-7.14 3.19-7.13 7.13-7.13m-105.4-146.56c3.94 0 7.14 3.19 7.14 7.13s-3.2 7.13-7.14 7.13-7.13-3.19-7.13-7.13 3.19-7.13 7.13-7.13M3090 995.37c3.94 0 7.13 3.19 7.13 7.13 0 3.95-3.19 7.14-7.13 7.14s-7.14-3.19-7.14-7.14c0-3.94 3.2-7.13 7.14-7.13m71.1-106.99c6.07 0 10.99 4.92 10.99 10.99s-4.92 10.99-10.99 10.99-10.99-4.92-10.99-10.99 4.92-10.99 10.99-10.99M2394.4 1108c7.27 0 13.15 5.89 13.15 13.16 0 7.26-5.88 13.14-13.15 13.14-7.26 0-13.15-5.88-13.15-13.14 0-7.27 5.89-13.16 13.15-13.16m227.9-71.9c9.58 0 17.35 7.77 17.35 17.35s-7.77 17.35-17.35 17.35-17.35-7.77-17.35-17.35 7.77-17.35 17.35-17.35M2363 1340.3c9.58 0 17.35 7.77 17.35 17.35S2372.58 1375 2363 1375s-17.35-7.77-17.35-17.35 7.77-17.35 17.35-17.35m104.6-118.3c6.07 0 10.99 4.92 10.99 10.99s-4.92 10.99-10.99 10.99-10.99-4.92-10.99-10.99 4.92-10.99 10.99-10.99m-164.4-231.71c3.93 0 7.13 3.19 7.13 7.13s-3.2 7.13-7.13 7.13c-3.95 0-7.14-3.19-7.14-7.13s3.19-7.13 7.14-7.13m-35.6 224.51c6.05 0 10.96 4.91 10.96 10.96s-4.91 10.96-10.96 10.96-10.96-4.91-10.96-10.96 4.91-10.96 10.96-10.96m-21.1 114.9c3.85 0 6.97 3.12 6.97 6.97s-3.12 6.97-6.97 6.97-6.98-3.12-6.98-6.97 3.13-6.97 6.98-6.97m183.2-37.8c3.94 0 7.14 3.19 7.14 7.13s-3.2 7.14-7.14 7.14c-3.93 0-7.13-3.2-7.13-7.14s3.2-7.13 7.13-7.13m-73.1-67.6c6.07 0 10.99 4.92 10.99 10.98 0 6.07-4.92 10.99-10.99 10.99s-10.99-4.92-10.99-10.99c0-6.06 4.92-10.98 10.99-10.98m157.9-59.9c3.94 0 7.13 3.19 7.13 7.13s-3.19 7.14-7.13 7.14-7.13-3.2-7.13-7.14 3.19-7.13 7.13-7.13m-193.9-39.4c3.94 0 7.13 3.2 7.13 7.14s-3.19 7.13-7.13 7.13-7.14-3.19-7.14-7.13 3.2-7.14 7.14-7.14m-167.9 83.2c3.94 0 7.14 3.19 7.14 7.13s-3.2 7.14-7.14 7.14-7.13-3.2-7.13-7.14 3.19-7.13 7.13-7.13m71.1-107c6.07 0 10.99 4.92 10.99 10.99s-4.92 10.99-10.99 10.99-10.99-4.92-10.99-10.99 4.92-10.99 10.99-10.99m-77.8 232.3c6.07 0 10.99 4.92 10.99 10.99s-4.92 10.99-10.99 10.99-10.99-4.92-10.99-10.99 4.92-10.99 10.99-10.99m306.9 54.1c6.07 0 10.99 4.92 10.99 10.98 0 6.07-4.92 11-10.99 11s-10.99-4.93-10.99-11c0-6.06 4.92-10.98 10.99-10.98m-171.3 44.8c6.07 0 10.99 4.92 10.99 10.99s-4.92 10.99-10.99 10.99-10.99-4.92-10.99-10.99 4.92-10.99 10.99-10.99m196-448.33c-7.26 0-13.14-5.88-13.14-13.15 0-7.26 5.88-13.15 13.14-13.15 7.27 0 13.15 5.89 13.15 13.15 0 7.27-5.88 13.15-13.15 13.15m-180.7-216.13c-9.58 0-17.34-7.77-17.34-17.35s7.76-17.35 17.34-17.35c9.59 0 17.35 7.77 17.35 17.35s-7.76 17.35-17.35 17.35m330.9 582.76c-9.58 0-17.35-7.77-17.35-17.35s7.77-17.35 17.35-17.35 17.34 7.77 17.34 17.35-7.76 17.35-17.34 17.35M2523.2 1469c-6.07 0-10.99-4.92-10.99-10.99s4.92-10.99 10.99-10.99 10.99 4.92 10.99 10.99-4.92 10.99-10.99 10.99m-9.3-377.8c-3.94 0-7.14-3.19-7.14-7.14 0-3.94 3.2-7.13 7.14-7.13s7.13 3.19 7.13 7.13a7.13 7.13 0 0 1-7.13 7.14m209.3 385.1c-6.05 0-10.96-4.91-10.96-10.96s4.91-10.96 10.96-10.96 10.96 4.91 10.96 10.96-4.91 10.96-10.96 10.96m21.1-115c-3.85 0-6.97-3.13-6.97-6.98s3.12-6.97 6.97-6.97 6.97 3.12 6.97 6.97-3.12 6.98-6.97 6.98m-183.2 37.8c-3.94 0-7.13-3.19-7.13-7.13s3.19-7.14 7.13-7.14 7.14 3.2 7.14 7.14-3.2 7.13-7.14 7.13m73.1 67.6c-6.07 0-10.99-4.92-10.99-10.99s4.92-10.99 10.99-10.99 10.99 4.92 10.99 10.99-4.92 10.99-10.99 10.99m-157.9 59.9c-3.94 0-7.14-3.19-7.14-7.13s3.2-7.13 7.14-7.13 7.13 3.19 7.13 7.13-3.19 7.13-7.13 7.13m10.5-645.82c-3.94 0-7.13-3.19-7.13-7.13s3.19-7.13 7.13-7.13 7.14 3.19 7.14 7.13-3.2 7.13-7.14 7.13m465.8 627.12c-3.94 0-7.13-3.19-7.13-7.13s3.19-7.14 7.13-7.14 7.14 3.2 7.14 7.14-3.2 7.13-7.14 7.13m-320.2-648.26c-6.07 0-10.99-4.92-10.99-10.99s4.92-10.99 10.99-10.99 10.99 4.92 10.99 10.99-4.92 10.99-10.99 10.99m265.5 502.06c-6.07 0-10.99-4.92-10.99-10.99s4.92-10.99 10.99-10.99 10.99 4.92 10.99 10.99-4.92 10.99-10.99 10.99m-360-58.3c-6.07 0-10.99-4.92-10.99-10.99s4.92-10.99 10.99-10.99 10.99 4.92 10.99 10.99-4.92 10.99-10.99 10.99m171.3-44.8c-6.07 0-10.99-4.92-10.99-10.99s4.92-10.99 10.99-10.99 10.99 4.92 10.99 10.99-4.92 10.99-10.99 10.99m-548.1-369.45c-7.26 0-13.15-5.89-13.15-13.16 0-7.26 5.89-13.14 13.15-13.14s13.15 5.88 13.15 13.14c0 7.27-5.89 13.16-13.15 13.16m-116.3 42.74c-9.58 0-17.35-7.77-17.35-17.35s7.77-17.35 17.35-17.35 17.35 7.77 17.35 17.35-7.77 17.35-17.35 17.35M2166 1045.1c-3.94 0-7.13-3.2-7.13-7.14s3.19-7.13 7.13-7.13 7.13 3.19 7.13 7.13-3.19 7.14-7.13 7.14m-211.3-174.15c-3.94 0-7.14-3.2-7.14-7.14s3.2-7.13 7.14-7.13 7.13 3.19 7.13 7.13-3.19 7.14-7.13 7.14m105.4 146.55c-3.94 0-7.14-3.19-7.14-7.14 0-3.94 3.2-7.13 7.14-7.13a7.136 7.136 0 0 1 0 14.27m379.4 487.5c-3.94 0-7.13-3.2-7.13-7.14s3.19-7.13 7.13-7.13 7.14 3.19 7.14 7.13-3.2 7.14-7.14 7.14m-107.2-578.26c-6.07 0-10.99-4.92-10.99-10.99s4.92-10.99 10.99-10.99 10.99 4.92 10.99 10.99-4.92 10.99-10.99 10.99M965.19 905.67c7.25.4 12.81 6.6 12.41 13.86-.4 7.25-6.6 12.8-13.86 12.4-7.25-.4-12.8-6.6-12.4-13.85s6.6-12.81 13.85-12.41m31.22-100.55c9.57.53 16.9 8.71 16.37 18.28-.52 9.56-8.71 16.89-18.27 16.36-9.57-.52-16.9-8.71-16.37-18.27.53-9.57 8.71-16.9 18.27-16.37M764.47 1029.1c9.56.53 16.89 8.71 16.36 18.28-.52 9.57-8.7 16.89-18.27 16.37-9.57-.53-16.9-8.71-16.37-18.28s8.71-16.89 18.28-16.37m214.6-1.5c6.06.34 10.7 5.52 10.37 11.58s-5.52 10.7-11.58 10.37-10.7-5.52-10.37-11.58c.34-6.06 5.52-10.7 11.58-10.37M827.69 787.12c3.93.22 6.95 3.59 6.73 7.52s-3.58 6.95-7.51 6.73a7.14 7.14 0 0 1-6.74-7.51 7.15 7.15 0 0 1 7.52-6.74m-153.16 144.2c6.04.34 10.67 5.5 10.34 11.55-.33 6.04-5.5 10.67-11.55 10.34-6.04-.34-10.67-5.5-10.34-11.55.34-6.04 5.51-10.67 11.55-10.34m77.85 191.58c3.84.21 6.79 3.5 6.57 7.35a6.975 6.975 0 0 1-7.34 6.58 6.98 6.98 0 0 1-6.58-7.35c.21-3.84 3.5-6.79 7.35-6.58m185.01-27.6a7.12 7.12 0 0 1 6.73 7.51 7.12 7.12 0 0 1-7.51 6.73 7.12 7.12 0 0 1-6.73-7.51 7.12 7.12 0 0 1 7.51-6.73m-69.23-71.5c6.06.33 10.71 5.51 10.37 11.57-.33 6.06-5.51 10.71-11.57 10.37-6.06-.33-10.71-5.51-10.37-11.57.33-6.06 5.51-10.71 11.57-10.37m160.94-51.2a7.13 7.13 0 0 1 6.73 7.52c-.21 3.93-3.58 6.94-7.51 6.73a7.13 7.13 0 0 1-6.73-7.52 7.127 7.127 0 0 1 7.51-6.73m-191.48-50.03c3.93.22 6.95 3.58 6.73 7.52-.22 3.93-3.58 6.94-7.52 6.73-3.93-.22-6.94-3.58-6.73-7.52.22-3.93 3.58-6.95 7.52-6.73m-77-64.51a7.12 7.12 0 0 1 6.73 7.51 7.12 7.12 0 0 1-7.51 6.73 7.12 7.12 0 0 1-6.73-7.51 7.12 7.12 0 0 1 7.51-6.73m-182.5-26.77c6.06.33 10.7 5.51 10.37 11.57-.33 6.07-5.52 10.71-11.58 10.37-6.06-.33-10.7-5.51-10.37-11.57.34-6.06 5.52-10.71 11.58-10.37m73.76 289.91c6.06.34 10.7 5.52 10.37 11.58-.34 6.06-5.52 10.7-11.58 10.37-6.06-.34-10.7-5.52-10.37-11.58.34-6.06 5.52-10.7 11.58-10.37m303.39 70.9c6.06.33 10.7 5.52 10.37 11.58s-5.52 10.7-11.58 10.37c-6.06-.34-10.7-5.52-10.37-11.58.34-6.06 5.52-10.7 11.58-10.37m-173.51 35.3c6.06.33 10.7 5.51 10.37 11.57-.34 6.06-5.52 10.71-11.58 10.37-6.06-.33-10.7-5.51-10.37-11.57.33-6.07 5.52-10.71 11.58-10.37m306.04 167.7c-7.25-.4-12.8-6.61-12.4-13.86s6.6-12.8 13.85-12.4 12.81 6.6 12.41 13.85-6.6 12.81-13.86 12.41m-84.4 20.1c-9.57-.53-16.89-8.71-16.37-18.27.53-9.57 8.71-16.9 18.28-16.37 9.56.53 16.89 8.71 16.37 18.27-.53 9.57-8.71 16.9-18.28 16.37m128.5-250.4c-9.56-.52-16.89-8.7-16.36-18.27.52-9.57 8.7-16.89 18.27-16.37 9.57.53 16.9 8.71 16.37 18.28-.53 9.56-8.71 16.89-18.28 16.36M1021 1277.2c-6.06-.34-10.7-5.52-10.37-11.58.34-6.06 5.52-10.71 11.58-10.37 6.06.33 10.7 5.52 10.37 11.58s-5.52 10.7-11.58 10.37m151.4 240.4c-3.93-.21-6.94-3.58-6.73-7.51a7.13 7.13 0 0 1 7.52-6.73c3.93.21 6.94 3.58 6.73 7.51a7.13 7.13 0 0 1-7.52 6.73m47.9-222.1c-6.05-.34-10.68-5.51-10.34-11.55.33-6.04 5.5-10.67 11.54-10.34s10.67 5.5 10.34 11.55c-.33 6.04-5.5 10.67-11.54 10.34m27.4-113.7a6.975 6.975 0 0 1 .76-13.93c3.85.21 6.8 3.5 6.58 7.35a6.975 6.975 0 0 1-7.34 6.58m-185 27.7c-3.93-.22-6.95-3.58-6.73-7.51.21-3.94 3.58-6.95 7.51-6.74a7.15 7.15 0 0 1 6.74 7.52c-.22 3.93-3.59 6.95-7.52 6.73m69.2 71.5c-6.06-.33-10.71-5.52-10.37-11.58.33-6.06 5.52-10.7 11.58-10.37 6.06.34 10.7 5.52 10.37 11.58-.34 6.06-5.52 10.7-11.58 10.37m-160.89 51.2c-3.93-.22-6.95-3.58-6.73-7.52.22-3.93 3.58-6.95 7.52-6.73 3.93.22 6.94 3.58 6.73 7.52-.22 3.93-3.59 6.94-7.52 6.73m191.49 50c-3.93-.22-6.94-3.58-6.73-7.52.22-3.93 3.58-6.95 7.52-6.73 3.93.22 6.95 3.58 6.73 7.52-.22 3.93-3.58 6.94-7.52 6.73m172.2-73.8c-3.94-.21-6.95-3.58-6.74-7.51.22-3.94 3.59-6.95 7.52-6.73s6.95 3.58 6.73 7.51a7.12 7.12 0 0 1-7.51 6.73m-44.2 94.2c-6.06-.34-10.7-5.52-10.37-11.58s5.52-10.7 11.58-10.37c6.06.34 10.7 5.52 10.37 11.58-.34 6.06-5.52 10.7-11.58 10.37m57.7-219c-6.06-.34-10.7-5.52-10.37-11.58.34-6.06 5.52-10.71 11.58-10.37 6.06.33 10.7 5.52 10.37 11.58s-5.52 10.7-11.58 10.37m-303.4-71c-6.06-.34-10.7-5.52-10.37-11.58.34-6.06 5.52-10.7 11.58-10.37s10.7 5.52 10.37 11.58-5.52 10.7-11.58 10.37m118-59.2c-6.06-.34-10.7-5.52-10.37-11.58.34-6.06 5.52-10.71 11.58-10.37 6.06.33 10.7 5.52 10.37 11.58-.34 6.06-5.52 10.7-11.58 10.37m-385.89 308.5c-7.25-.4-12.8-6.6-12.4-13.85s6.6-12.81 13.85-12.41 12.81 6.6 12.41 13.86c-.4 7.25-6.61 12.8-13.86 12.4m-118.48 36.3c-9.57-.52-16.89-8.71-16.37-18.27.53-9.57 8.71-16.9 18.28-16.37 9.56.53 16.89 8.71 16.37 18.28-.53 9.56-8.71 16.89-18.28 16.36m114.76 119.7c-3.93-.22-6.94-3.59-6.73-7.52.22-3.93 3.58-6.95 7.52-6.73 3.93.22 6.94 3.58 6.73 7.52-.22 3.93-3.58 6.94-7.52 6.73m-201.38-185.5c-3.93-.22-6.95-3.58-6.73-7.52.22-3.93 3.58-6.94 7.52-6.73 3.93.22 6.94 3.59 6.73 7.52-.22 3.93-3.59 6.95-7.52 6.73m97.15 152.1c-3.93-.22-6.95-3.58-6.73-7.52.22-3.93 3.58-6.95 7.52-6.73 3.93.22 6.94 3.58 6.73 7.52-.22 3.93-3.58 6.94-7.52 6.73m266.5-175.9a7.144 7.144 0 0 1-6.74-7.52c.22-3.93 3.59-6.95 7.52-6.73s6.95 3.58 6.73 7.52c-.21 3.93-3.58 6.94-7.51 6.73m-76.89 102.9c-6.06-.33-10.7-5.52-10.37-11.58s5.52-10.7 11.58-10.37c6.06.34 10.7 5.52 10.37 11.58-.34 6.06-5.52 10.7-11.58 10.37m777.53-177.1c-7.25-.4-12.81-6.6-12.41-13.85.4-7.26 6.6-12.81 13.86-12.41 7.25.4 12.8 6.6 12.4 13.85s-6.6 12.81-13.85 12.41m-231.4 59.2c-9.57-.52-16.9-8.71-16.37-18.27.53-9.57 8.71-16.9 18.27-16.37 9.57.53 16.9 8.71 16.37 18.28-.53 9.56-8.71 16.89-18.27 16.36m275.6-289.5c-9.57-.53-16.9-8.71-16.37-18.28.53-9.56 8.71-16.89 18.28-16.37 9.56.53 16.89 8.71 16.36 18.28-.52 9.57-8.7 16.89-18.27 16.37m-110.9 112.4c-6.06-.34-10.71-5.52-10.37-11.58.33-6.06 5.52-10.7 11.58-10.37s10.7 5.52 10.36 11.58c-.33 6.06-5.51 10.7-11.57 10.37m151.4 240.4a7.135 7.135 0 0 1-6.73-7.52 7.127 7.127 0 0 1 7.51-6.73 7.13 7.13 0 0 1 6.73 7.52c-.21 3.93-3.58 6.94-7.51 6.73m47.9-222.1c-6.04-.33-10.67-5.5-10.34-11.55.33-6.04 5.5-10.67 11.55-10.34 6.04.34 10.67 5.51 10.34 11.55-.34 6.04-5.5 10.67-11.55 10.34m27.4-113.6c-3.84-.21-6.79-3.5-6.58-7.35.22-3.84 3.5-6.79 7.35-6.58 3.84.22 6.79 3.5 6.58 7.35-.21 3.84-3.5 6.79-7.35 6.58m-185 27.6c-3.94-.21-6.95-3.58-6.74-7.51a7.135 7.135 0 0 1 7.52-6.73c3.93.21 6.95 3.58 6.73 7.51-.22 3.94-3.58 6.95-7.51 6.73m69.2 71.5c-6.06-.33-10.7-5.51-10.37-11.57.34-6.06 5.52-10.71 11.58-10.37 6.06.33 10.71 5.51 10.37 11.57-.33 6.06-5.52 10.71-11.58 10.37m-160.9 51.2a7.144 7.144 0 0 1-6.74-7.52c.22-3.93 3.59-6.94 7.52-6.73 3.93.22 6.95 3.58 6.73 7.52a7.127 7.127 0 0 1-7.51 6.73m191.4 50a7.13 7.13 0 0 1-6.73-7.52 7.14 7.14 0 0 1 7.51-6.73 7.13 7.13 0 0 1 6.73 7.52 7.127 7.127 0 0 1-7.51 6.73m172.2-73.8c-3.93-.22-6.95-3.58-6.73-7.52.22-3.93 3.58-6.95 7.52-6.73 3.93.22 6.94 3.58 6.73 7.52-.22 3.93-3.58 6.94-7.52 6.73m-76.9 102.9c-6.06-.33-10.7-5.52-10.37-11.58.34-6.06 5.52-10.7 11.58-10.37 6.06.34 10.71 5.52 10.37 11.58-.33 6.06-5.52 10.7-11.58 10.37m90.5-227.7c-6.06-.34-10.7-5.52-10.37-11.58s5.52-10.7 11.58-10.37c6.06.34 10.7 5.52 10.37 11.58-.34 6.06-5.52 10.7-11.58 10.37m-303.4-70.95c-6.06-.33-10.71-5.52-10.37-11.58.33-6.06 5.51-10.7 11.57-10.37 6.07.34 10.71 5.52 10.37 11.58-.33 6.06-5.51 10.7-11.57 10.37m173.5-35.31c-6.06-.33-10.7-5.51-10.37-11.57.34-6.06 5.52-10.71 11.58-10.37 6.06.33 10.7 5.51 10.37 11.57-.34 6.07-5.52 10.71-11.58 10.37m-220.4 436.96c7.25.4 12.81 6.6 12.41 13.85-.4 7.26-6.6 12.81-13.86 12.41-7.25-.4-12.8-6.6-12.4-13.85s6.6-12.81 13.85-12.41m84.4 58.8c9.56.53 16.89 8.71 16.37 18.28-.53 9.56-8.71 16.89-18.28 16.36-9.57-.52-16.89-8.71-16.37-18.27.53-9.57 8.71-16.9 18.28-16.37m-214.2-433.16c9.57.52 16.9 8.7 16.37 18.27s-8.71 16.89-18.27 16.37c-9.57-.53-16.9-8.71-16.37-18.28.53-9.56 8.71-16.89 18.27-16.36m110.9-112.38c6.06.34 10.7 5.52 10.37 11.58-.34 6.06-5.52 10.71-11.58 10.37-6.06-.33-10.71-5.52-10.37-11.58.33-6.06 5.52-10.7 11.58-10.37m-11.5 377.74a7.13 7.13 0 0 1 6.73 7.52c-.21 3.93-3.58 6.94-7.51 6.73-3.93-.22-6.95-3.58-6.73-7.52a7.127 7.127 0 0 1 7.51-6.73m-187.7-395.99c6.05.33 10.67 5.5 10.34 11.54s-5.5 10.67-11.54 10.34c-6.05-.33-10.68-5.5-10.34-11.54.33-6.05 5.5-10.68 11.54-10.34m-27.5 113.6c3.85.22 6.79 3.51 6.58 7.35a6.97 6.97 0 0 1-7.35 6.58c-3.84-.21-6.79-3.5-6.58-7.35.22-3.84 3.5-6.79 7.35-6.58m185.1-27.64c3.93.22 6.95 3.58 6.73 7.51a7.144 7.144 0 0 1-7.52 6.74c-3.93-.22-6.94-3.59-6.73-7.52.22-3.93 3.58-6.95 7.52-6.73m-69.3-71.52c6.06.33 10.7 5.52 10.37 11.58s-5.52 10.7-11.58 10.37c-6.06-.34-10.7-5.52-10.37-11.58.34-6.06 5.52-10.7 11.58-10.37m160.9-51.15c3.93.22 6.95 3.58 6.73 7.52-.22 3.93-3.58 6.95-7.52 6.73-3.93-.22-6.95-3.58-6.73-7.52.22-3.93 3.58-6.94 7.52-6.73m-46 644.3c3.93.21 6.95 3.58 6.73 7.51a7.13 7.13 0 0 1-7.52 6.73 7.127 7.127 0 0 1-6.73-7.51 7.13 7.13 0 0 1 7.52-6.73m-430.6-651.8a7.15 7.15 0 0 1 6.74 7.52c-.22 3.93-3.59 6.95-7.52 6.73a7.127 7.127 0 0 1-6.73-7.51c.21-3.94 3.58-6.95 7.51-6.74m284.1 664.9c6.06.33 10.7 5.51 10.37 11.57-.34 6.06-5.52 10.71-11.58 10.37-6.06-.33-10.71-5.51-10.37-11.57.33-6.06 5.52-10.71 11.58-10.37m-237.5-515.96c6.06.34 10.71 5.52 10.37 11.58-.33 6.06-5.51 10.7-11.57 10.37s-10.71-5.52-10.37-11.58c.33-6.06 5.51-10.7 11.57-10.37m356.2 78.06c6.06.34 10.7 5.52 10.37 11.58-.34 6.06-5.52 10.7-11.58 10.37s-10.71-5.52-10.37-11.58c.33-6.06 5.52-10.7 11.58-10.37m-173.5 35.3c6.06.33 10.71 5.52 10.37 11.58-.33 6.06-5.52 10.7-11.58 10.37-6.06-.34-10.7-5.52-10.37-11.58.34-6.06 5.52-10.7 11.58-10.37m527 399c7.25.4 12.8 6.6 12.4 13.85s-6.6 12.81-13.85 12.41-12.81-6.6-12.41-13.85c.4-7.26 6.6-12.81 13.86-12.41m118.5-36.2c9.56.52 16.89 8.71 16.37 18.27-.53 9.57-8.71 16.9-18.28 16.37-9.56-.53-16.89-8.71-16.37-18.27.53-9.57 8.71-16.9 18.28-16.37m-114.8-119.7c3.93.22 6.94 3.59 6.73 7.52-.22 3.93-3.58 6.95-7.52 6.73a7.127 7.127 0 0 1-6.73-7.51 7.144 7.144 0 0 1 7.52-6.74m201.4 185.5c3.93.22 6.95 3.58 6.73 7.52-.22 3.93-3.58 6.94-7.52 6.73-3.93-.22-6.94-3.58-6.73-7.52.22-3.93 3.58-6.95 7.52-6.73m-97.1-152.2c3.93.22 6.94 3.59 6.73 7.52-.22 3.93-3.58 6.95-7.52 6.73a7.127 7.127 0 0 1-6.73-7.51 7.144 7.144 0 0 1 7.52-6.74M1613 835.46a7.13 7.13 0 0 1 6.73 7.52 7.127 7.127 0 0 1-7.51 6.73 7.13 7.13 0 0 1-6.73-7.52c.21-3.93 3.58-6.94 7.51-6.73m162.4 580.64c6.06.34 10.7 5.52 10.37 11.58s-5.52 10.7-11.58 10.37c-6.06-.34-10.7-5.52-10.37-11.58.34-6.06 5.52-10.7 11.58-10.37m328.5-380.9c-3.93-.21-6.94-3.58-6.73-7.51a7.13 7.13 0 0 1 7.52-6.73c3.93.21 6.95 3.58 6.73 7.51a7.13 7.13 0 0 1-7.52 6.73m-60.3 126.4c-6.06-.34-10.7-5.52-10.37-11.58.34-6.06 5.52-10.7 11.58-10.37 6.06.34 10.7 5.52 10.37 11.58s-5.52 10.7-11.58 10.37m34.4 191.6c7.25.4 12.8 6.61 12.4 13.86-.39 7.25-6.6 12.8-13.85 12.4-7.25-.39-12.81-6.6-12.41-13.85s6.61-12.81 13.86-12.41m-35.8-113.9c3.94.22 6.95 3.58 6.73 7.51-.21 3.94-3.58 6.95-7.51 6.74a7.135 7.135 0 0 1-6.73-7.52 7.127 7.127 0 0 1 7.51-6.73m-45.9 64.3c6.06.33 10.71 5.51 10.37 11.57-.33 6.07-5.52 10.71-11.58 10.37-6.06-.33-10.7-5.51-10.36-11.57.33-6.06 5.51-10.71 11.57-10.37M534.43 986.26c3.94 0 7.13 3.2 7.13 7.14s-3.19 7.13-7.13 7.13-7.14-3.19-7.14-7.13 3.2-7.14 7.14-7.14m-35.62 224.44c6.06 0 10.96 4.91 10.96 10.96s-4.9 10.96-10.96 10.96c-6.05 0-10.95-4.91-10.95-10.96s4.9-10.96 10.95-10.96m-21.12 115c3.85 0 6.97 3.12 6.97 6.97s-3.12 6.97-6.97 6.97-6.97-3.12-6.97-6.97 3.12-6.97 6.97-6.97m110.16-105.4c6.07 0 10.99 4.92 10.99 10.99s-4.92 10.99-10.99 10.99-10.99-4.92-10.99-10.99 4.92-10.99 10.99-10.99m-36.06-99.3c3.94 0 7.13 3.19 7.13 7.13s-3.19 7.14-7.13 7.14-7.13-3.2-7.13-7.14 3.19-7.13 7.13-7.13m-167.87 83.1c3.94 0 7.13 3.19 7.13 7.13s-3.19 7.14-7.13 7.14-7.14-3.2-7.14-7.14 3.2-7.13 7.14-7.13m71.11-107c6.07 0 10.99 4.92 10.99 10.99s-4.92 10.99-10.99 10.99-10.99-4.92-10.99-10.99 4.92-10.99 10.99-10.99m-77.78 232.3c6.07 0 10.99 4.92 10.99 10.99s-4.92 10.99-10.99 10.99-10.99-4.92-10.99-10.99 4.92-10.99 10.99-10.99m135.53 99c6.07 0 10.99 4.92 10.99 10.99s-4.92 10.99-10.99 10.99-10.99-4.92-10.99-10.99 4.92-10.99 10.99-10.99M392.31 885.12c-7.27 0-13.15-5.88-13.15-13.15 0-7.26 5.88-13.15 13.15-13.15 7.26 0 13.15 5.89 13.15 13.15 0 7.27-5.89 13.15-13.15 13.15M276 927.86c-9.58 0-17.35-7.76-17.35-17.34s7.77-17.35 17.35-17.35 17.34 7.77 17.34 17.35-7.76 17.34-17.34 17.34M397.16 1041c-3.93 0-7.13-3.2-7.13-7.14s3.2-7.13 7.13-7.13c3.94 0 7.14 3.19 7.14 7.13s-3.2 7.14-7.14 7.14M185.89 866.92c-3.94 0-7.13-3.19-7.13-7.13s3.19-7.13 7.13-7.13 7.13 3.19 7.13 7.13-3.19 7.13-7.13 7.13m105.37 146.58c-3.94 0-7.13-3.2-7.13-7.14s3.19-7.13 7.13-7.13 7.13 3.19 7.13 7.13-3.19 7.14-7.13 7.14m185.3-83.33c-6.07 0-10.99-4.92-10.99-10.99s4.92-10.99 10.99-10.99 10.99 4.92 10.99 10.99-4.92 10.99-10.99 10.99M114.22 1143.6c-3.93-.22-6.94-3.59-6.73-7.52.22-3.93 3.59-6.95 7.52-6.73s6.95 3.58 6.73 7.51a7.144 7.144 0 0 1-7.52 6.74m13.55-124.7c-6.06-.34-10.7-5.52-10.37-11.58.34-6.06 5.52-10.7 11.58-10.37s10.7 5.52 10.37 11.58-5.52 10.7-11.58 10.37m-39.46 442.8c7.25.4 12.81 6.6 12.41 13.85s-6.61 12.81-13.86 12.41-12.8-6.6-12.4-13.86c.4-7.25 6.6-12.8 13.85-12.4m118.48-36.3c9.57.52 16.9 8.7 16.37 18.27s-8.71 16.9-18.28 16.37c-9.56-.53-16.89-8.71-16.36-18.28.52-9.56 8.71-16.89 18.27-16.36M92.03 1305.8c3.93.22 6.95 3.59 6.73 7.52s-3.58 6.95-7.51 6.73a7.144 7.144 0 0 1-6.74-7.52c.22-3.93 3.59-6.94 7.52-6.73m201.38 185.4c3.94.22 6.95 3.58 6.73 7.51-.21 3.94-3.58 6.95-7.51 6.74a7.135 7.135 0 0 1-6.73-7.52 7.127 7.127 0 0 1 7.51-6.73m-97.15-152.1c3.93.22 6.95 3.59 6.73 7.52s-3.58 6.95-7.51 6.73a7.144 7.144 0 0 1-6.74-7.52c.22-3.93 3.59-6.94 7.52-6.73m138.81-308a7.12 7.12 0 0 1-6.73-7.51c.21-3.94 3.58-6.95 7.51-6.74 3.94.22 6.95 3.59 6.73 7.52a7.127 7.127 0 0 1-7.51 6.73m-76.89 103c-6.06-.33-10.7-5.51-10.37-11.57s5.52-10.71 11.58-10.37c6.06.33 10.7 5.51 10.37 11.58-.34 6.06-5.52 10.7-11.58 10.36m50.97 215.1c7.25.4 12.81 6.6 12.41 13.86-.4 7.25-6.6 12.8-13.86 12.4-7.25-.4-12.8-6.6-12.4-13.85s6.6-12.81 13.85-12.41m3.72-155.9c3.94.22 6.95 3.58 6.73 7.51-.21 3.94-3.58 6.95-7.51 6.74a7.135 7.135 0 0 1-6.73-7.52 7.127 7.127 0 0 1 7.51-6.73m-85.37 106.3c6.06.33 10.7 5.51 10.37 11.57-.34 6.06-5.52 10.71-11.58 10.37-6.06-.33-10.71-5.51-10.37-11.58.33-6.06 5.52-10.7 11.58-10.36m1438.2-451.01c-3.93-.22-6.95-3.58-6.73-7.52.22-3.93 3.58-6.95 7.52-6.73 3.93.22 6.94 3.58 6.73 7.52-.22 3.93-3.58 6.94-7.52 6.73m585.4 727.81c-6.04-.33-10.67-5.5-10.33-11.54.33-6.04 5.5-10.67 11.54-10.34s10.67 5.5 10.34 11.54c-.33 6.05-5.5 10.68-11.55 10.34m-595.3-863.26c-3.93-.22-6.95-3.58-6.73-7.51a7.144 7.144 0 0 1 7.52-6.74c3.93.22 6.94 3.59 6.73 7.52-.22 3.93-3.58 6.95-7.52 6.73m709.7 876.26c-3.93-.21-6.94-3.58-6.73-7.51a7.135 7.135 0 0 1 7.52-6.73c3.93.21 6.95 3.58 6.73 7.51a7.13 7.13 0 0 1-7.52 6.73m-614.4-847.16c-6.06-.33-10.71-5.52-10.37-11.58.33-6.06 5.52-10.7 11.58-10.37 6.06.34 10.7 5.52 10.36 11.58-.33 6.06-5.51 10.7-11.57 10.37m745.4 857.26c-3.94 0-7.13-3.19-7.13-7.13s3.19-7.14 7.13-7.14 7.14 3.2 7.14 7.14-3.2 7.13-7.14 7.13m295.9-775.6c7.27 0 13.15 5.89 13.15 13.15s-5.88 13.15-13.15 13.15c-7.26 0-13.15-5.89-13.15-13.15s5.89-13.15 13.15-13.15m116.3-42.74c9.58 0 17.35 7.77 17.35 17.35s-7.77 17.35-17.35 17.35-17.34-7.77-17.34-17.35 7.76-17.35 17.34-17.35m-275 763.54c3.94 0 7.13 3.19 7.13 7.13s-3.19 7.14-7.13 7.14-7.14-3.2-7.14-7.14 3.2-7.13 7.14-7.13m365.1-702.6c3.94 0 7.13 3.19 7.13 7.13 0 3.95-3.19 7.14-7.13 7.14s-7.13-3.19-7.13-7.14c0-3.94 3.19-7.13 7.13-7.13m-105.3-146.56c3.94 0 7.13 3.19 7.13 7.13s-3.19 7.14-7.13 7.14-7.13-3.2-7.13-7.14 3.19-7.13 7.13-7.13m-185.3 83.32c6.06 0 10.99 4.92 10.99 10.99s-4.93 10.99-10.99 10.99c-6.07 0-10.99-4.92-10.99-10.99s4.92-10.99 10.99-10.99m348.8-88.72c6.06.33 10.7 5.52 10.37 11.58-.34 6.06-5.52 10.7-11.58 10.37-6.06-.34-10.7-5.52-10.37-11.58s5.52-10.71 11.58-10.37m-207.3-12.26a7.13 7.13 0 0 1 6.73 7.52 7.127 7.127 0 0 1-7.51 6.73 7.13 7.13 0 0 1-6.73-7.52c.21-3.93 3.58-6.94 7.51-6.73M1819.2 850.73c3.94 0 7.13 3.2 7.13 7.14s-3.19 7.13-7.13 7.13-7.13-3.19-7.13-7.13 3.19-7.14 7.13-7.14m1089.9 51.13c3.94 0 7.14 3.2 7.14 7.14s-3.2 7.13-7.14 7.13-7.13-3.19-7.13-7.13 3.19-7.14 7.13-7.14m-39.9 663.54c3.94 0 7.13-3.19 7.13-7.13s-3.19-7.13-7.13-7.13-7.13 3.19-7.13 7.13 3.19 7.13 7.13 7.13m398.6 22.2c3.94 0 7.14-3.2 7.14-7.14s-3.2-7.13-7.14-7.13-7.13 3.19-7.13 7.13 3.19 7.14 7.13 7.14m105.9-27.5c3.94 0 7.13-3.19 7.13-7.13s-3.19-7.14-7.13-7.14-7.14 3.2-7.14 7.14 3.2 7.13 7.14 7.13M854.97 1578a7.144 7.144 0 0 0 6.74-7.52c-.22-3.93-3.59-6.94-7.52-6.73-3.93.22-6.95 3.59-6.73 7.52a7.127 7.127 0 0 0 7.51 6.73m749.73-24.8a7.12 7.12 0 0 0 6.73-7.51 7.12 7.12 0 0 0-7.51-6.73 7.12 7.12 0 0 0-6.73 7.51 7.12 7.12 0 0 0 7.51 6.73m-476.6 7.5c3.93-.22 6.95-3.58 6.73-7.52-.22-3.93-3.58-6.94-7.52-6.73-3.93.22-6.94 3.58-6.73 7.52.22 3.93 3.58 6.95 7.52 6.73m-667.14 619.1c7.26 0 13.15-5.89 13.15-13.15s-5.89-13.15-13.15-13.15c-7.27 0-13.15 5.89-13.15 13.15s5.88 13.15 13.15 13.15m25.65 102.1c9.58 0 17.34-7.77 17.34-17.35s-7.76-17.35-17.34-17.35-17.35 7.77-17.35 17.35 7.77 17.35 17.35 17.35m-109.65-341.4c9.58 0 17.35-7.77 17.35-17.35s-7.77-17.35-17.35-17.35-17.34 7.77-17.34 17.35 7.76 17.35 17.34 17.35m104.56 118.3c6.07 0 10.99-4.92 10.99-10.99s-4.92-10.99-10.99-10.99-10.99 4.92-10.99 10.99 4.92 10.99 10.99 10.99m-164.37 231.8c3.94 0 7.13-3.2 7.13-7.14s-3.19-7.13-7.13-7.13-7.14 3.19-7.14 7.13 3.2 7.14 7.14 7.14m-35.62-224.5c6.05 0 10.96-4.9 10.96-10.96 0-6.05-4.91-10.96-10.96-10.96s-10.96 4.91-10.96 10.96c0 6.06 4.91 10.96 10.96 10.96m-21.12-114.9a6.97 6.97 0 0 0 6.97-6.97c0-3.86-3.12-6.98-6.97-6.98s-6.97 3.12-6.97 6.98a6.97 6.97 0 0 0 6.97 6.97m183.22 37.7c3.94 0 7.13-3.19 7.13-7.13s-3.19-7.13-7.13-7.13-7.14 3.19-7.14 7.13 3.2 7.13 7.14 7.13m-73.06 67.7c6.07 0 10.99-4.92 10.99-10.99s-4.92-10.99-10.99-10.99-10.99 4.92-10.99 10.99 4.92 10.99 10.99 10.99m157.85 59.9c3.94 0 7.14-3.2 7.14-7.14s-3.2-7.13-7.14-7.13-7.13 3.19-7.13 7.13 3.19 7.14 7.13 7.14m-193.91 39.4c3.94 0 7.13-3.19 7.13-7.13s-3.19-7.14-7.13-7.14-7.14 3.2-7.14 7.14 3.2 7.13 7.14 7.13m-167.88-83.2c3.95 0 7.14-3.19 7.14-7.13s-3.19-7.13-7.14-7.13c-3.93 0-7.13 3.19-7.13 7.13s3.2 7.13 7.13 7.13m71.12 107c6.07 0 10.99-4.92 10.99-10.99s-4.92-10.99-10.99-10.99-10.99 4.92-10.99 10.99 4.92 10.99 10.99 10.99m-77.78-232.3c6.07 0 10.99-4.92 10.99-10.99s-4.92-10.99-10.99-10.99-10.99 4.92-10.99 10.99 4.92 10.99 10.99 10.99m306.83-54.2c6.07 0 10.99-4.92 10.99-10.99s-4.92-10.99-10.99-10.99-10.99 4.92-10.99 10.99 4.92 10.99 10.99 10.99m-171.31-44.8c6.07 0 10.99-4.92 10.99-10.99s-4.92-10.99-10.99-10.99-10.99 4.92-10.99 10.99 4.92 10.99 10.99 10.99m314.78-150.5c-7.27 0-13.15 5.88-13.15 13.15 0 7.26 5.88 13.15 13.15 13.15 7.26 0 13.15-5.89 13.15-13.15 0-7.27-5.89-13.15-13.15-13.15m-83.19-24.8c-9.58 0-17.35 7.77-17.35 17.35s7.77 17.34 17.35 17.34 17.34-7.76 17.34-17.34-7.76-17.35-17.34-17.35m114.6 257.1c-9.58 0-17.35 7.76-17.35 17.34 0 9.59 7.77 17.35 17.35 17.35s17.35-7.76 17.35-17.35c0-9.58-7.77-17.34-17.35-17.34m-104.56-118.3c-6.07 0-10.99 4.92-10.99 10.99s4.92 10.99 10.99 10.99 10.99-4.92 10.99-10.99-4.92-10.99-10.99-10.99m164.37-231.8c-3.93 0-7.13 3.19-7.13 7.13s3.2 7.14 7.13 7.14c3.95 0 7.14-3.2 7.14-7.14s-3.19-7.13-7.14-7.13m35.62 224.5c-6.05 0-10.96 4.91-10.96 10.96 0 6.06 4.91 10.96 10.96 10.96s10.96-4.9 10.96-10.96c0-6.05-4.91-10.96-10.96-10.96m21.12 115c-3.85 0-6.97 3.12-6.97 6.97s3.12 6.97 6.97 6.97 6.98-3.12 6.98-6.97-3.13-6.97-6.98-6.97m-183.21-37.8c-3.94 0-7.14 3.2-7.14 7.14s3.2 7.13 7.14 7.13c3.93 0 7.13-3.19 7.13-7.13s-3.2-7.14-7.13-7.14m73.05-67.6c-6.07 0-10.99 4.92-10.99 10.99s4.92 10.99 10.99 10.99 10.99-4.92 10.99-10.99-4.92-10.99-10.99-10.99m-157.85-59.9c-3.94 0-7.13 3.19-7.13 7.13s3.19 7.14 7.13 7.14 7.13-3.2 7.13-7.14-3.19-7.13-7.13-7.13m193.91-39.5c-3.94 0-7.13 3.2-7.13 7.14s3.19 7.13 7.13 7.13 7.14-3.19 7.14-7.13-3.2-7.14-7.14-7.14m167.88 83.2c-3.94 0-7.14 3.2-7.14 7.14s3.2 7.13 7.14 7.13 7.13-3.19 7.13-7.13-3.19-7.14-7.13-7.14m-38.88-96.6c-6.07 0-10.99 4.93-10.99 10.99 0 6.07 4.92 10.99 10.99 10.99s10.99-4.92 10.99-10.99c0-6.06-4.92-10.99-10.99-10.99m45.54 221.9c-6.07 0-10.99 4.92-10.99 10.99s4.92 10.99 10.99 10.99 10.99-4.92 10.99-10.99-4.92-10.99-10.99-10.99m-306.83 54.2c-6.07 0-10.99 4.92-10.99 10.99s4.92 10.99 10.99 10.99 10.99-4.92 10.99-10.99-4.92-10.99-10.99-10.99m114.51 65.6c-6.07 0-10.99 4.93-10.99 10.99 0 6.07 4.92 10.99 10.99 10.99s10.99-4.92 10.99-10.99c0-6.06-4.92-10.99-10.99-10.99m-368.3-329.2c-7.26 0-13.15 5.88-13.15 13.15 0 7.26 5.89 13.15 13.15 13.15 7.27 0 13.15-5.89 13.15-13.15 0-7.27-5.88-13.15-13.15-13.15m-116.31-42.8c-9.58 0-17.34 7.76-17.34 17.34s7.76 17.35 17.34 17.35 17.35-7.77 17.35-17.35-7.77-17.34-17.35-17.34M302.91 1558c-3.94 0-7.13 3.2-7.13 7.14s3.19 7.13 7.13 7.13 7.14-3.19 7.14-7.13-3.2-7.14-7.14-7.14M91.64 1732.1c-3.94 0-7.14 3.19-7.14 7.13s3.2 7.14 7.14 7.14 7.13-3.2 7.13-7.14-3.19-7.13-7.13-7.13m105.37-146.6c-3.94 0-7.14 3.2-7.14 7.14s3.2 7.13 7.14 7.13 7.13-3.19 7.13-7.13-3.19-7.14-7.13-7.14m256.41 190.3c-3.94 0-7.13 3.19-7.13 7.13s3.19 7.14 7.13 7.14 7.14-3.2 7.14-7.14-3.2-7.13-7.14-7.13m-71.11-107c-6.07 0-10.99 4.93-10.99 10.99 0 6.07 4.92 10.99 10.99 10.99s10.99-4.92 10.99-10.99c0-6.06-4.92-10.99-10.99-10.99M1149 1888.5c-7.27 0-13.15 5.89-13.15 13.15s5.88 13.15 13.15 13.15c7.26 0 13.15-5.89 13.15-13.15s-5.89-13.15-13.15-13.15m-227.9-71.9c-9.58 0-17.35 7.77-17.35 17.35s7.77 17.34 17.35 17.34 17.35-7.76 17.35-17.34-7.77-17.35-17.35-17.35m259.3 304.2c-9.58 0-17.35 7.77-17.35 17.35s7.77 17.35 17.35 17.35 17.35-7.77 17.35-17.35-7.77-17.35-17.35-17.35m-104.6-118.3c-6.07 0-10.99 4.92-10.99 10.99s4.92 11 10.99 11 10.99-4.93 10.99-11-4.92-10.99-10.99-10.99m164.4-231.8c-3.93 0-7.13 3.2-7.13 7.14s3.2 7.13 7.13 7.13c3.95 0 7.14-3.19 7.14-7.13s-3.19-7.14-7.14-7.14m35.6 224.5c-6.05 0-10.96 4.91-10.96 10.96s4.91 10.96 10.96 10.96 10.96-4.91 10.96-10.96-4.91-10.96-10.96-10.96m21.1 115c-3.85 0-6.97 3.13-6.97 6.98s3.12 6.97 6.97 6.97 6.98-3.12 6.98-6.97-3.13-6.98-6.98-6.98m-183.2-37.8c-3.94 0-7.14 3.19-7.14 7.13s3.2 7.14 7.14 7.14c3.93 0 7.13-3.2 7.13-7.14s-3.2-7.13-7.13-7.13m73.1-67.6c-6.07 0-10.99 4.92-10.99 10.99s4.92 10.99 10.99 10.99 10.99-4.92 10.99-10.99-4.92-10.99-10.99-10.99m-157.9-59.9c-3.94 0-7.13 3.19-7.13 7.13s3.19 7.13 7.13 7.13 7.13-3.19 7.13-7.13-3.19-7.13-7.13-7.13m193.9-39.5c-3.94 0-7.13 3.19-7.13 7.13s3.19 7.14 7.13 7.14 7.14-3.2 7.14-7.14-3.2-7.13-7.14-7.13m167.9 83.2c-3.94 0-7.14 3.19-7.14 7.13s3.2 7.14 7.14 7.14 7.13-3.2 7.13-7.14-3.19-7.13-7.13-7.13m-71.1-107c-6.06 0-10.99 4.92-10.99 10.99s4.93 10.99 10.99 10.99c6.07 0 10.99-4.92 10.99-10.99s-4.92-10.99-10.99-10.99m77.8 232.3c-6.07 0-10.99 4.92-10.99 10.99s4.92 10.99 10.99 10.99 10.99-4.92 10.99-10.99-4.92-10.99-10.99-10.99m-306.9 54.2c-6.07 0-10.99 4.92-10.99 10.99s4.92 10.99 10.99 10.99 10.99-4.92 10.99-10.99-4.92-10.99-10.99-10.99m171.3 44.8c-6.07 0-10.99 4.92-10.99 10.99s4.92 10.99 10.99 10.99 10.99-4.92 10.99-10.99-4.92-10.99-10.99-10.99m-196-448.4c7.26 0 13.15-5.89 13.15-13.15s-5.89-13.15-13.15-13.15c-7.27 0-13.15 5.89-13.15 13.15s5.88 13.15 13.15 13.15m-150.14 366.7c9.58 0 17.35-7.77 17.35-17.35s-7.77-17.35-17.35-17.35-17.34 7.77-17.34 17.35 7.76 17.35 17.34 17.35m104.54 118.2c6.07 0 10.99-4.92 10.99-10.99s-4.92-10.99-10.99-10.99-10.99 4.92-10.99 10.99 4.92 10.99 10.99 10.99m9.3-377.7c3.94 0 7.14-3.2 7.14-7.14s-3.2-7.13-7.14-7.13-7.13 3.19-7.13 7.13 3.19 7.14 7.13 7.14m-209.27 385c6.05 0 10.96-4.91 10.96-10.96s-4.91-10.96-10.96-10.96-10.96 4.91-10.96 10.96 4.91 10.96 10.96 10.96m-21.12-114.9c3.85 0 6.97-3.12 6.97-6.97s-3.12-6.97-6.97-6.97-6.97 3.12-6.97 6.97 3.12 6.97 6.97 6.97m183.22 37.8c3.94 0 7.13-3.19 7.13-7.13s-3.19-7.14-7.13-7.14-7.14 3.2-7.14 7.14 3.2 7.13 7.14 7.13m-73.06 67.6c6.07 0 10.99-4.93 10.99-10.99 0-6.07-4.92-10.99-10.99-10.99s-10.99 4.92-10.99 10.99c0 6.06 4.92 10.99 10.99 10.99m147.33-586c3.94 0 7.13-3.19 7.13-7.13s-3.19-7.14-7.13-7.14-7.14 3.2-7.14 7.14 3.2 7.13 7.14 7.13m-465.82 627.2c3.94 0 7.13-3.19 7.13-7.13s-3.19-7.14-7.13-7.14-7.14 3.2-7.14 7.14 3.2 7.13 7.14 7.13m320.27-648.3c6.07 0 10.99-4.92 10.99-10.99s-4.92-10.99-10.99-10.99-10.99 4.92-10.99 10.99 4.92 10.99 10.99 10.99m-265.53 502.1c6.07 0 10.99-4.92 10.99-10.99s-4.92-10.99-10.99-10.99-10.99 4.92-10.99 10.99 4.92 10.99 10.99 10.99m359.98-58.4c6.07 0 10.99-4.92 10.99-10.98 0-6.07-4.92-11-10.99-11s-10.99 4.93-10.99 11c0 6.06 4.92 10.98 10.99 10.98M834.19 2039c6.07 0 10.99-4.92 10.99-10.99s-4.92-10.99-10.99-10.99-10.99 4.92-10.99 10.99 4.92 10.99 10.99 10.99m548.11-369.4c7.26 0 13.15-5.88 13.15-13.15 0-7.26-5.89-13.15-13.15-13.15s-13.15 5.89-13.15 13.15c0 7.27 5.89 13.15 13.15 13.15m116.3 42.7c9.58 0 17.35-7.76 17.35-17.34s-7.77-17.35-17.35-17.35-17.35 7.77-17.35 17.35 7.77 17.34 17.35 17.34m-121.1 113.2c3.94 0 7.13-3.2 7.13-7.14s-3.19-7.13-7.13-7.13-7.13 3.19-7.13 7.13 3.19 7.14 7.13 7.14m211.2-174.1c3.94 0 7.14-3.19 7.14-7.13s-3.2-7.13-7.14-7.13c-3.93 0-7.13 3.19-7.13 7.13s3.2 7.13 7.13 7.13M1483.4 1798c3.94 0 7.14-3.2 7.14-7.14s-3.2-7.13-7.14-7.13c-3.93 0-7.13 3.19-7.13 7.13s3.2 7.14 7.13 7.14m-272.3-90.8c6.07 0 10.99-4.92 10.99-10.99s-4.92-10.99-10.99-10.99-10.99 4.92-10.99 10.99 4.92 10.99 10.99 10.99m1367.1-21.1c-7.25.4-12.81 6.6-12.41 13.86.4 7.25 6.6 12.8 13.86 12.4 7.25-.4 12.8-6.6 12.4-13.85s-6.6-12.81-13.85-12.41m-31.2-100.5c-9.57.52-16.9 8.71-16.37 18.27.52 9.57 8.71 16.9 18.27 16.37 9.57-.53 16.9-8.71 16.37-18.27-.53-9.57-8.71-16.9-18.27-16.37m232 224c-9.56.53-16.89 8.71-16.36 18.28.52 9.56 8.7 16.89 18.27 16.36 9.57-.52 16.9-8.7 16.37-18.27s-8.71-16.9-18.28-16.37m-214.6-1.6c-6.06.33-10.7 5.52-10.37 11.58s5.52 10.7 11.58 10.37c6.06-.34 10.7-5.52 10.37-11.58-.34-6.06-5.52-10.7-11.58-10.37m151.3-240.4c-3.93.22-6.95 3.58-6.73 7.52.22 3.93 3.58 6.95 7.51 6.73a7.144 7.144 0 0 0 6.74-7.52c-.22-3.93-3.59-6.95-7.52-6.73m153.2 144.2c-6.04.33-10.67 5.5-10.34 11.55.33 6.04 5.5 10.67 11.55 10.34 6.04-.34 10.67-5.51 10.34-11.55-.34-6.04-5.51-10.67-11.55-10.34m-77.9 191.6c-3.85.21-6.8 3.5-6.58 7.35.21 3.84 3.5 6.79 7.34 6.57 3.85-.21 6.79-3.5 6.58-7.34a6.97 6.97 0 0 0-7.34-6.58m-185-27.7a7.135 7.135 0 0 0-6.73 7.52 7.127 7.127 0 0 0 7.51 6.73c3.94-.22 6.95-3.58 6.73-7.51-.21-3.94-3.58-6.95-7.51-6.74m69.3-71.5c-6.06.34-10.71 5.52-10.37 11.58.33 6.06 5.51 10.7 11.57 10.37 6.07-.33 10.71-5.52 10.37-11.58-.33-6.06-5.51-10.7-11.57-10.37m-160.9-51.1a7.12 7.12 0 0 0-6.73 7.51 7.12 7.12 0 0 0 7.51 6.73 7.12 7.12 0 0 0 6.73-7.51 7.12 7.12 0 0 0-7.51-6.73m191.4-50.1c-3.93.22-6.95 3.58-6.73 7.51a7.13 7.13 0 0 0 7.52 6.73c3.93-.21 6.94-3.58 6.73-7.51a7.13 7.13 0 0 0-7.52-6.73m77-64.5a7.13 7.13 0 0 0-6.73 7.52 7.127 7.127 0 0 0 7.51 6.73 7.13 7.13 0 0 0 6.73-7.52c-.21-3.93-3.58-6.94-7.51-6.73m182.5-26.7c-6.06.33-10.7 5.51-10.37 11.57s5.52 10.71 11.58 10.37c6.06-.33 10.7-5.51 10.37-11.58-.34-6.06-5.52-10.7-11.58-10.36m-73.8 289.8c-6.06.33-10.7 5.52-10.37 11.58.34 6.06 5.52 10.7 11.58 10.37 6.06-.34 10.7-5.52 10.37-11.58-.34-6.06-5.52-10.7-11.58-10.37m-303.3 71c-6.06.33-10.7 5.52-10.37 11.58s5.52 10.7 11.58 10.37c6.06-.34 10.7-5.52 10.37-11.58-.34-6.06-5.52-10.7-11.58-10.37m173.5 35.3c-6.06.34-10.7 5.52-10.37 11.58.34 6.06 5.52 10.71 11.58 10.37 6.06-.33 10.7-5.52 10.37-11.58s-5.52-10.7-11.58-10.37m-306.1 167.6c7.25-.39 12.8-6.6 12.4-13.85s-6.6-12.81-13.85-12.41-12.81 6.61-12.41 13.86 6.61 12.8 13.86 12.4m84.5 20.2c9.57-.53 16.89-8.71 16.37-18.28-.53-9.56-8.71-16.89-18.28-16.36-9.56.52-16.89 8.71-16.37 18.27.53 9.57 8.71 16.9 18.28 16.37m-128.6-250.4c9.56-.52 16.89-8.71 16.36-18.27-.52-9.57-8.7-16.9-18.27-16.37s-16.9 8.71-16.37 18.28c.53 9.56 8.71 16.89 18.28 16.36m110.9 112.3c6.06-.33 10.7-5.51 10.37-11.57-.34-6.06-5.52-10.71-11.58-10.37-6.06.33-10.7 5.51-10.37 11.57s5.52 10.71 11.58 10.37M2371 2298.1c3.93-.22 6.95-3.58 6.73-7.51a7.144 7.144 0 0 0-7.52-6.74c-3.93.22-6.94 3.59-6.73 7.52.22 3.93 3.58 6.95 7.52 6.73m-47.9-222.2c6.05-.33 10.68-5.5 10.34-11.54-.33-6.04-5.5-10.67-11.54-10.34s-10.67 5.5-10.34 11.54c.33 6.05 5.5 10.68 11.54 10.34m-27.4-113.6c3.85-.21 6.79-3.5 6.58-7.34a6.97 6.97 0 0 0-7.34-6.58c-3.85.21-6.79 3.5-6.58 7.34.21 3.85 3.5 6.79 7.34 6.58m185 27.7c3.93-.22 6.95-3.58 6.73-7.52a7.127 7.127 0 0 0-7.51-6.73 7.144 7.144 0 0 0-6.74 7.52c.22 3.93 3.59 6.95 7.52 6.73m-69.2 71.5c6.06-.33 10.71-5.52 10.37-11.58-.33-6.06-5.52-10.7-11.58-10.37-6.06.34-10.7 5.52-10.37 11.58.34 6.06 5.52 10.7 11.58 10.37m160.9 51.1c3.93-.22 6.95-3.59 6.73-7.52s-3.58-6.95-7.51-6.73c-3.94.21-6.95 3.58-6.74 7.51a7.15 7.15 0 0 0 7.52 6.74m-191.4 50c3.93-.22 6.94-3.59 6.73-7.52-.22-3.93-3.58-6.95-7.52-6.73a7.127 7.127 0 0 0-6.73 7.51 7.144 7.144 0 0 0 7.52 6.74m-172.2-73.8c3.94-.21 6.95-3.58 6.74-7.51a7.135 7.135 0 0 0-7.52-6.73 7.127 7.127 0 0 0-6.73 7.51 7.12 7.12 0 0 0 7.51 6.73m44.1 94.3c6.06-.34 10.7-5.52 10.37-11.58s-5.52-10.7-11.58-10.37-10.7 5.52-10.37 11.58c.34 6.06 5.52 10.7 11.58 10.37m-57.7-219c6.06-.33 10.7-5.51 10.37-11.57-.34-6.06-5.52-10.71-11.58-10.37-6.06.33-10.7 5.51-10.37 11.57s5.52 10.71 11.58 10.37m303.4-71c6.06-.33 10.7-5.51 10.37-11.57-.34-6.06-5.52-10.71-11.58-10.37-6.06.33-10.7 5.51-10.37 11.58.33 6.06 5.52 10.7 11.58 10.36m-117.9-59.2c6.06-.33 10.7-5.52 10.37-11.58-.34-6.06-5.52-10.7-11.58-10.36-6.06.33-10.7 5.51-10.37 11.57.34 6.06 5.52 10.71 11.58 10.37m385.8 308.5c7.25-.4 12.8-6.6 12.4-13.85s-6.6-12.81-13.85-12.41-12.81 6.6-12.41 13.85c.4 7.26 6.61 12.81 13.86 12.41m118.5 36.2c9.57-.53 16.89-8.71 16.37-18.27-.53-9.57-8.71-16.9-18.28-16.37-9.56.52-16.89 8.71-16.36 18.27.52 9.57 8.7 16.9 18.27 16.37m-114.8 119.7c3.93-.21 6.94-3.58 6.73-7.51a7.13 7.13 0 0 0-7.52-6.73c-3.93.21-6.94 3.58-6.73 7.51a7.13 7.13 0 0 0 7.52 6.73m201.4-185.5c3.93-.22 6.95-3.58 6.73-7.52-.22-3.93-3.58-6.94-7.52-6.73-3.93.22-6.94 3.58-6.73 7.52.22 3.93 3.59 6.95 7.52 6.73m-97.1 152.2a7.127 7.127 0 0 0 6.73-7.51 7.13 7.13 0 0 0-7.52-6.73c-3.93.21-6.94 3.58-6.73 7.51a7.13 7.13 0 0 0 7.52 6.73M2608 2089.1a7.15 7.15 0 0 0 6.74-7.52c-.22-3.93-3.59-6.95-7.52-6.73s-6.95 3.58-6.73 7.52c.21 3.93 3.58 6.94 7.51 6.73m76.8 102.9c6.06-.34 10.7-5.52 10.37-11.58s-5.52-10.7-11.58-10.37c-6.06.34-10.7 5.52-10.37 11.58.34 6.06 5.52 10.7 11.58 10.37m-777.5-177.2c7.25-.4 12.81-6.6 12.41-13.86-.4-7.25-6.6-12.8-13.86-12.4-7.25.4-12.8 6.6-12.4 13.85s6.6 12.81 13.85 12.41m231.5 59.3c9.57-.53 16.9-8.71 16.37-18.27-.53-9.57-8.71-16.9-18.27-16.37-9.57.53-16.9 8.71-16.37 18.27.53 9.57 8.71 16.9 18.27 16.37m-275.7-289.5c9.57-.53 16.9-8.71 16.37-18.28s-8.71-16.89-18.28-16.37c-9.56.53-16.89 8.71-16.36 18.28.52 9.56 8.7 16.89 18.27 16.37M1974 1897c6.06-.34 10.71-5.52 10.37-11.58-.33-6.06-5.52-10.7-11.58-10.37s-10.7 5.52-10.36 11.58c.33 6.06 5.51 10.7 11.57 10.37m-151.3 240.4a7.12 7.12 0 0 0 6.73-7.51 7.12 7.12 0 0 0-7.51-6.73 7.12 7.12 0 0 0-6.73 7.51 7.12 7.12 0 0 0 7.51 6.73m-47.9-222.2c6.04-.34 10.67-5.5 10.34-11.55-.33-6.04-5.5-10.67-11.55-10.34-6.04.33-10.67 5.5-10.34 11.55.34 6.04 5.5 10.67 11.55 10.34m-27.4-113.6c3.84-.22 6.79-3.5 6.58-7.35-.22-3.84-3.5-6.79-7.35-6.58-3.84.21-6.79 3.5-6.58 7.35.21 3.84 3.5 6.79 7.35 6.58m185 27.6a7.14 7.14 0 0 0 6.74-7.51 7.15 7.15 0 0 0-7.52-6.74c-3.93.22-6.95 3.59-6.73 7.52s3.58 6.95 7.51 6.73m-69.3 71.6c6.06-.33 10.7-5.52 10.37-11.58-.34-6.06-5.52-10.7-11.58-10.37-6.06.34-10.71 5.52-10.37 11.58.33 6.06 5.52 10.71 11.58 10.37m160.9 51.1a7.144 7.144 0 0 0 6.74-7.52c-.22-3.93-3.59-6.94-7.52-6.73-3.93.22-6.95 3.58-6.73 7.52.21 3.93 3.58 6.94 7.51 6.73m-191.4 50.1a7.13 7.13 0 0 0 6.73-7.52 7.127 7.127 0 0 0-7.51-6.73 7.13 7.13 0 0 0-6.73 7.52c.21 3.93 3.58 6.94 7.51 6.73m-172.2-73.9c3.93-.22 6.95-3.59 6.73-7.52s-3.58-6.95-7.52-6.73a7.14 7.14 0 0 0-6.73 7.51 7.144 7.144 0 0 0 7.52 6.74m76.9 102.9c6.06-.34 10.7-5.52 10.37-11.58-.34-6.06-5.52-10.7-11.58-10.37s-10.71 5.52-10.37 11.58c.33 6.06 5.52 10.7 11.58 10.37m-90.5-227.6c6.06-.34 10.7-5.52 10.37-11.58s-5.52-10.71-11.58-10.37c-6.06.33-10.7 5.52-10.37 11.58.34 6.06 5.52 10.7 11.58 10.37m303.4-71c6.06-.34 10.71-5.52 10.37-11.58-.33-6.06-5.51-10.7-11.57-10.37-6.07.33-10.71 5.52-10.37 11.58.33 6.06 5.51 10.7 11.57 10.37m-173.5-35.3c6.06-.33 10.7-5.52 10.37-11.58-.34-6.06-5.52-10.7-11.58-10.36-6.06.33-10.7 5.51-10.37 11.57.34 6.06 5.52 10.7 11.58 10.37m220.4 436.9c-7.25.4-12.81 6.6-12.41 13.85s6.6 12.81 13.86 12.41c7.25-.4 12.8-6.6 12.4-13.85-.4-7.26-6.6-12.81-13.85-12.41m-73.4-44.4c-9.57.53-16.9 8.71-16.37 18.27.53 9.57 8.71 16.9 18.27 16.37 9.57-.52 16.9-8.71 16.37-18.27-.52-9.57-8.71-16.9-18.27-16.37m203.2-329.9c-9.57.53-16.9 8.71-16.37 18.28s8.71 16.89 18.27 16.37c9.57-.53 16.9-8.71 16.37-18.28s-8.71-16.89-18.27-16.37M2016 1647.3c-6.06.34-10.7 5.52-10.37 11.58.34 6.06 5.52 10.7 11.58 10.37s10.71-5.52 10.37-11.58c-.33-6.06-5.52-10.7-11.58-10.37m11.5 377.7a7.12 7.12 0 0 0-6.73 7.51c.21 3.94 3.58 6.95 7.51 6.74a7.135 7.135 0 0 0 6.73-7.52 7.127 7.127 0 0 0-7.51-6.73m187.8-395.9c-6.04.34-10.67 5.5-10.34 11.55.33 6.04 5.5 10.67 11.54 10.34 6.05-.34 10.68-5.5 10.34-11.55-.33-6.04-5.5-10.67-11.54-10.34m27.4 113.6c-3.84.21-6.79 3.5-6.58 7.35.21 3.84 3.5 6.79 7.35 6.58 3.84-.22 6.79-3.5 6.58-7.35-.22-3.84-3.5-6.79-7.35-6.58m-185-27.7a7.127 7.127 0 0 0-6.73 7.51 7.13 7.13 0 0 0 7.52 6.73c3.93-.21 6.94-3.58 6.73-7.51a7.13 7.13 0 0 0-7.52-6.73m69.2-71.5c-6.06.33-10.7 5.51-10.37 11.58.33 6.06 5.52 10.7 11.58 10.36 6.06-.33 10.7-5.51 10.37-11.57-.34-6.06-5.52-10.71-11.58-10.37m-160.9-51.1c-3.93.22-6.95 3.58-6.73 7.52.22 3.93 3.58 6.94 7.52 6.73 3.93-.22 6.95-3.58 6.73-7.52-.22-3.93-3.58-6.95-7.52-6.73m46 644.2c-3.93.22-6.95 3.58-6.73 7.52.22 3.93 3.58 6.95 7.52 6.73 3.93-.22 6.95-3.58 6.73-7.52-.22-3.93-3.58-6.94-7.52-6.73m430.6-651.7a7.144 7.144 0 0 0-6.74 7.52c.22 3.93 3.59 6.95 7.52 6.73s6.95-3.58 6.73-7.52c-.21-3.93-3.58-6.94-7.51-6.73m-284.1 664.8c-6.06.34-10.7 5.52-10.37 11.58.34 6.06 5.52 10.71 11.58 10.37 6.06-.33 10.71-5.52 10.37-11.58-.33-6.06-5.52-10.7-11.58-10.37m237.5-515.9c-6.06.34-10.71 5.52-10.37 11.58.33 6.06 5.51 10.7 11.57 10.37s10.71-5.52 10.37-11.58c-.33-6.06-5.51-10.7-11.57-10.37m-356.2 78.1c-6.06.34-10.7 5.52-10.37 11.58.34 6.06 5.52 10.7 11.58 10.37s10.71-5.52 10.37-11.58c-.33-6.06-5.52-10.7-11.58-10.37m173.5 35.3c-6.06.33-10.71 5.51-10.37 11.57.33 6.07 5.52 10.71 11.58 10.37 6.06-.33 10.7-5.51 10.37-11.57-.34-6.06-5.52-10.71-11.58-10.37m-530.7 243c-3.93.22-6.94 3.58-6.73 7.52.22 3.93 3.58 6.95 7.52 6.73 3.93-.22 6.95-3.58 6.73-7.52-.22-3.93-3.58-6.94-7.52-6.73m-104.2 33.4c-3.93.22-6.94 3.58-6.73 7.52.22 3.93 3.58 6.95 7.52 6.73 3.93-.22 6.95-3.58 6.73-7.52-.22-3.93-3.58-6.94-7.52-6.73m352-507.7a7.13 7.13 0 0 0-6.73 7.52c.21 3.93 3.58 6.94 7.51 6.73a7.13 7.13 0 0 0 6.73-7.52 7.127 7.127 0 0 0-7.51-6.73m-490.8 199.7c3.93-.21 6.94-3.58 6.73-7.51a7.144 7.144 0 0 0-7.52-6.74c-3.93.22-6.95 3.59-6.73 7.52s3.58 6.95 7.52 6.73m76.8 102.9c6.07-.33 10.71-5.51 10.37-11.57-.33-6.06-5.51-10.71-11.57-10.37-6.07.33-10.71 5.51-10.37 11.57.33 6.07 5.51 10.71 11.57 10.37m-50.9 215.2c-7.25.4-12.8 6.6-12.4 13.86.39 7.25 6.6 12.8 13.85 12.4s12.81-6.6 12.41-13.85-6.61-12.81-13.86-12.41m-3.7-156c-3.93.22-6.95 3.58-6.73 7.51a7.144 7.144 0 0 0 7.52 6.74c3.93-.22 6.94-3.59 6.73-7.52-.22-3.93-3.58-6.95-7.52-6.73m85.3 106.4c-6.06.33-10.71 5.51-10.37 11.57.33 6.06 5.52 10.71 11.58 10.37 6.06-.33 10.7-5.52 10.36-11.58-.33-6.06-5.51-10.7-11.57-10.36M3009 1766.7c-3.94 0-7.13 3.2-7.13 7.14s3.19 7.13 7.13 7.13 7.14-3.19 7.14-7.13-3.2-7.14-7.14-7.14m35.6 224.5c-6.06 0-10.96 4.9-10.96 10.96 0 6.05 4.9 10.96 10.96 10.96 6.05 0 10.95-4.91 10.95-10.96 0-6.06-4.9-10.96-10.95-10.96m21.1 114.9c-3.85 0-6.97 3.12-6.97 6.98 0 3.85 3.12 6.97 6.97 6.97s6.97-3.12 6.97-6.97c0-3.86-3.12-6.98-6.97-6.98m-110.1-105.3c-6.07 0-10.99 4.92-10.99 10.99s4.92 10.99 10.99 10.99 10.99-4.92 10.99-10.99-4.92-10.99-10.99-10.99m36-99.4c-3.94 0-7.13 3.19-7.13 7.13s3.19 7.14 7.13 7.14 7.13-3.2 7.13-7.14-3.19-7.13-7.13-7.13m167.9 83.2c-3.94 0-7.13 3.19-7.13 7.13s3.19 7.13 7.13 7.13 7.14-3.19 7.14-7.13-3.2-7.13-7.14-7.13m-71.1-107c-6.07 0-10.99 4.92-10.99 10.99s4.92 10.99 10.99 10.99 10.99-4.92 10.99-10.99-4.92-10.99-10.99-10.99m77.8 232.3c-6.07 0-10.99 4.92-10.99 10.99s4.92 10.99 10.99 10.99 10.99-4.92 10.99-10.99-4.92-10.99-10.99-10.99m-135.6 99c-6.06 0-10.99 4.92-10.99 10.99s4.93 10.99 10.99 10.99c6.07 0 10.99-4.92 10.99-10.99s-4.92-10.99-10.99-10.99m120.5-543.3c7.27 0 13.15-5.89 13.15-13.15s-5.88-13.15-13.15-13.15c-7.26 0-13.14 5.89-13.14 13.15s5.88 13.15 13.14 13.15m116.3 42.7c9.58 0 17.35-7.76 17.35-17.35 0-9.58-7.77-17.34-17.35-17.34s-17.34 7.76-17.34 17.34c0 9.59 7.76 17.35 17.34 17.35m-121.1 113.2c3.93 0 7.13-3.19 7.13-7.13s-3.2-7.13-7.13-7.13c-3.94 0-7.14 3.19-7.14 7.13s3.2 7.13 7.14 7.13m211.2-174.1c3.94 0 7.13-3.19 7.13-7.13s-3.19-7.14-7.13-7.14-7.13 3.2-7.13 7.14 3.19 7.13 7.13 7.13M3252.2 1794c3.94 0 7.13-3.2 7.13-7.14s-3.19-7.13-7.13-7.13-7.13 3.19-7.13 7.13 3.19 7.14 7.13 7.14m-185.3-83.4c6.07 0 10.99-4.92 10.99-10.99s-4.92-10.99-10.99-10.99-10.99 4.92-10.99 10.99 4.92 10.99 10.99 10.99m362.3 213.5c3.93-.21 6.94-3.58 6.73-7.51a7.135 7.135 0 0 0-7.52-6.73 7.127 7.127 0 0 0-6.73 7.51 7.13 7.13 0 0 0 7.52 6.73m-13.6-124.8c6.06-.33 10.7-5.51 10.37-11.57-.34-6.06-5.52-10.71-11.58-10.37-6.06.33-10.7 5.51-10.37 11.57.33 6.07 5.52 10.71 11.58 10.37m-79 406.6c-9.57.53-16.9 8.71-16.37 18.28s8.71 16.89 18.28 16.37c9.56-.53 16.89-8.71 16.36-18.28-.52-9.56-8.71-16.89-18.27-16.37m114.8-119.7c-3.93.22-6.95 3.58-6.73 7.52a7.14 7.14 0 0 0 7.51 6.73 7.144 7.144 0 0 0 6.74-7.52c-.22-3.93-3.59-6.95-7.52-6.73M3250 2271.7a7.12 7.12 0 0 0-6.73 7.51 7.12 7.12 0 0 0 7.51 6.73 7.12 7.12 0 0 0 6.73-7.51 7.12 7.12 0 0 0-7.51-6.73m97.2-152.1c-3.93.22-6.95 3.58-6.73 7.52.22 3.93 3.58 6.95 7.51 6.73a7.144 7.144 0 0 0 6.74-7.52c-.22-3.93-3.59-6.95-7.52-6.73m-138.8-308a7.13 7.13 0 0 0 6.73-7.52c-.21-3.93-3.58-6.94-7.51-6.73a7.135 7.135 0 0 0-6.73 7.52 7.127 7.127 0 0 0 7.51 6.73m76.8 102.9c6.06-.33 10.7-5.51 10.37-11.58-.33-6.06-5.52-10.7-11.58-10.36-6.06.33-10.7 5.51-10.37 11.57.34 6.06 5.52 10.71 11.58 10.37m-50.9 215.2c-7.25.4-12.81 6.6-12.41 13.85s6.6 12.81 13.86 12.41c7.25-.4 12.8-6.6 12.4-13.85s-6.6-12.81-13.85-12.41m-3.7-156a7.12 7.12 0 0 0-6.73 7.51 7.12 7.12 0 0 0 7.51 6.73 7.12 7.12 0 0 0 6.73-7.51 7.12 7.12 0 0 0-7.51-6.73m85.3 106.4c-6.06.34-10.7 5.52-10.37 11.58.34 6.06 5.52 10.7 11.58 10.37s10.71-5.52 10.37-11.58c-.33-6.06-5.52-10.7-11.58-10.37M1877.7 1629a7.127 7.127 0 0 0 6.73-7.51 7.13 7.13 0 0 0-7.52-6.73c-3.93.21-6.94 3.58-6.73 7.51a7.13 7.13 0 0 0 7.52 6.73m-1126.71-24.6c-7.27 0-13.15 5.89-13.15 13.15s5.88 13.15 13.15 13.15c7.26 0 13.15-5.89 13.15-13.15s-5.89-13.15-13.15-13.15m-116.31-42.8c-9.58 0-17.35 7.76-17.35 17.35 0 9.58 7.77 17.34 17.35 17.34s17.34-7.76 17.34-17.34c0-9.59-7.76-17.35-17.34-17.35m-90.11 61c-3.94 0-7.13 3.19-7.13 7.13s3.19 7.14 7.13 7.14 7.13-3.2 7.13-7.14-3.19-7.13-7.13-7.13m290.67-63.3c-6.06 0-10.99 4.92-10.99 10.99s4.93 10.99 10.99 10.99c6.07 0 10.99-4.92 10.99-10.99s-4.92-10.99-10.99-10.99m889.06 71.9c-3.94 0-7.13 3.2-7.13 7.14s3.19 7.13 7.13 7.13 7.13-3.19 7.13-7.13-3.19-7.14-7.13-7.14m-1089.99 51.1c-3.94 0-7.14 3.2-7.14 7.14s3.2 7.13 7.14 7.13 7.13-3.19 7.13-7.13-3.19-7.14-7.13-7.14m686.49-173.4c3.93 0 7.13-3.19 7.13-7.13s-3.2-7.14-7.13-7.14c-3.95 0-7.14 3.2-7.14 7.14s3.19 7.13 7.14 7.13m105.9-27.6c3.94 0 7.13-3.19 7.13-7.13s-3.19-7.13-7.13-7.13-7.13 3.19-7.13 7.13 3.19 7.13 7.13 7.13m-285.3 317.6c-6.07 0-10.99 4.92-10.99 10.99s4.92 10.99 10.99 10.99 10.99-4.92 10.99-10.99-4.92-10.99-10.99-10.99m62.8-212.1c7.26 0 13.15-5.89 13.15-13.16 0-7.26-5.89-13.14-13.15-13.14-7.27 0-13.15 5.88-13.15 13.14 0 7.27 5.88 13.16 13.15 13.16m116.3 42.8c9.58 0 17.34-7.77 17.34-17.35s-7.76-17.35-17.34-17.35-17.35 7.77-17.35 17.35 7.77 17.35 17.35 17.35m-121.2 113.2c3.94 0 7.13-3.2 7.13-7.14s-3.19-7.13-7.13-7.13-7.14 3.19-7.14 7.13 3.2 7.14 7.14 7.14m211.3-174.2c3.94 0 7.14-3.2 7.14-7.14s-3.2-7.13-7.14-7.13-7.13 3.19-7.13 7.13 3.19 7.14 7.13 7.14m-436.66-40.9c3.94 0 7.13-3.19 7.13-7.13s-3.19-7.13-7.13-7.13-7.13 3.19-7.13 7.13 3.19 7.13 7.13 7.13m145.96 104.2c6.07 0 10.99-4.92 10.99-10.99s-4.92-10.99-10.99-10.99-10.99 4.92-10.99 10.99 4.92 10.99 10.99 10.99m362.3 213.5c3.93-.22 6.94-3.58 6.73-7.52-.22-3.93-3.58-6.95-7.52-6.73-3.93.22-6.95 3.58-6.73 7.52.22 3.93 3.58 6.94 7.52 6.73m-13.5-124.8c6.06-.34 10.7-5.52 10.37-11.58s-5.52-10.7-11.58-10.37c-6.06.34-10.7 5.52-10.37 11.58.34 6.06 5.52 10.7 11.58 10.37m-428.9-235.8a7.135 7.135 0 0 0 6.73-7.52 7.127 7.127 0 0 0-7.51-6.73c-3.94.22-6.95 3.58-6.73 7.51.21 3.94 3.58 6.95 7.51 6.74m298.5 351c6.06-.34 10.71-5.52 10.37-11.58-.33-6.06-5.52-10.71-11.58-10.37-6.06.33-10.7 5.52-10.37 11.58.34 6.06 5.52 10.7 11.58 10.37m436.6-281.7c9.56.53 16.89 8.71 16.36 18.28-.52 9.57-8.71 16.89-18.27 16.37-9.57-.53-16.9-8.71-16.37-18.28s8.71-16.89 18.28-16.37M1577.7 232.06c-6.06-.33-10.71-5.52-10.37-11.58.33-6.06 5.51-10.7 11.57-10.37 6.07.34 10.71 5.52 10.37 11.58-.33 6.06-5.51 10.7-11.57 10.37m173.5-35.31c-6.06-.33-10.7-5.51-10.37-11.57s5.52-10.71 11.58-10.37c6.06.33 10.7 5.51 10.37 11.57-.34 6.07-5.52 10.71-11.58 10.37m-306-167.65c7.26.4 12.81 6.61 12.41 13.86s-6.6 12.8-13.85 12.4-12.81-6.6-12.41-13.85 6.6-12.81 13.85-12.41m66.7 117.87c6.06.34 10.7 5.52 10.37 11.58-.34 6.06-5.52 10.71-11.58 10.37-6.06-.33-10.71-5.52-10.37-11.58.33-6.06 5.52-10.7 11.58-10.37m-199.3-18.26c6.04.34 10.67 5.51 10.34 11.55s-5.5 10.67-11.54 10.34c-6.05-.33-10.68-5.5-10.34-11.55.33-6.04 5.5-10.67 11.54-10.34m157.6 85.97c3.93.22 6.95 3.58 6.73 7.51a7.144 7.144 0 0 1-7.52 6.74c-3.93-.22-6.94-3.59-6.73-7.52.22-3.93 3.58-6.95 7.52-6.73m-69.2-71.52c6.06.33 10.7 5.52 10.37 11.58s-5.52 10.7-11.58 10.37c-6.06-.34-10.7-5.52-10.37-11.58.34-6.06 5.52-10.7 11.58-10.37m160.9-51.15c3.93.22 6.94 3.58 6.73 7.52-.22 3.93-3.58 6.95-7.52 6.73-3.93-.22-6.95-3.58-6.73-7.52.22-3.93 3.58-6.94 7.52-6.73m-191.4-50.03c3.94.22 6.95 3.59 6.73 7.52a7.127 7.127 0 0 1-7.51 6.73 7.13 7.13 0 0 1-6.73-7.52 7.14 7.14 0 0 1 7.51-6.73M1756 62.26c7.25.4 12.81 6.6 12.41 13.85s-6.6 12.81-13.85 12.41-12.81-6.6-12.41-13.86c.4-7.25 6.6-12.8 13.85-12.4m1195.4-20.68c9.57.53 16.9 8.71 16.37 18.27-.53 9.57-8.71 16.9-18.28 16.37-9.56-.53-16.89-8.71-16.36-18.27.52-9.57 8.71-16.9 18.27-16.37m-413.3 16.45c3.93.21 6.94 3.58 6.73 7.51a7.13 7.13 0 0 1-7.52 6.73 7.127 7.127 0 0 1-6.73-7.51 7.13 7.13 0 0 1 7.52-6.73M711.98 42.4a7.13 7.13 0 0 1 6.73 7.52 7.127 7.127 0 0 1-7.51 6.73 7.13 7.13 0 0 1-6.73-7.52c.21-3.93 3.58-6.94 7.51-6.73M2034.1 213.43c-6.05 0-10.96-4.91-10.96-10.96s4.91-10.96 10.96-10.96c6.06 0 10.96 4.91 10.96 10.96s-4.9 10.96-10.96 10.96m21.1-114.94c-3.85 0-6.98-3.13-6.98-6.98s3.13-6.97 6.98-6.97 6.97 3.12 6.97 6.97-3.12 6.98-6.97 6.98m-110.1 105.38c-6.06 0-10.99-4.92-10.99-10.99s4.93-10.99 10.99-10.99c6.07 0 10.99 4.92 10.99 10.99s-4.92 10.99-10.99 10.99m203.9 16.16c-3.94 0-7.13-3.19-7.13-7.13s3.19-7.14 7.13-7.14 7.13 3.2 7.13 7.14-3.19 7.13-7.13 7.13m7.8-154.31c-6.07 0-10.99-4.92-10.99-10.99s4.92-10.99 10.99-10.99 10.99 4.92 10.99 10.99-4.92 10.99-10.99 10.99m349.3 19.05a7.127 7.127 0 0 1-6.73-7.51c.22-3.94 3.58-6.95 7.51-6.73 3.94.21 6.95 3.58 6.74 7.51a7.135 7.135 0 0 1-7.52 6.73"/><path d="M2336.7 85.07a7.135 7.135 0 0 1-6.73-7.52 7.127 7.127 0 0 1 7.51-6.73 7.13 7.13 0 0 1 6.73 7.52c-.21 3.93-3.58 6.94-7.51 6.73m-112.9-10.11c-7.26-.4-12.81-6.6-12.41-13.86.4-7.25 6.6-12.8 13.85-12.4s12.81 6.6 12.41 13.85-6.6 12.81-13.85 12.41m-3.8 155.95a7.14 7.14 0 0 1-6.73-7.51 7.15 7.15 0 0 1 7.52-6.74c3.93.22 6.95 3.59 6.73 7.52s-3.58 6.95-7.52 6.73m85.4-106.35c-6.06-.33-10.7-5.51-10.37-11.57.34-6.06 5.52-10.71 11.58-10.37 6.06.33 10.7 5.51 10.37 11.58-.34 6.06-5.52 10.7-11.58 10.36M591.09 142.8c-6.07 0-10.99-4.92-10.99-10.99s4.92-11 10.99-11 10.99 4.93 10.99 11-4.92 10.99-10.99 10.99m37.89-69.9c-3.94 0-7.13-3.19-7.13-7.13s3.19-7.14 7.13-7.14 7.14 3.2 7.14 7.14-3.2 7.13-7.14 7.13m73.06 67.61c-6.07 0-10.99-4.92-10.99-10.99s4.92-10.99 10.99-10.99 10.99 4.92 10.99 10.99-4.92 10.99-10.99 10.99M103.08 60.1c3.94 0 7.13 3.19 7.13 7.13s-3.19 7.14-7.13 7.14-7.14-3.2-7.14-7.14 3.2-7.13 7.14-7.13m-4.17 116.87c9.58 0 17.35 7.77 17.35 17.35s-7.77 17.35-17.35 17.35-17.35-7.77-17.35-17.35 7.77-17.35 17.35-17.35m312-51.44c3.94 0 7.14 3.19 7.14 7.13s-3.2 7.14-7.14 7.14c-3.93 0-7.13-3.2-7.13-7.14s3.2-7.13 7.13-7.13m27.6 66.03c-6.07 0-10.99-4.92-10.99-10.99s4.92-10.99 10.99-10.99 10.99 4.92 10.99 10.99-4.92 10.99-10.99 10.99m46.88-155.75c-3.94 0-7.13-3.19-7.13-7.13s3.19-7.13 7.13-7.13 7.14 3.19 7.14 7.13-3.2 7.13-7.14 7.13M1114 53.14c6.05 0 10.96 4.91 10.96 10.96s-4.91 10.96-10.96 10.96-10.96-4.91-10.96-10.96 4.91-10.96 10.96-10.96m-887.48 10.7c-6.06 0-10.98-4.92-10.98-10.99s4.92-10.99 10.98-10.99c6.07 0 11 4.92 11 10.99s-4.93 10.99-11 10.99m110.95-2.29c-6.07 0-10.99-4.92-10.99-10.99s4.92-10.99 10.99-10.99 10.99 4.92 10.99 10.99-4.92 10.99-10.99 10.99"/></g></svg>