<?xml version='1.0' encoding='utf-8'?>
<svg xmlns="http://www.w3.org/2000/svg" viewBox="0 0 744.09 1052.4"> <defs> <radialGradient id="a" cx="-1072.9" cy="326.67" r="345.05" gradientTransform="matrix(1 0 0 1.1405 -1.0346e-12 -45.911)" gradientUnits="userSpaceOnUse"> <stop stop-color="#e3fefb" stop-opacity=".03093" offset="0"/> <stop stop-color="#e3fefb" offset="1"/> </radialGradient> </defs> <g transform="matrix(.44629 0 0 .44083 663.12 45.497)"> <path d="m-1377.4234,104.67571c-.9765.576-1.62.9614-1.7976,1.0739-1.6881,1.0709-31.5831,21.0564-33.2283,23.0094-.0056.0071-.0067.0361-.0115.0426s-.0254.013-.027.0157-.0074.0361-.0114.0427l-.0385.0583c-.0023.0032-.0093.0393-.0115.0427l-.027.0156c-.0035.007-.007.0367-.0115.0427l-.0271.0156c-.9093,2.9935-3.0189,26.1857-3.0946,27.5149-.113,1.9833-1.2723,37.3314-.6701,40.1519 .0022.0083.0144.0225.0156.027l.0156.0271c.0089.0143.022.0401.0313.0541 1.1629,1.6429 19.8104,13.7252 20.8826,14.3572 .1438.0849.5169.297 1.0725.6077-3.5104,2.4286-6.3213,4.4573-6.6645,4.8942l-.0271.0157-.0114.0426c-.5892,1.3787-2.0849,17.8133-2.1376,18.735-.077,1.343-.8752,25.2803-.4681,27.1893 .0008.0027.0288.0447.0312.0541 .0009.0045-.0124.0389-.0114.0427 .7868,1.1121 13.4228,9.2654 14.1483,9.6932 1.0529.6206 20.0556,11.1012 21.9905,11.5886 .0024.0014.0132.0254.0157.0271l.0697-.0042 .0697-.0042c1.4713-.3316 15.4952-8.5769 16.2704-9.0689 .3229-.205 2.1616-1.4105 4.6725-3.0945 4.9408,2.8201 49.2801,27.3782 52.1486,27.699l.0854.023c2.2134-.1409 23.9621-11.2749 32.9651-15.9653-.0823,18.9444.4239,44.1052.5354,46.2398 .0208.3989.0683,1.3731.1675,2.79 .0034.0489.0048.0896.0083.1395-.4833,12.8827-.9527,26.3748-1.1615,36.8632-13.7812-7.5338-29.3494-15.9014-31.0108-16.0873-2.0367-.2278-35.0804,16.953-36.8633,17.9633-.8791.4981-6.7792,4.0319-14.2571,8.5561-1.3014-.9208-2.2254-1.5537-2.4107-1.6754-1.129-.7409-21.5932-13.4923-23.3113-14.0014l-.0427-.0115-.0698.0042c-1.4459.178-14.7025,6.9819-15.4328,7.3946-1.0596.5989-19.4969,11.7131-21.0195,13.2182l-.0541.0312-.0115.0426-.027.0157-.0114.0427c-.4485,1.4401-.3199,17.7203-.2814,18.6377 .0562,1.3367 1.5912,25.1142 2.195,27.2393 .0023.0077.0133.0201.0156.0271l.0157.0271 .0156.0271 .0156.027c.603.7799 6.2405,4.8611 10.4696,7.8839-8.9122,5.4154-22.1464,13.588-23.1365,14.8013l-.0114.0427-.05.101-.0114.0427c-.6453,2.447-.4804,26.1083-.4243,27.4526 .084,2.0131 2.4633,38.4197 3.3152,40.3047l.0157.0271 .0156.027 .0312.0541 .0157.0271 .0156.027 .0156.0271c.0014.0021.0145.0248.0156.0271l.0157.0271c2.1377,2.2842 21.1817,15.6983 22.2949,16.4285 1.6611,1.0895 31.6636,19.769 34.4073,20.6577l.0427.0114 .0427.0114 .0697-.0042c2.0043-.1856 21.768-10.3075 22.8516-10.92 .1453-.082.5356-.2992 1.0825-.625 .3481,4.2544.6786,7.7056.8855,8.2212l.0156.0271 .0156.027c.8995,1.1996 14.4065,10.7209 15.1785,11.2275 1.129.741 21.5933,13.4924 23.3114,14.0014l.0426.0114 .0427.0114c1.3565-.1252 14.7267-6.9957 15.4599-7.4101 1.0639-.6014 19.657-11.8018 21.0465-13.2339l.0271-.0156c.0021-.0076.0096-.0348.0115-.0426l.027-.0156 .0115-.0427c.4484-1.4399.3199-17.7203.2814-18.6376-.0162-.3822-.1476-2.5908-.3506-5.6073 4.9127-2.8688 48.3791-28.978 50.0913-31.3018l.0385-.0583c.9834-2.1834 2.2149-26.4518 2.6514-36.5327 16.3666,9.5448 38.4342,21.7108 40.3391,22.6819 .3382.1723 1.1334.5485 2.3074,1.1215 10.9881,6.9073 22.5438,14.1355 31.6001,19.6081-13.236,8.059-28.0181,17.2567-29.3516,18.7865-.0106.0128-.03.0467-.0385.0583-1.2143,1.9191-2.8635,38.8454-2.8801,40.8866-.0082,1.0103.1042,7.8774.2833,16.6156-1.4481.6666-2.4554,1.1797-2.6533,1.2793-1.2062.6073-22.4795,11.9545-23.7795,13.1878l-.027.0157c-.0081.0155-.0333.0472-.0385.0583-.5687,1.3413-1.2924,16.2219-1.3001,17.0608-.0111,1.217.4019,22.7513.9439,24.8223-.0001.0113-.0111.0322-.0114.0427 .0029.0028.0276.0509.0312.0541l-.0114.0427c.007.0069.041.0093.0427.0115 1.0229,1.1083 15.1753,9.1434 15.989,9.5687 1.1949.6245 22.8756,11.3205 24.7275,11.7043l.0426.0114c.0043.0001.0226-.0155.0271-.0156s.0129.027.0157.0271c.9769-.1322 7.3498-2.9843 12.0822-5.1355 .2338,10.426.6712,25.9735 1.2269,27.4375 .0057.0056.037.0062.0427.0115 .0101.0171.0422.0819.0625.1082 .0029.0032.0094.021.0156.0272 1.7966,1.7822 22.3909,13.4734 23.5831,14.0971 1.7854.9338 34.5122,17.0749 36.5707,17.2797l.0426.0114 .0698-.0043c.0036-.0001.0233-.0156.027-.0156l.0427.0115c.0068,0 .025-.0154.0271-.0156s.0131.0269.0156.0271 .0246-.0159.0271-.0156c3.0471-.7092 24.2006-10.4874 25.3896-11.0864 1.7741-.8939 32.9515-17.5354 35.093-19.4671 .0076-.0073.0205-.009.0271-.0157l.0385-.0582c.0079-.0149.031-.0433.0385-.0584s.013-.0584.0229-.0854c.8363-2.416 1.9234-23.924 1.9346-25.1491 .0016-.1669.0031-.6232-.0056-1.2597 3.8585,1.8257 7.0156,3.2752 7.5656,3.354 .0042.0001.0225-.0155.027-.0157l.0428.0115c1.4886-.1791 16.47574-7.1194 17.30044-7.5347 1.2015-.6048 22.32984-11.8807 23.77942-13.1878 .00199-.002.0473-.0243.05412-.0313s.01006-.0412.01147-.0426c.56963-1.2375 1.31946-16.2341 1.32712-17.0764 .01111-1.2221-.41421-22.93-.95952-24.8494-.00051-.0017.02697-.0129.02706-.0156s-.01571-.0245-.0156-.0271l-.01565-.0271c.00031-.0034-.01561-.0242-.01565-.0271l-.0156-.027c-1.02284-1.1084-15.2023-9.1277-16.01601-9.5531-.33901-.1771-2.3092-1.1803-5.02307-2.5127-.02813-5.689-.91655-56.3832-2.07296-59.0279l-.03125-.0542c-1.23064-1.8494-21.79122-15.1597-30.32932-20.5944 16.44819-9.4011 38.03769-22.4097 39.83072-23.5737 .32904-.2136 1.09068-.7352 2.23369-1.5061 11.4487-6.0485 23.43614-12.4386 32.67517-17.5299 .3582,15.3569.91919,32.6115 1.56968,34.7812 .01147.0359.0239.0975.03543.1239 1.05484,2.0111 32.22379,21.8883 33.98325,22.9232 .87087.5123 6.88327,3.8456 14.54034,8.0596-.14673,1.5875-.22989,2.7335-.24262,2.9548-.07721,1.3481-.88623,25.4466-.46815,27.1891l.01565.0271c.00944.0148.02424.0441.03125.0542 .87716,1.1632 13.41021,9.2401 14.13275,9.6661 1.0485.6182 19.89873,11.0382 21.96342,11.6043 .00957.0056.03369.0058.04266.0114l.04267.0114 .04271.0114c.00914-.0025.02577-.0154.02706-.0156 1.47131-.3317 15.49519-8.5769 16.27038-9.0689 1.13841-.7226 21.25854-14.1502 22.51685-15.5621l.02706-.0157c.00219-.0035.00921-.0386.01147-.0426 .37391-.9122 1.10931-7.8455 1.61261-13.0194 9.14597,5.0106 22.81764,12.3854 24.36344,12.6362l.05413-.0312 .11244.0072 .02706-.0156c2.44182-.6648 22.8712-12.6348 24.00738-13.3555 1.70141-1.0793 32.04892-21.3447 33.2554-23.0249 .00313-.0056-.01721-.0244-.01565-.0271l.02707-.0157 .03852-.0582c.00172-.0033.00955-.0395.01147-.0427 .00332-.0059.02597-.0139.02706-.0156l.01141-.0427 .02707-.0157c.00118-.0025-.0165-.024-.01565-.0271 .90941-2.9933 3.01897-26.1856 3.09469-27.5148 .11293-1.9834 1.28791-37.3044.68574-40.1248-.00124-.0051-.01341-.0188-.01565-.0271-.00124-.004-.00199-.061-.00419-.0697-.00884-.0142-.02198-.0401-.03125-.0542-.01364-.0192-.05555-.0434-.07391-.0655-1.67423-1.9322-19.76468-13.6268-20.82009-14.2489-.14383-.085-.53259-.324-1.08817-.6348 3.40068-2.3527 6.17214-4.334 6.65308-4.8515 .00656-.0076.02169-.0088.02707-.0156 .0022-.0036.00921-.0387.01146-.0427l.02706-.0156c.58911-1.3788 2.06928-17.8403 2.12193-18.7622 .07671-1.3376.8798-25.0894.48375-27.1621-.0016-.0075-.01397-.0203-.0156-.0271-.00085-.0026.01388-.0333.01142-.0427l-.03125-.0541c-.78687-1.1122-13.4072-9.2383-14.13276-9.6662-1.05281-.6206-20.04411-11.1438-21.97902-11.6312-.00175-.0004-.02472.017-.02706.0156s-.01334-.0257-.0156-.027l-.02707.0156-.04271-.0115-.02706.0156c-1.47129.3316-15.52221,8.5926-16.29744,9.0845-.32282.2051-2.16161,1.4105-4.67243,3.0947-4.94086-2.8202-49.29573-27.4054-52.16432-27.7263l-.04266-.0114c-.00621-.0002-.02214.0156-.02707.0156-2.21572.141-23.99548,11.2566-32.98074,15.9382 .08198-18.9425-.39688-44.1215-.50829-46.2554-.0197-.3769-.07647-1.2477-.16633-2.5381 .48835-12.9832.92931-26.6241 1.14054-37.212 13.4786,7.3683 28.70562,15.5159 30.90983,16.0374 .03684.008.08385.0041.11249.0073 2.03671.2279 35.08039-16.953 36.86335-17.9633 .87906-.498 6.77907-4.0319 14.25702-8.5561 1.30136.9208 2.22538,1.5537 2.41068,1.6754 1.12906.741 21.59324,13.4922 23.31131,14.0014l.04266.0114 .06978-.0041c1.44592-.178 14.70254-6.9819 15.43281-7.3946 1.0596-.599 19.49693-11.7132 21.01951-13.2182l.05412-.0312 .01142-.0428 .02706-.0156 .01146-.0426c.44847-1.4401.3199-17.7204.28137-18.6377-.05656-1.3472-1.61705-25.4707-2.21067-27.2665l-.0156-.027-.0156-.027-.01565-.0271c-.60293-.7799-6.24052-4.8611-10.46963-7.8839 8.91226-5.4154 22.14648-13.588 23.13658-14.8013l.01146-.0427c.01242-.0237.04039-.0779.04989-.1011l.01146-.0426c.63639-2.602.48011-26.1136.4243-27.4526-.084-2.0131-2.46333-38.4197-3.31525-40.3047l-.0156-.027-.01565-.0271-.03125-.0541-.0156-.0271-.01565-.0271c-.00336-.0059-.01438-.0253-.01565-.0271l-.0156-.027-.0156-.027c-2.13772-2.2843-21.18172-15.6983-22.29497-16.4285-1.66109-1.0896-31.66359-19.76911-34.40733-20.65781l-.04266-.0114-.04272-.0115-.06977.0042-.09679.0198c-2.51045.4839-21.68814,10.2973-22.75471,10.90021-.14532.0821-.53565.2993-1.08253.625-.34813-4.2544-.67863-7.70551-.88548-8.2211l-.0156-.0271-.01565-.0271c-.89948-1.1995-14.40649-10.7209-15.1785-11.2274-1.12893-.741-21.5932-13.4923-23.31131-14.0014l-.04271-.0115-.04272-.0114c-1.3564.1254-14.72665,6.9957-15.45982,7.4103-1.06391.6014-19.65702,11.8017-21.04662,13.2336l-.02706.0157c-.00194.0078-.00955.0349-.01141.0427l-.02707.0156-.01141.0428c-.4484,1.4399-.31995,17.72021-.28137,18.63761 .01615.3821.14748,2.5907.35054,5.6072-4.91275,2.8688-48.37914,28.9779-50.09131,31.3018l-.03848.0583c-.98542,1.9887-2.23986,26.4191-2.67851,36.5482-16.36335-9.5419-38.3927-21.6999-40.29632-22.6703-.36816-.1876-1.27542-.64-2.62604-1.2984-10.90706-6.855-22.3472-14.0183-31.3243-19.4427 13.2938-8.0942 28.1577-17.333 29.37876-18.8021 .00479-.0061.02275-.0099.02707-.0156 1.21563-1.65 2.84782-38.86451 2.86445-40.91361 .00815-1.0103-.07713-7.8931-.25625-16.6314 1.44809-.6665 2.4439-1.1369 2.64188-1.2366 1.1968-.6025 22.15533-11.7929 23.75236-13.1722 .00573-.005.02201-.0108.02706-.0156l.03853-.0583c.00813-.0155.00621-.0316.01146-.0426 .56877-1.3413 1.31938-16.2377 1.32712-17.0764 .01105-1.2172-.38621-22.7243-.92832-24.7954 .00025-.0111-.00446-.0592-.00413-.0697l-.04272-.0114 .01142-.0428-.0312-.054c-1.02289-1.1084-15.2024-9.1279-16.01607-9.5532-1.19497-.6246-22.84858-11.3361-24.70046-11.7199-.00168-.0003-.02428.0156-.02706.0156l-.04272-.0115c-.00317.0003-.02092.0158-.02706.0157l-.04266-.0114c-1.12537.2126-7.35406,3.0137-12.01256,5.1312-.2337-10.426-.7138-25.9848-1.2695-27.449l-.0156-.027c-.0102-.0171-.0423-.0819-.0625-.1083-.0059-.0064-.0363-.0047-.0427-.0114-1.7966-1.7823-22.3639-13.4891-23.556-14.1127-1.7854-.9338-34.4967-17.048-36.5551-17.2527l-.0426-.0114c-.0052,0-.0195.0157-.0271.0156l-.0698.0042c-.0037.0001-.0119-.027-.0156-.0271s-.0203.0156-.0271.0156l-.0427-.0114c-.0026.0001-.0245.0157-.027.0156s-.0131-.0268-.0156-.027-.0243.0153-.0271.0156c-3.0471.7092-24.2007,10.4873-25.3897,11.0863-1.7741.8939-32.9358,17.5625-35.0773,19.4943-.0076.0071-.0205.0088-.0271.0156l-.027.0156c-.0081.0147-.0311.0432-.0386.0583-.8413,1.8285-1.9576,24.0326-1.9689,25.2772-.0016.167-.0187.5961-.01,1.2327-3.8586-1.8258-7-3.2483-7.55-3.327l-.0427-.0115c-.0065-.0001-.0244.0153-.0271.0156-1.4886.1792-16.4914,7.0924-17.3161,7.5077-1.1968.6024-22.1554,11.7928-23.7524,13.1721-.0057.0051-.0219.0109-.027.0156-.0019.0022-.0046.0359-.0114.0428l-.0542.0312c-.5697,1.2374-1.3038,16.2612-1.3114,17.1035-.0112,1.222.3985,22.9029.9438,24.8223 .0006.0018.0157.0243.0157.0271s-.0277.014-.0271.0156c.0057.0057.0526.0331.0583.0385-.0003.0034-.0271.0128-.0271.0156 .007.0069.0567.0364.0584.0386 1.0228,1.1083 15.1752,9.1433 15.9889,9.5687 .3391.1772 2.3362,1.1646 5.0501,2.497 .0281,5.689.8739,56.3718 2.0303,59.0165l.0313.0542c.0028.0054.013.0228.0156.027 1.2287,1.8466 21.7241,15.1321 30.2866,20.583-16.4448,9.4-37.9689,22.4062-39.761,23.5695-.3314.2152-1.1467.7302-2.3034,1.5103-11.4421,6.0451-23.4015,12.4544-32.6325,17.5414-.3629-15.5669-.9273-33.0849-1.5895-34.8781l-.0156-.0271c-.821-1.8778-32.2325-21.9112-33.9989-22.9503-.8708-.5122-6.8832-3.8455-14.5404-8.0596 .1468-1.5874.2456-2.7063.2584-2.9276 .0765-1.3377.8796-25.0894.4837-27.1621-.0016-.0075-.014-.0203-.0156-.0271-.001-.0027-.0288-.0447-.0313-.0541-.0094-.0148-.0242-.0441-.0312-.0542-.8772-1.1632-13.3832-9.2557-14.1057-9.6817-1.0485-.6182-19.8832-11.0112-21.9478-11.5772l-.0583-.0385-.0541.0313c-.003-.002-.0133-.0258-.0157-.0271l-.0426-.0114c-1.4714.3317-15.5223,8.5925-16.2974,9.0846-1.134.7197-21.0903,14.047-22.4899,15.5464l-.027.0156c-.0015.0028.0169.0248.0156.0271l-.027.0157c-.0022.0042-.0074.0355-.0115.0426-.374.9121-1.0823,7.8298-1.5856,13.00381-9.1459-5.0107-22.8603-12.39691-24.4061-12.64771l-.0271.0156c-.0199.0001-.1065.004-.1395.0084l-.027.0156c-2.0603.5609-16.9096,9.1556-22.1828,12.2659zm303.8273,221.3692c.0017-.0071.0253-.0084.027-.0156 .2469-.0571.5461-.1199.8828-.221 .1714.1836.3743.4102.627.6484-.0715.2362-.1238.5092-.2018.8381-.2448.0558-.531.1478-.8671.2481-.1674-.1794-.393-.3739-.6383-.6056 .0021-.0071-.0178-.0201-.0157-.0272 .0725-.2382.107-.5312.1861-.8652z" fill="url(#a)" stroke="#64655e" stroke-width="1.059"/> <g transform="matrix(-.5 -.86603 .86603 -.5 -1894.2 -434.91)" stroke="#797a76"> <path transform="matrix(.67305 0 0 .59304 -587.88 104.5)" d="m-650.46-131.26c-1.0683 1.7359-32.837 20.538-34.631 21.507s-34.926 17.248-36.964 17.191-34.205-18.169-35.941-19.237-32.401-21.623-33.37-23.416-1.3678-38.707-1.3107-40.745 2.5254-38.871 3.5937-40.607 32.837-20.538 34.631-21.507 34.926-17.248 36.964-17.191 34.205 18.169 35.941 19.237 32.401 21.623 33.37 23.416 1.3678 38.707 1.3107 40.745-2.5254 38.871-3.5937 40.607z" fill="#fefefb" opacity=".6" stroke-width="1.5828"/> <path d="m-1057.2 63.281-4.1875 38.25 92.031-58.188c-1.7002-5.5742 0.34581-13.796-3.8814-17.584l-25.869-12.978-58.094 50.5z" fill="none"/> <path d="m-1083.1 64.141 4.1875 38.25-92.031-58.188c1.7001-5.5742-0.3458-13.796 3.8814-17.584l25.869-12.978 58.094 50.5z" fill="none"/> <g transform="matrix(.56948 0 0 .48124 -459.75 47.108)" fill="none" stroke-width="1.9102"> <path d="m-1071.7 55.35v154.62l63.979 47.985 26.658 5.3316 2.6658 15.995 39.987 31.99"/> <path d="m-1070.4 55.35v154.62l-63.979 47.985-26.658 5.3316-2.6658 15.995-39.987 31.99"/> </g> <path d="m-1071.7 329.93v-5.3316" fill="none"/> <path d="m-1074.3 327.26v-2.6658" fill="none"/> <path transform="matrix(.67305 0 0 .59304 -587.88 104.5)" d="m-650.46-131.26c-1.0683 1.7359-32.837 20.538-34.631 21.507s-34.926 17.248-36.964 17.191-34.205-18.169-35.941-19.237-32.401-21.623-33.37-23.416-1.3678-38.707-1.3107-40.745 2.5254-38.871 3.5937-40.607 32.837-20.538 34.631-21.507 34.926-17.248 36.964-17.191 34.205 18.169 35.941 19.237 32.401 21.623 33.37 23.416 1.3678 38.707 1.3107 40.745-2.5254 38.871-3.5937 40.607z" fill="#fefefb" opacity=".6" stroke-width="1.5828"/> <path d="m-1057.2 63.281-4.1875 38.25 92.031-58.188c-1.7002-5.5742 0.34581-13.796-3.8814-17.584l-25.869-12.978-58.094 50.5z" fill="none"/> <path d="m-1083.1 64.141 4.1875 38.25-92.031-58.188c1.7001-5.5742-0.3458-13.796 3.8814-17.584l25.869-12.978 58.094 50.5z" fill="none"/> <g transform="matrix(.56948 0 0 .48124 -459.75 47.108)" fill="none" stroke-width="1.9102"> <path d="m-1071.7 55.35v154.62l63.979 47.985 26.658 5.3316 2.6658 15.995 39.987 31.99"/> <path d="m-1070.4 55.35v154.62l-63.979 47.985-26.658 5.3316-2.6658 15.995-39.987 31.99"/> </g> <path d="m-1071.7 329.93v-5.3316" fill="none"/> <path d="m-1074.3 327.26v-2.6658" fill="none"/> </g> <g transform="matrix(.5 -.86603 .86603 .5 -823.99 -765.33)" stroke="#797a76"> <path transform="matrix(.67305 0 0 .59304 -587.88 104.5)" d="m-650.46-131.26c-1.0683 1.7359-32.837 20.538-34.631 21.507s-34.926 17.248-36.964 17.191-34.205-18.169-35.941-19.237-32.401-21.623-33.37-23.416-1.3678-38.707-1.3107-40.745 2.5254-38.871 3.5937-40.607 32.837-20.538 34.631-21.507 34.926-17.248 36.964-17.191 34.205 18.169 35.941 19.237 32.401 21.623 33.37 23.416 1.3678 38.707 1.3107 40.745-2.5254 38.871-3.5937 40.607z" fill="#fefefb" opacity=".6" stroke-width="1.5828"/> <path d="m-1057.2 63.281-4.1875 38.25 92.031-58.188c-1.7002-5.5742 0.34581-13.796-3.8814-17.584l-25.869-12.978-58.094 50.5z" fill="none"/> <path d="m-1083.1 64.141 4.1875 38.25-92.031-58.188c1.7001-5.5742-0.3458-13.796 3.8814-17.584l25.869-12.978 58.094 50.5z" fill="none"/> <g transform="matrix(.56948 0 0 .48124 -459.75 47.108)" fill="none" stroke-width="1.9102"> <path d="m-1071.7 55.35v154.62l63.979 47.985 26.658 5.3316 2.6658 15.995 39.987 31.99"/> <path d="m-1070.4 55.35v154.62l-63.979 47.985-26.658 5.3316-2.6658 15.995-39.987 31.99"/> </g> <path d="m-1071.7 329.93v-5.3316" fill="none"/> <path d="m-1074.3 327.26v-2.6658" fill="none"/> </g> <g transform="translate(-2.7511 -3.7578)" stroke="#797a76"> <path transform="matrix(.67305 0 0 .59304 -587.88 104.5)" d="m-650.46-131.26c-1.0683 1.7359-32.837 20.538-34.631 21.507s-34.926 17.248-36.964 17.191-34.205-18.169-35.941-19.237-32.401-21.623-33.37-23.416-1.3678-38.707-1.3107-40.745 2.5254-38.871 3.5937-40.607 32.837-20.538 34.631-21.507 34.926-17.248 36.964-17.191 34.205 18.169 35.941 19.237 32.401 21.623 33.37 23.416 1.3678 38.707 1.3107 40.745-2.5254 38.871-3.5937 40.607z" fill="#fefefb" opacity=".6" stroke-width="1.5828"/> <path d="m-1057.2 63.281-4.1875 38.25 92.031-58.188c-1.7002-5.5742 0.34581-13.796-3.8814-17.584l-25.869-12.978-58.094 50.5z" fill="none"/> <path d="m-1083.1 64.141 4.1875 38.25-92.031-58.188c1.7001-5.5742-0.3458-13.796 3.8814-17.584l25.869-12.978 58.094 50.5z" fill="none"/> <g transform="matrix(.56948 0 0 .48124 -459.75 47.108)" fill="none" stroke-width="1.9102"> <path d="m-1071.7 55.35v154.62l63.979 47.985 26.658 5.3316 2.6658 15.995 39.987 31.99"/> <path d="m-1070.4 55.35v154.62l-63.979 47.985-26.658 5.3316-2.6658 15.995-39.987 31.99"/> </g> <path d="m-1071.7 329.93v-5.3316" fill="none"/> <path d="m-1074.3 327.26v-2.6658" fill="none"/> </g> <g transform="matrix(.5 .86603 -.86603 .5 -251.67 1088.2)" stroke="#797a76"> <path transform="matrix(.67305 0 0 .59304 -587.88 104.5)" d="m-650.46-131.26c-1.0683 1.7359-32.837 20.538-34.631 21.507s-34.926 17.248-36.964 17.191-34.205-18.169-35.941-19.237-32.401-21.623-33.37-23.416-1.3678-38.707-1.3107-40.745 2.5254-38.871 3.5937-40.607 32.837-20.538 34.631-21.507 34.926-17.248 36.964-17.191 34.205 18.169 35.941 19.237 32.401 21.623 33.37 23.416 1.3678 38.707 1.3107 40.745-2.5254 38.871-3.5937 40.607z" fill="#fefefb" opacity=".6" stroke-width="1.5828"/> <path d="m-1057.2 63.281-4.1875 38.25 92.031-58.188c-1.7002-5.5742 0.34581-13.796-3.8814-17.584l-25.869-12.978-58.094 50.5z" fill="none"/> <path d="m-1083.1 64.141 4.1875 38.25-92.031-58.188c1.7001-5.5742-0.3458-13.796 3.8814-17.584l25.869-12.978 58.094 50.5z" fill="none"/> <g transform="matrix(.56948 0 0 .48124 -459.75 47.108)" fill="none" stroke-width="1.9102"> <path d="m-1071.7 55.35v154.62l63.979 47.985 26.658 5.3316 2.6658 15.995 39.987 31.99"/> <path d="m-1070.4 55.35v154.62l-63.979 47.985-26.658 5.3316-2.6658 15.995-39.987 31.99"/> </g> <path d="m-1071.7 329.93v-5.3316" fill="none"/> <path d="m-1074.3 327.26v-2.6658" fill="none"/> </g> <g transform="matrix(-.5 .86603 -.86603 -.5 -1321.8 1418.7)" stroke="#797a76"> <path transform="matrix(.67305 0 0 .59304 -587.88 104.5)" d="m-650.46-131.26c-1.0683 1.7359-32.837 20.538-34.631 21.507s-34.926 17.248-36.964 17.191-34.205-18.169-35.941-19.237-32.401-21.623-33.37-23.416-1.3678-38.707-1.3107-40.745 2.5254-38.871 3.5937-40.607 32.837-20.538 34.631-21.507 34.926-17.248 36.964-17.191 34.205 18.169 35.941 19.237 32.401 21.623 33.37 23.416 1.3678 38.707 1.3107 40.745-2.5254 38.871-3.5937 40.607z" fill="#fefefb" opacity=".6" stroke-width="1.5828"/> <path d="m-1057.2 63.281-4.1875 38.25 92.031-58.188c-1.7002-5.5742 0.34581-13.796-3.8814-17.584l-25.869-12.978-58.094 50.5z" fill="none"/> <path d="m-1083.1 64.141 4.1875 38.25-92.031-58.188c1.7001-5.5742-0.3458-13.796 3.8814-17.584l25.869-12.978 58.094 50.5z" fill="none"/> <g transform="matrix(.56948 0 0 .48124 -459.75 47.108)" fill="none" stroke-width="1.9102"> <path d="m-1071.7 55.35v154.62l63.979 47.985 26.658 5.3316 2.6658 15.995 39.987 31.99"/> <path d="m-1070.4 55.35v154.62l-63.979 47.985-26.658 5.3316-2.6658 15.995-39.987 31.99"/> </g> <path d="m-1071.7 329.93v-5.3316" fill="none"/> <path d="m-1074.3 327.26v-2.6658" fill="none"/> </g> <g transform="matrix(-1 0 0 -1 -2143.1 657.1)" stroke="#797a76"> <path transform="matrix(.67305 0 0 .59304 -587.88 104.5)" d="m-650.46-131.26c-1.0683 1.7359-32.837 20.538-34.631 21.507s-34.926 17.248-36.964 17.191-34.205-18.169-35.941-19.237-32.401-21.623-33.37-23.416-1.3678-38.707-1.3107-40.745 2.5254-38.871 3.5937-40.607 32.837-20.538 34.631-21.507 34.926-17.248 36.964-17.191 34.205 18.169 35.941 19.237 32.401 21.623 33.37 23.416 1.3678 38.707 1.3107 40.745-2.5254 38.871-3.5937 40.607z" fill="#fefefb" opacity=".6" stroke-width="1.5828"/> <path d="m-1057.2 63.281-4.1875 38.25 92.031-58.188c-1.7002-5.5742 0.34581-13.796-3.8814-17.584l-25.869-12.978-58.094 50.5z" fill="none"/> <path d="m-1083.1 64.141 4.1875 38.25-92.031-58.188c1.7001-5.5742-0.3458-13.796 3.8814-17.584l25.869-12.978 58.094 50.5z" fill="none"/> <g transform="matrix(.56948 0 0 .48124 -459.75 47.108)" fill="none" stroke-width="1.9102"> <path d="m-1071.7 55.35v154.62l63.979 47.985 26.658 5.3316 2.6658 15.995 39.987 31.99"/> <path d="m-1070.4 55.35v154.62l-63.979 47.985-26.658 5.3316-2.6658 15.995-39.987 31.99"/> </g> <path d="m-1071.7 329.93v-5.3316" fill="none"/> <path d="m-1074.3 327.26v-2.6658" fill="none"/> </g> <path transform="translate(39.987 58.648)" d="m-1034.3 311.27c-1.135 1.8694-35.101 22.248-37.019 23.3s-37.363 18.732-39.55 18.684-36.818-19.274-38.687-20.409-34.904-22.992-35.955-24.909-1.7169-41.522-1.6686-43.709 2.4594-41.723 3.5944-43.593c1.135-1.8694 35.101-22.248 37.019-23.3s37.363-18.732 39.55-18.684 36.818 19.274 38.687 20.409 34.904 22.992 35.955 24.909 1.7168 41.522 1.6686 43.709-2.4595 41.723-3.5945 43.593z" fill="#fffeff" stroke="#797a76"/> <path transform="matrix(.49992 .29733 -.32402 .5448 -660.03 318.28)" d="m-557.15 404.57c-11.416 5.42-28.569-56.637-41.205-56.845-12.43-0.205-30.89 62.547-41.123 55.487-10.402-7.1767 34.765-53.06 28.627-64.107-6.0374-10.867-69.612 4.5216-68.614-7.8698 1.0142-12.597 63.334 3.5772 69.832-7.2615 6.3925-10.662-38.722-58.025-27.492-63.357 11.416-5.42 28.569 56.637 41.205 56.845 12.43 0.20499 30.89-62.547 41.123-55.487 10.402 7.1767-34.765 53.06-28.627 64.107 6.0374 10.867 69.612-4.5216 68.614 7.8698-1.0142 12.597-63.334-3.5772-69.832 7.2615-6.3925 10.662 38.722 58.025 27.492 63.357z" fill="#fffeff" stroke="#797a76"/> <path transform="matrix(.32027 .17399 -.20758 .3188 -815.37 -10.098)" d="m-557.15 404.57c-11.416 5.42-28.569-56.637-41.205-56.845-12.43-0.205-30.89 62.547-41.123 55.487-10.402-7.1767 34.765-53.06 28.627-64.107-6.0374-10.867-69.612 4.5216-68.614-7.8698 1.0142-12.597 63.334 3.5772 69.832-7.2615 6.3925-10.662-38.722-58.025-27.492-63.357 11.416-5.42 28.569 56.637 41.205 56.845 12.43 0.20499 30.89-62.547 41.123-55.487 10.402 7.1767-34.765 53.06-28.627 64.107 6.0374 10.867 69.612-4.5216 68.614 7.8698-1.0142 12.597-63.334-3.5772-69.832 7.2615-6.3925 10.662 38.722 58.025 27.492 63.357z" fill="#fffeff" stroke="#797a76"/> <path transform="matrix(.32027 .17399 -.20758 .3188 -528.13 156.51)" d="m-557.15 404.57c-11.416 5.42-28.569-56.637-41.205-56.845-12.43-0.205-30.89 62.547-41.123 55.487-10.402-7.1767 34.765-53.06 28.627-64.107-6.0374-10.867-69.612 4.5216-68.614-7.8698 1.0142-12.597 63.334 3.5772 69.832-7.2615 6.3925-10.662-38.722-58.025-27.492-63.357 11.416-5.42 28.569 56.637 41.205 56.845 12.43 0.20499 30.89-62.547 41.123-55.487 10.402 7.1767-34.765 53.06-28.627 64.107 6.0374 10.867 69.612-4.5216 68.614 7.8698-1.0142 12.597-63.334-3.5772-69.832 7.2615-6.3925 10.662 38.722 58.025 27.492 63.357z" fill="#fffeff" stroke="#797a76"/> <path transform="matrix(.32027 .17399 -.20758 .3188 -523.46 488.41)" d="m-557.15 404.57c-11.416 5.42-28.569-56.637-41.205-56.845-12.43-0.205-30.89 62.547-41.123 55.487-10.402-7.1767 34.765-53.06 28.627-64.107-6.0374-10.867-69.612 4.5216-68.614-7.8698 1.0142-12.597 63.334 3.5772 69.832-7.2615 6.3925-10.662-38.722-58.025-27.492-63.357 11.416-5.42 28.569 56.637 41.205 56.845 12.43 0.20499 30.89-62.547 41.123-55.487 10.402 7.1767-34.765 53.06-28.627 64.107 6.0374 10.867 69.612-4.5216 68.614 7.8698-1.0142 12.597-63.334-3.5772-69.832 7.2615-6.3925 10.662 38.722 58.025 27.492 63.357z" fill="#fffeff" stroke="#797a76"/> <path transform="matrix(.32027 .17399 -.20758 .3188 -813.37 653.9)" d="m-557.15 404.57c-11.416 5.42-28.569-56.637-41.205-56.845-12.43-0.205-30.89 62.547-41.123 55.487-10.402-7.1767 34.765-53.06 28.627-64.107-6.0374-10.867-69.612 4.5216-68.614-7.8698 1.0142-12.597 63.334 3.5772 69.832-7.2615 6.3925-10.662-38.722-58.025-27.492-63.357 11.416-5.42 28.569 56.637 41.205 56.845 12.43 0.20499 30.89-62.547 41.123-55.487 10.402 7.1767-34.765 53.06-28.627 64.107 6.0374 10.867 69.612-4.5216 68.614 7.8698-1.0142 12.597-63.334-3.5772-69.832 7.2615-6.3925 10.662 38.722 58.025 27.492 63.357z" fill="#fffeff" stroke="#797a76"/> <path transform="matrix(.32027 .17399 -.20758 .3188 -1099.5 488.41)" d="m-557.15 404.57c-11.416 5.42-28.569-56.637-41.205-56.845-12.43-0.205-30.89 62.547-41.123 55.487-10.402-7.1767 34.765-53.06 28.627-64.107-6.0374-10.867-69.612 4.5216-68.614-7.8698 1.0142-12.597 63.334 3.5772 69.832-7.2615 6.3925-10.662-38.722-58.025-27.492-63.357 11.416-5.42 28.569 56.637 41.205 56.845 12.43 0.20499 30.89-62.547 41.123-55.487 10.402 7.1767-34.765 53.06-28.627 64.107 6.0374 10.867 69.612-4.5216 68.614 7.8698-1.0142 12.597-63.334-3.5772-69.832 7.2615-6.3925 10.662 38.722 58.025 27.492 63.357z" fill="#fffeff" stroke="#797a76"/> <path transform="matrix(.32027 .17399 -.20758 .3188 -1100.1 156.51)" d="m-557.15 404.57c-11.416 5.42-28.569-56.637-41.205-56.845-12.43-0.205-30.89 62.547-41.123 55.487-10.402-7.1767 34.765-53.06 28.627-64.107-6.0374-10.867-69.612 4.5216-68.614-7.8698 1.0142-12.597 63.334 3.5772 69.832-7.2615 6.3925-10.662-38.722-58.025-27.492-63.357 11.416-5.42 28.569 56.637 41.205 56.845 12.43 0.20499 30.89-62.547 41.123-55.487 10.402 7.1767-34.765 53.06-28.627 64.107 6.0374 10.867 69.612-4.5216 68.614 7.8698-1.0142 12.597-63.334-3.5772-69.832 7.2615-6.3925 10.662 38.722 58.025 27.492 63.357z" fill="#fffeff" stroke="#797a76"/> </g> </svg>