<?xml version='1.0' encoding='utf-8'?>
<svg xmlns="http://www.w3.org/2000/svg" clip-rule="evenodd" fill-rule="evenodd" stroke-linecap="round" stroke-linejoin="round" stroke-miterlimit="1.5" version="1.1" viewBox="0 0 5e3 5e3"> <g stroke="#000" stroke-width="15.83px"> <path d="m2500 1855.3c51.63 59.307 133.72 127.6 173.56 195.19 2.426 4.116-8.323-4.695-12.422-7.148-13.725-8.214-27.386-16.55-41.086-24.807-32.741-19.731-81.935-68.179-120.05-74.142-1.056-0.165-23.012 73.605-26.711 76.85-82.176 72.108 49.306 96.311 61.886 179.4 0.399 2.637-26.488 82.871-26.199 82.835 45.881-5.701 137.67-130.33 152.33-125.48 1.261 0.417-10.235 37.101-11.659 41.444-34.4 104.93-98.454 202.96-149.64 300.53" fill="#fff"/> <path d="m1656.3 1756.7c5.225-43.641 16.55-86.911 22.549-130.46 2.776-20.151 10.427-43.617 9.513-64.058-0.039-0.866-14.359 3.741-16.023 4.713-12.39 7.241-23.258 16.306-32.921 26.897-3.579 3.922-6.809 8.092-10.111 12.244-1.164 1.465-2.878 6.259-3.405 4.463-2.434-8.302 27.479-68.205 32.136-77.495 17.722-35.36 34.356-70.728 49.72-107.19 7.083-16.808 10.991-36.21 19.684-52.14 5.75-10.534 16.699-1.384 24.299-5.595 19.91-11.031 24.203-51.057 18.645-70.71-3.287-11.626-7.827-22.901-12.812-33.885-17.165-37.82-27.099 20.426-34.363 22.921-4.511 1.549-12.902-3.468-16.76-5.467-20.821-10.788-40.076-29.191-59.11-42.965-10.333-7.478-20.527-15.011-29.563-24.04-1.333-1.333-5.332-2.663-4.001-3.999 12.635-12.672 52.076 1.389 67.822 4.507 1.925 0.381 5.417 3.003 5.789 1.076 4.897-25.417-67.266-69.776-84.953-78.547-7.019-3.482-41.336-19.581-40.973-20.187 11.725-19.599 63.777 0.073 77.843-4.778 23.175-7.992-23.066-129.8-27.506-151.96" fill="none"/> <path d="m1070.4 1397c3.755 12.685 5.808 25.58 7.024 38.741 0.372 4.035-2.242 14.622 0.944 12.119 26.463-20.792 40.404-62.963 56.511-91.564 5.43-9.642 10.181-19.5 15.137-29.384 3.051-6.085 8.027-15.402 8.038-15.102 1.665 48.457-28.684 100.37-43.54 145.46-4.963 15.066-10.798 29.761-16.744 44.458-1.673 4.137-3.37 8.25-5.087 12.371-0.81 1.94-4.48 5.374-2.426 5.823 13.928 3.042 99.303-123.66 106.66-124.3 3.484-0.302-0.722 6.963-1.288 10.414-1.737 10.581-4.429 20.83-7.746 31.028-13.378 41.119 164.47-68.373 143.66-30.573" fill="none"/> <path d="m1827.3 1756.7c3.182-55.523 6.636-97.858 6.636-197.27 0-61.39 39.902-28.982 43.267-139.41" fill="none"/> <path d="m1592.8 1978.8c87.748-10.655 209.64-75.31 297.31-86.443 24.334-3.09 60.707-3.892 85.058-6.853 6.846-0.833 100-25.924 94.549-30.145-57.676-44.628-216.54-68.795-281-102.5-49.234-25.742-103.55-19.923-147.95 16.035-90.079 72.949-573.62 96.528-628.67 198.39-115.62 213.92-7.489-117.79-12.857-140.84-17.726-76.125 91.192-505.2 86.27-537.11-0.233-1.511-32.209 47.363-32.616 50.178-16.639 115.3-307.29 26.742-396.52 96.102" fill="none"/> <path d="m2500 527.5s-137.95 180.35-0 171.52" fill="none"/> <path d="m2500 876.5s14.466 34.876 25.403 51.929c2.253 3.512 12.118 14.226 11.931 19.372-0.431 11.831-14.198 21.013-22.673 27.279-11.88 8.783-24.334 16.91-37.058 24.409-1.315 0.774-11.467 5.323-11.885 7.197-1.778 7.967 10.07 19.787 15.523 25.475 13.936 14.533 30.204 27.512 43.405 42.626 4.099 4.693-19.378 23.435-24.206 26.432" fill="none"/> <path d="m1497.6 1986c-2.991 53.003-8.398 105.22-14.548 157.92-0.817 6.999 15.002-23.363 16.793-26.611 12.697-23.018 24.074-46.59 35.522-70.246 1.676-3.464 2.53 7.272 3.637 10.958 2.968 9.885 5.295 20.079 7.052 30.254 5.416 31.366 7.546 63.216 8.863 94.987 0.386 9.32 0.689 18.643 0.94 27.967 0.145 5.401-3.472 19.978 0.394 16.204 12.823-12.516 21.326-34.057 27.327-50.615 33.093-91.319-3.239 84.526 9.928 102.39 1.199 1.627 55.856-42.903 59.286-45.68" fill="none"/> <path d="m1932.6 1800c-2.012-33.7-1.706-65.454-2.145-99.206-0.191-14.665-0.32-29.33-0.415-43.996-0.121-18.641-0.691-37.364-0.252-55.999 0.136-5.795 7.717 8.654 11.462 13.078 6.203 7.327 11.669 15.177 17.242 22.986 17.195 24.093 28.119 64.612 49.596 84.026 2.345 2.119 8.969-54.748 9.349-56.85" fill="none"/> <path d="m1760.6 1736.7c-0-70.455-6.335-138.87-11.761-208.99-0.378-4.887-5.649-80.76-4.14-80.89 19.536-1.689 46.972 28.136 61.224 37.349 9.509 6.147 10.596-20.952 10.596-32.275-0-57.347-7.764-114.5-21.151-170.26" fill="none"/> <path d="m2210.1 1998c98.287-134.42 190.81-273.26 288.1-408.47" fill="none"/> <path d="m2175.6 1937.5c46.581-78.026 393.19-577.74 394.93-606.34 7.142-117.52-191.91-199.5-164.77-352.5 27.168-153.19 132.9-207.29 206.69-320.69 35.756-54.948-79.101-244.11-112.49-286.8" fill="none"/> <path d="m2500 1855.3c-51.63 59.307-133.72 127.6-173.56 195.19-2.426 4.116 8.323-4.695 12.422-7.148 13.725-8.214 27.386-16.55 41.086-24.807 32.741-19.731 81.935-68.179 120.05-74.142 1.056-0.165 23.012 73.605 26.711 76.85 82.176 72.108-49.306 96.311-61.886 179.4-0.399 2.637 26.488 82.871 26.199 82.835-45.881-5.701-137.67-130.33-152.33-125.48-1.261 0.417 10.235 37.101 11.659 41.444 34.4 104.93 98.454 202.96 149.64 300.53" fill="#fff"/> <path d="m3343.7 1756.7c-5.225-43.641-16.55-86.911-22.549-130.46-2.776-20.151-10.427-43.617-9.513-64.058 0.039-0.866 14.359 3.741 16.023 4.713 12.39 7.241 23.258 16.306 32.921 26.897 3.579 3.922 6.809 8.092 10.111 12.244 1.164 1.465 2.878 6.259 3.405 4.463 2.434-8.302-27.479-68.205-32.136-77.495-17.722-35.36-34.356-70.728-49.72-107.19-7.083-16.808-10.991-36.21-19.684-52.14-5.75-10.534-16.699-1.384-24.299-5.595-19.91-11.031-24.203-51.057-18.645-70.71 3.287-11.626 7.827-22.901 12.812-33.885 17.165-37.82 27.099 20.426 34.363 22.921 4.511 1.549 12.902-3.468 16.76-5.467 20.821-10.788 40.076-29.191 59.11-42.965 10.333-7.478 20.527-15.011 29.563-24.04 1.333-1.333 5.332-2.663 4.001-3.999-12.635-12.672-52.076 1.389-67.822 4.507-1.925 0.381-5.417 3.003-5.789 1.076-4.897-25.417 67.266-69.776 84.953-78.547 7.019-3.482 41.336-19.581 40.973-20.187-11.725-19.599-63.777 0.073-77.843-4.778-23.175-7.992 23.066-129.8 27.506-151.96" fill="none"/> <path d="m3929.6 1397c-3.755 12.685-5.808 25.58-7.024 38.741-0.372 4.035 2.242 14.622-0.944 12.119-26.463-20.792-40.404-62.963-56.511-91.564-5.43-9.642-10.181-19.5-15.137-29.384-3.051-6.085-8.027-15.402-8.038-15.102-1.665 48.457 28.684 100.37 43.54 145.46 4.963 15.066 10.798 29.761 16.744 44.458 1.673 4.137 3.37 8.25 5.087 12.371 0.81 1.94 4.48 5.374 2.426 5.823-13.928 3.042-99.303-123.66-106.66-124.3-3.484-0.302 0.722 6.963 1.288 10.414 1.737 10.581 4.429 20.83 7.746 31.028 13.378 41.119-164.47-68.373-143.66-30.573" fill="none"/> <path d="m3172.7 1756.7c-3.182-55.523-6.636-97.858-6.636-197.27-0-61.39-39.902-28.982-43.267-139.41" fill="none"/> <path d="m3407.2 1978.8c-87.748-10.655-209.64-75.31-297.31-86.443-24.334-3.09-60.707-3.892-85.058-6.853-6.846-0.833-100-25.924-94.549-30.145 57.676-44.628 216.54-68.795 281-102.5 49.234-25.742 103.55-19.923 147.95 16.035 90.079 72.949 573.62 96.528 628.67 198.39 115.62 213.92 7.489-117.79 12.857-140.84 17.726-76.125-91.192-505.2-86.27-537.11 0.233-1.511 32.209 47.363 32.616 50.178 16.639 115.3 307.29 26.742 396.52 96.102" fill="none"/> <path d="m2500 527.5s137.95 180.35 0 171.52" fill="none"/> <path d="m2500 876.5s-14.466 34.876-25.403 51.929c-2.253 3.512-12.118 14.226-11.931 19.372 0.431 11.831 14.198 21.013 22.673 27.279 11.88 8.783 24.334 16.91 37.058 24.409 1.315 0.774 11.467 5.323 11.885 7.197 1.778 7.967-10.07 19.787-15.523 25.475-13.936 14.533-30.204 27.512-43.405 42.626-4.099 4.693 19.378 23.435 24.206 26.432" fill="none"/> <path d="m3502.4 1986c2.991 53.003 8.398 105.22 14.548 157.92 0.817 6.999-15.002-23.363-16.793-26.611-12.697-23.018-24.074-46.59-35.522-70.246-1.676-3.464-2.53 7.272-3.637 10.958-2.968 9.885-5.295 20.079-7.052 30.254-5.416 31.366-7.546 63.216-8.863 94.987-0.386 9.32-0.689 18.643-0.94 27.967-0.145 5.401 3.472 19.978-0.394 16.204-12.823-12.516-21.326-34.057-27.327-50.615-33.093-91.319 3.239 84.526-9.928 102.39-1.199 1.627-55.856-42.903-59.286-45.68" fill="none"/> <path d="m3067.4 1800c2.012-33.7 1.706-65.454 2.145-99.206 0.191-14.665 0.32-29.33 0.415-43.996 0.121-18.641 0.691-37.364 0.252-55.999-0.136-5.795-7.717 8.654-11.462 13.078-6.203 7.327-11.669 15.177-17.242 22.986-17.195 24.093-28.119 64.612-49.596 84.026-2.345 2.119-8.969-54.748-9.349-56.85" fill="none"/> <path d="m3239.4 1736.7c0-70.455 6.335-138.87 11.761-208.99 0.378-4.887 5.649-80.76 4.14-80.89-19.536-1.689-46.972 28.136-61.224 37.349-9.509 6.147-10.596-20.952-10.596-32.275 0-57.347 7.764-114.5 21.151-170.26" fill="none"/> <path d="m2789.9 1998c-98.287-134.42-190.81-273.26-288.1-408.47" fill="none"/> <path d="m2824.4 1937.5c-46.581-78.026-393.19-577.74-394.93-606.34-7.142-117.52 191.91-199.5 164.77-352.5-27.168-153.19-132.9-207.29-206.69-320.69-35.756-54.948 79.101-244.11 112.49-286.8" fill="none"/> <path d="m3058.3 2177.7c-25.547 74.366-43.649 179.6-82.258 247.9-2.351 4.158-0.095-9.556-0.02-14.332 0.25-15.994 0.639-31.992 0.94-47.985 0.717-38.22 18.078-105.05 4.183-141.04-0.385-0.998-75.249 16.873-79.909 15.292-103.54-35.112-58.755 90.856-124.42 143.29-2.084 1.665-85.012 18.497-84.836 18.729 27.877 36.884 181.7 54.059 184.84 69.176 0.27 1.301-37.248 9.687-41.721 10.626-108.07 22.674-224.99 16.215-335.09 20.671" fill="#fff"/> <path d="m2721.9 1397.6c40.407-17.296 83.543-29.124 124.25-45.701 18.838-7.671 42.986-12.778 60.232-23.791 0.73-0.466-10.419-10.564-12.094-11.519-12.466-7.11-25.75-11.99-39.753-15.062-5.187-1.138-10.413-1.851-15.659-2.634-1.851-0.277-6.86 0.636-5.568-0.717 5.973-6.26 72.807-10.306 83.181-10.918 39.483-2.332 78.43-5.611 117.69-10.535 18.098-2.27 36.855-8.587 54.996-9.023 11.998-0.288 9.548 13.77 16.996 18.246 19.507 11.727 56.318-4.568 70.559-19.208 8.424-8.66 15.919-18.228 22.939-28.038 24.17-33.775-31.239-13.255-37.031-18.299-3.598-3.132-3.448-12.907-3.646-17.248-1.068-23.426 5.242-49.302 7.654-72.673 1.31-12.688 2.736-25.282 6.038-37.622 0.487-1.822-0.36-5.95 1.462-5.465 17.292 4.606 24.835 45.794 30.008 60.989 0.633 1.858 0.108 6.194 1.962 5.551 24.461-8.467 26.795-93.141 25.548-112.84-0.495-7.82-3.711-45.589-3.004-45.578 22.835 0.355 31.825 55.27 43.059 65.025 18.509 16.074 100.88-84.876 117.85-99.798" fill="none"/> <path d="m2740.4 710.47c-9.109 9.595-19.25 17.821-30.039 25.454-3.308 2.339-13.784 5.369-10.023 6.876 31.237 12.523 74.729 3.51 107.55 3.159 11.065-0.119 21.978-0.933 33.016-1.583 6.795-0.4 17.351-0.749 17.097-0.591-41.132 25.671-101.26 25.345-147.74 35.026-15.528 3.234-31.172 5.528-46.873 7.728-4.419 0.619-8.83 1.207-13.257 1.779-2.086 0.27-6.894-1.192-6.256 0.812 4.329 13.582 156.75 24.168 160.98 30.219 2.004 2.867-6.39 2.857-9.662 4.092-10.031 3.786-20.254 6.58-30.744 8.805-42.299 8.974 141.45 108.25 98.307 109.13" fill="none"/> <path d="m2807.4 1545.7c49.676-25.006 88.067-43.183 174.16-92.887 53.165-30.695 45.05 20.065 142.37-32.235" fill="none"/> <path d="m2497.8 1453.7c53.102 70.664 170.04 143.9 223.52 214.26 14.844 19.529 33.725 50.628 48.465 70.236 4.144 5.513 72.453 73.644 73.381 66.81 9.811-72.264-48.692-221.93-51.734-294.6-2.323-55.509-34.519-99.636-87.862-120.11-108.21-41.536-370.4-448.5-486.14-445.25-243.08 6.829 98.266-65.382 115.55-81.557 57.063-53.413 483.11-173.63 508.29-193.84 1.192-0.958-57.123-4.213-59.763-3.158-108.17 43.238-176.81-252.75-281.49-295.34" fill="none"/> <path d="m4208.2 1513.8s-225.16-29.296-148.54 85.758" fill="none"/> <path d="m3906 1688.2s-22.97 29.966-32.27 47.964c-1.915 3.707-6.261 17.608-10.812 20.019-10.461 5.542-25.296-1.79-34.96-5.996-13.547-5.897-26.812-12.619-39.668-19.889-1.328-0.751-10.343-7.269-12.175-6.694-7.789 2.444-12.102 18.614-14.3 26.181-5.619 19.335-8.725 39.913-15.213 58.903-2.014 5.896-29.985-5.065-34.995-7.748" fill="none"/> <path d="m2443.9 1374.9c-47.398 23.911-95.326 45.339-144.03 66.358-6.47 2.792 27.734 1.311 31.443 1.238 26.283-0.513 52.385-2.446 78.595-4.36 3.838-0.281-5.033 5.827-7.672 8.629-7.076 7.513-14.74 14.625-22.674 21.234-24.456 20.374-50.974 38.143-77.83 55.169-7.878 4.994-15.8 9.918-23.75 14.798-4.604 2.826-19.037 6.982-13.835 8.443 17.25 4.846 40.156 1.441 57.497-1.642 95.631-17-74.821 39.458-83.706 59.791-0.809 1.853 65.083 26.922 69.203 28.503" fill="none"/> <path d="m2822.5 1658.6c28.179-18.592 55.832-34.205 84.843-51.461 12.604-7.497 25.24-14.942 37.893-22.357 16.084-9.426 32.013-19.28 48.371-28.218 5.087-2.779-3.636 11.01-5.595 16.466-3.244 9.035-7.309 17.693-11.285 26.425-12.268 26.937-41.897 56.657-47.97 84.964-0.663 3.091 51.897-19.607 53.907-20.329" fill="none"/> <path d="m2791.4 1478c61.016-35.228 117.1-74.923 175.11-114.68 4.043-2.771 67.115-45.272 67.983-44.03 11.231 16.075-0.88 54.746-1.733 71.696-0.57 11.309 23.443-1.3 33.249-6.962 49.664-28.673 95.275-63.971 136.87-103.45" fill="none"/> <path d="m2789.8 1998c165.55 17.911 332.05 28.619 497.8 45.264" fill="none"/> <path d="m2825 1937.8c90.863 1.327 696.93 51.65 722.58 38.852 105.35-52.577 76.819-265.95 222.88-318.95 146.25-53.064 245.96 11.448 381.08 18.655 65.464 3.492 171.86-190.56 192.14-240.82" fill="none"/> <path d="m3058.3 2177.7c-77.177-15.06-177.36-52-255.82-52.713-4.777-0.043 8.227 4.861 12.402 7.184 13.975 7.78 28.025 15.442 42.026 23.178 33.458 18.489 100.01 36.868 124.23 66.896 0.672 0.832-52.237 56.731-53.198 61.557-21.359 107.22-108.06 5.455-186.31 36.105-2.483 0.973-58.524 64.375-58.638 64.106-18.003-42.584 44.037-184.39 32.51-194.66-0.992-0.884-27.013 27.414-30.062 30.818-73.674 82.258-126.54 186.74-185.45 279.86" fill="#fff"/> <path d="m3565.6 2859c35.182-26.346 66.993-57.789 101.7-84.756 16.062-12.48 32.559-30.839 50.719-40.268 0.769-0.399 3.939 14.306 3.929 16.233-0.075 14.351-2.491 28.295-6.832 41.959-1.608 5.061-3.604 9.943-5.548 14.878-0.687 1.741-3.982 5.623-2.163 5.181 8.407-2.043 45.328-57.9 51.045-66.578 21.761-33.028 44.074-65.118 67.967-96.653 11.015-14.538 25.864-27.624 35.312-43.117 6.249-10.246-7.151-15.154-7.304-23.841-0.401-22.758 32.116-46.489 51.915-51.502 11.711-2.966 23.746-4.672 35.751-5.847 41.336-4.044-4.14 33.681-2.669 41.22 0.914 4.681 9.455 9.439 13.115 11.781 19.754 12.637 45.318 20.111 66.764 29.708 11.643 5.209 23.263 10.271 35.6 13.582 1.821 0.489 4.973 3.287 5.464 1.466 4.657-17.279-27.24-44.405-37.814-56.482-1.293-1.477-5.31-3.19-3.826-4.475 19.563-16.95 94.06 23.365 110.5 34.297 6.525 4.338 37.625 26.008 37.969 25.39 11.11-19.953-31.952-55.196-34.784-69.802-4.666-24.067 123.94-44.926 145.35-52.158" fill="none"/> <path d="m4170 3186.5c-12.863 3.09-25.058 7.76-37.063 13.288-3.68 1.694-11.542 9.252-10.967 5.241 4.774-33.313 34.325-66.472 51.041-94.722 5.635-9.523 11.796-18.567 17.878-27.801 3.745-5.685 9.325-14.652 9.061-14.512-42.798 22.787-72.583 75.026-104.21 110.44-10.565 11.831-20.374 24.232-30.129 36.73-2.746 3.517-5.46 7.043-8.17 10.591-1.276 1.671-2.415 6.567-3.83 5.012-9.598-10.54 57.443-147.83 54.317-154.52-1.48-3.169-5.668 4.106-8.374 6.322-8.295 6.794-15.825 14.251-22.998 22.223-28.921 32.145-23.023-176.62-45.353-139.7" fill="none"/> <path d="m3480.1 2710.9c46.494-30.517 81.43-54.676 167.52-104.38 53.165-30.695 5.148-49.047 99.1-107.18" fill="none"/> <path d="m3405 3025c-34.646-81.319-39.598-219.2-73.793-300.7-9.492-22.619-26.983-54.521-36.594-77.089-2.702-6.345-27.551-99.568-21.169-96.955 67.488 27.635 167.85 153.13 229.27 192.1 46.91 29.767 69.028 79.713 60.088 136.15-18.136 114.48 203.21 545.03 142.53 643.64-127.45 207.1 105.76-52.409 128.4-59.287 74.789-22.712 391.92-331.58 422.02-343.27 1.425-0.554-24.913 51.576-27.148 53.335-91.529 72.058 130.49 279.49 115.03 391.44" fill="none"/> <path d="m4208.2 1513.8s-87.211 209.65-148.54 85.758" fill="none"/> <path d="m3906 1688.2s-37.436 4.91-57.673 3.965c-4.168-0.195-18.379-3.382-22.742-0.646-10.03 6.288-11.099 22.802-12.288 33.274-1.667 14.68-2.478 29.529-2.609 44.298-0.014 1.526 1.123 12.591-0.291 13.891-6.011 5.523-22.171 1.173-29.824-0.706-19.554-4.802-38.928-12.401-58.617-16.277-6.114-1.203-10.607 28.5-10.788 34.18" fill="none"/> <path d="m3446.3 3111.1c-44.407 29.092-86.928 59.884-129.48 91.557-5.653 4.207 12.732-24.674 14.65-27.85 13.585-22.505 28.31-44.143 43.073-65.885 2.162-3.184-7.563 1.445-11.308 2.33-10.045 2.372-20.037 5.453-29.727 9.019-29.872 10.993-58.519 25.073-86.692 39.818-8.265 4.325-16.49 8.724-24.691 13.169-4.75 2.575-15.565 12.996-14.23 7.761 4.429-17.363 18.831-35.498 30.171-48.973 62.538-74.319-71.582 45.068-93.634 42.595-2.008-0.225 9.227-69.824 9.917-74.183" fill="none"/> <path d="m3389.9 2641.4c30.19-15.108 57.537-31.25 86.987-47.745 12.795-7.168 25.561-14.388 38.309-21.639 16.204-9.216 32.703-18.084 48.622-27.781 4.951-3.015-11.353-2.356-17.057-3.388-9.446-1.708-18.977-2.517-28.527-3.439-29.463-2.844-70.015 7.955-97.566-0.938-3.009-0.971 42.928-35.142 44.558-36.521" fill="none"/> <path d="m3530.8 2758.7c61.016-35.227 123.44-63.95 186.87-94.31 4.422-2.116 72.765-35.488 72.123-36.86-8.306-17.763-47.852-26.611-62.957-34.347-10.079-5.161 12.847-19.652 22.653-25.314 49.664-28.673 103.04-50.524 158.02-66.812" fill="none"/> <path d="m3079.7 2500c67.266-152.33 141.24-301.87 209.7-453.74" fill="none"/> <path d="m3149.3 2499.7c44.282-79.353 303.74-629.38 327.64-645.19 98.207-64.947 268.73 66.447 387.66-33.549 119.08-100.12 113.07-218.73 174.38-339.35 29.708-58.44 250.96-53.552 304.62-45.986" fill="none"/> <path d="m3058.3 2822.3c-77.177 15.06-177.36 52-255.82 52.713-4.777 0.043 8.227-4.861 12.402-7.184 13.975-7.78 28.025-15.442 42.026-23.178 33.458-18.489 100.01-36.868 124.23-66.896 0.672-0.832-52.237-56.731-53.198-61.557-21.359-107.22-108.06-5.455-186.31-36.105-2.483-0.973-58.524-64.375-58.638-64.106-18.003 42.584 44.037 184.39 32.51 194.66-0.992 0.884-27.013-27.414-30.062-30.818-73.674-82.258-126.54-186.74-185.45-279.86" fill="#fff"/> <path d="m3565.6 2141c35.182 26.346 66.993 57.789 101.7 84.756 16.062 12.48 32.559 30.839 50.719 40.268 0.769 0.399 3.939-14.306 3.929-16.233-0.075-14.351-2.491-28.295-6.832-41.959-1.608-5.061-3.604-9.943-5.548-14.878-0.687-1.741-3.982-5.623-2.163-5.181 8.407 2.043 45.328 57.9 51.045 66.578 21.761 33.028 44.074 65.118 67.967 96.653 11.015 14.538 25.864 27.624 35.312 43.117 6.249 10.246-7.151 15.154-7.304 23.841-0.401 22.758 32.116 46.489 51.915 51.502 11.711 2.966 23.746 4.672 35.751 5.847 41.336 4.044-4.14-33.681-2.669-41.22 0.914-4.681 9.455-9.439 13.115-11.781 19.754-12.637 45.318-20.111 66.764-29.708 11.643-5.209 23.263-10.271 35.6-13.582 1.821-0.489 4.973-3.287 5.464-1.466 4.657 17.279-27.24 44.405-37.814 56.482-1.293 1.477-5.31 3.19-3.826 4.475 19.563 16.95 94.06-23.365 110.5-34.297 6.525-4.338 37.625-26.008 37.969-25.39 11.11 19.953-31.952 55.196-34.784 69.802-4.666 24.067 123.94 44.926 145.35 52.158" fill="none"/> <path d="m4170 1813.5c-12.863-3.09-25.058-7.76-37.063-13.288-3.68-1.694-11.542-9.252-10.967-5.241 4.774 33.313 34.325 66.472 51.041 94.722 5.635 9.523 11.796 18.567 17.878 27.801 3.745 5.685 9.325 14.652 9.061 14.512-42.798-22.787-72.583-75.026-104.21-110.44-10.565-11.831-20.374-24.232-30.129-36.73-2.746-3.517-5.46-7.043-8.17-10.591-1.276-1.671-2.415-6.567-3.83-5.012-9.598 10.54 57.443 147.83 54.317 154.52-1.48 3.169-5.668-4.106-8.374-6.322-8.295-6.794-15.825-14.251-22.998-22.223-28.921-32.145-23.023 176.62-45.353 139.7" fill="none"/> <path d="m3480.1 2289.1c46.494 30.517 81.43 54.676 167.52 104.38 53.165 30.695 5.148 49.047 99.1 107.18" fill="none"/> <path d="m3405 1975c-34.646 81.319-39.598 219.2-73.793 300.7-9.492 22.619-26.983 54.521-36.594 77.089-2.702 6.345-27.551 99.568-21.169 96.955 67.488-27.635 167.85-153.13 229.27-192.1 46.91-29.767 69.028-79.713 60.088-136.15-18.136-114.48 203.21-545.03 142.53-643.64-127.45-207.1 105.76 52.409 128.4 59.287 74.789 22.712 391.92 331.58 422.02 343.27 1.425 0.554-24.913-51.576-27.148-53.335-91.529-72.058 130.49-279.49 115.03-391.44" fill="none"/> <path d="m4208.2 3486.2s-87.211-209.65-148.54-85.758" fill="none"/> <path d="m3906 3311.8s-37.436-4.91-57.673-3.965c-4.168 0.195-18.379 3.382-22.742 0.646-10.03-6.288-11.099-22.802-12.288-33.274-1.667-14.68-2.478-29.529-2.609-44.298-0.014-1.526 1.123-12.591-0.291-13.891-6.011-5.523-22.171-1.173-29.824 0.706-19.554 4.802-38.928 12.401-58.617 16.277-6.114 1.203-10.607-28.5-10.788-34.18" fill="none"/> <path d="m3446.3 1888.9c-44.407-29.092-86.928-59.884-129.48-91.557-5.653-4.207 12.732 24.674 14.65 27.85 13.585 22.505 28.31 44.143 43.073 65.885 2.162 3.184-7.563-1.445-11.308-2.33-10.045-2.372-20.037-5.453-29.727-9.019-29.872-10.993-58.519-25.073-86.692-39.818-8.265-4.325-16.49-8.724-24.691-13.169-4.75-2.575-15.565-12.996-14.23-7.761 4.429 17.363 18.831 35.498 30.171 48.973 62.538 74.319-71.582-45.068-93.634-42.595-2.008 0.225 9.227 69.824 9.917 74.183" fill="none"/> <path d="m3389.9 2358.6c30.19 15.108 57.537 31.25 86.987 47.745 12.795 7.168 25.561 14.388 38.309 21.639 16.204 9.216 32.703 18.084 48.622 27.781 4.951 3.015-11.353 2.356-17.057 3.388-9.446 1.708-18.977 2.517-28.527 3.439-29.463 2.844-70.015-7.955-97.566 0.938-3.009 0.971 42.928 35.142 44.558 36.521" fill="none"/> <path d="m3530.8 2241.3c61.016 35.227 123.44 63.95 186.87 94.31 4.422 2.116 72.765 35.488 72.123 36.86-8.306 17.763-47.852 26.611-62.957 34.347-10.079 5.161 12.847 19.652 22.653 25.314 49.664 28.673 103.04 50.524 158.02 66.812" fill="none"/> <path d="m3079.7 2500c67.266 152.33 141.24 301.87 209.7 453.74" fill="none"/> <path d="m3149.3 2500.3c44.282 79.353 303.74 629.38 327.64 645.19 98.207 64.947 268.73-66.447 387.66 33.549 119.08 100.12 113.07 218.73 174.38 339.35 29.708 58.44 250.96 53.552 304.62 45.986" fill="none"/> <path d="m3058.3 2822.3c-25.547-74.366-43.649-179.6-82.258-247.9-2.351-4.158-0.095 9.556-0.02 14.332 0.25 15.994 0.639 31.992 0.94 47.985 0.717 38.22 18.078 105.05 4.183 141.04-0.385 0.998-75.249-16.873-79.909-15.292-103.54 35.112-58.755-90.856-124.42-143.29-2.084-1.665-85.012-18.497-84.836-18.729 27.877-36.884 181.7-54.059 184.84-69.176 0.27-1.301-37.248-9.687-41.721-10.626-108.07-22.674-224.99-16.215-335.09-20.671" fill="#fff"/> <path d="m2721.9 3602.4c40.407 17.296 83.543 29.124 124.25 45.701 18.838 7.671 42.986 12.778 60.232 23.791 0.73 0.466-10.419 10.564-12.094 11.519-12.466 7.11-25.75 11.99-39.753 15.062-5.187 1.138-10.413 1.851-15.659 2.634-1.851 0.277-6.86-0.636-5.568 0.717 5.973 6.26 72.807 10.306 83.181 10.918 39.483 2.332 78.43 5.611 117.69 10.535 18.098 2.27 36.855 8.587 54.996 9.023 11.998 0.288 9.548-13.77 16.996-18.246 19.507-11.727 56.318 4.568 70.559 19.208 8.424 8.66 15.919 18.228 22.939 28.038 24.17 33.775-31.239 13.255-37.031 18.299-3.598 3.132-3.448 12.907-3.646 17.248-1.068 23.426 5.242 49.302 7.654 72.673 1.31 12.688 2.736 25.282 6.038 37.622 0.487 1.822-0.36 5.95 1.462 5.465 17.292-4.606 24.835-45.794 30.008-60.989 0.633-1.858 0.108-6.194 1.962-5.551 24.461 8.467 26.795 93.141 25.548 112.84-0.495 7.82-3.711 45.589-3.004 45.578 22.835-0.355 31.825-55.27 43.059-65.025 18.509-16.074 100.88 84.876 117.85 99.798" fill="none"/> <path d="m2740.4 4289.5c-9.109-9.595-19.25-17.821-30.039-25.454-3.308-2.339-13.784-5.369-10.023-6.876 31.237-12.523 74.729-3.51 107.55-3.159 11.065 0.119 21.978 0.933 33.016 1.583 6.795 0.4 17.351 0.749 17.097 0.591-41.132-25.671-101.26-25.345-147.74-35.026-15.528-3.234-31.172-5.528-46.873-7.728-4.419-0.619-8.83-1.207-13.257-1.779-2.086-0.27-6.894 1.192-6.256-0.812 4.329-13.582 156.75-24.168 160.98-30.219 2.004-2.867-6.39-2.857-9.662-4.092-10.031-3.786-20.254-6.58-30.744-8.805-42.299-8.974 141.45-108.25 98.307-109.13" fill="none"/> <path d="m2807.4 3454.3c49.676 25.006 88.067 43.183 174.16 92.887 53.165 30.695 45.05-20.065 142.37 32.235" fill="none"/> <path d="m2497.8 3546.3c53.102-70.664 170.04-143.9 223.52-214.26 14.844-19.529 33.725-50.628 48.465-70.236 4.144-5.513 72.453-73.644 73.381-66.81 9.811 72.264-48.692 221.93-51.734 294.6-2.323 55.509-34.519 99.636-87.862 120.11-108.21 41.536-370.4 448.5-486.14 445.25-243.08-6.829 98.266 65.382 115.55 81.557 57.063 53.413 483.11 173.63 508.29 193.84 1.192 0.958-57.123 4.213-59.763 3.158-108.17-43.238-176.81 252.75-281.49 295.34" fill="none"/> <path d="m4208.2 3486.2s-225.16 29.296-148.54-85.758" fill="none"/> <path d="m3906 3311.8s-22.97-29.966-32.27-47.964c-1.915-3.707-6.261-17.608-10.812-20.019-10.461-5.542-25.296 1.79-34.96 5.996-13.547 5.897-26.812 12.619-39.668 19.889-1.328 0.751-10.343 7.269-12.175 6.694-7.789-2.444-12.102-18.614-14.3-26.181-5.619-19.335-8.725-39.913-15.213-58.903-2.014-5.896-29.985 5.065-34.995 7.748" fill="none"/> <path d="m2443.9 3625.1c-47.398-23.911-95.326-45.339-144.03-66.358-6.47-2.792 27.734-1.311 31.443-1.238 26.283 0.513 52.385 2.446 78.595 4.36 3.838 0.281-5.033-5.827-7.672-8.629-7.076-7.513-14.74-14.625-22.674-21.234-24.456-20.374-50.974-38.143-77.83-55.169-7.878-4.994-15.8-9.918-23.75-14.798-4.604-2.826-19.037-6.982-13.835-8.443 17.25-4.846 40.156-1.441 57.497 1.642 95.631 17-74.821-39.458-83.706-59.791-0.809-1.853 65.083-26.922 69.203-28.503" fill="none"/> <path d="m2822.5 3341.4c28.179 18.592 55.832 34.205 84.843 51.461 12.604 7.497 25.24 14.942 37.893 22.357 16.084 9.426 32.013 19.28 48.371 28.218 5.087 2.779-3.636-11.01-5.595-16.466-3.244-9.035-7.309-17.693-11.285-26.425-12.268-26.937-41.897-56.657-47.97-84.964-0.663-3.091 51.897 19.607 53.907 20.329" fill="none"/> <path d="m2791.4 3522c61.016 35.228 117.1 74.923 175.11 114.68 4.043 2.771 67.115 45.272 67.983 44.03 11.231-16.075-0.88-54.746-1.733-71.696-0.57-11.309 23.443 1.3 33.249 6.962 49.664 28.673 95.275 63.971 136.87 103.45" fill="none"/> <path d="m2789.8 3002c165.55-17.911 332.05-28.619 497.8-45.264" fill="none"/> <path d="m2825 3062.2c90.863-1.327 696.93-51.65 722.58-38.852 105.35 52.577 76.819 265.95 222.88 318.95 146.25 53.064 245.96-11.448 381.08-18.655 65.464-3.492 171.86 190.56 192.14 240.82" fill="none"/> <path d="m2500 3144.7c-51.63-59.307-133.72-127.6-173.56-195.19-2.426-4.116 8.323 4.695 12.422 7.148 13.725 8.214 27.386 16.55 41.086 24.807 32.741 19.731 81.935 68.179 120.05 74.142 1.056 0.165 23.012-73.605 26.711-76.85 82.176-72.108-49.306-96.311-61.886-179.4-0.399-2.637 26.488-82.871 26.199-82.835-45.881 5.701-137.67 130.33-152.33 125.48-1.261-0.417 10.235-37.101 11.659-41.444 34.4-104.93 98.454-202.96 149.64-300.53" fill="#fff"/> <path d="m3343.7 3243.3c-5.225 43.641-16.55 86.911-22.549 130.46-2.776 20.151-10.427 43.617-9.513 64.058 0.039 0.866 14.359-3.741 16.023-4.713 12.39-7.241 23.258-16.306 32.921-26.897 3.579-3.922 6.809-8.092 10.111-12.244 1.164-1.465 2.878-6.259 3.405-4.463 2.434 8.302-27.479 68.205-32.136 77.495-17.722 35.36-34.356 70.728-49.72 107.19-7.083 16.808-10.991 36.21-19.684 52.14-5.75 10.534-16.699 1.384-24.299 5.595-19.91 11.031-24.203 51.057-18.645 70.71 3.287 11.626 7.827 22.901 12.812 33.885 17.165 37.82 27.099-20.426 34.363-22.921 4.511-1.549 12.902 3.468 16.76 5.467 20.821 10.788 40.076 29.191 59.11 42.965 10.333 7.478 20.527 15.011 29.563 24.04 1.333 1.333 5.332 2.663 4.001 3.999-12.635 12.672-52.076-1.389-67.822-4.507-1.925-0.381-5.417-3.003-5.789-1.076-4.897 25.417 67.266 69.776 84.953 78.547 7.019 3.482 41.336 19.581 40.973 20.187-11.725 19.599-63.777-0.073-77.843 4.778-23.175 7.992 23.066 129.8 27.506 151.96" fill="none"/> <path d="m3929.6 3603c-3.755-12.685-5.808-25.58-7.024-38.741-0.372-4.035 2.242-14.622-0.944-12.119-26.463 20.792-40.404 62.963-56.511 91.564-5.43 9.642-10.181 19.5-15.137 29.384-3.051 6.085-8.027 15.402-8.038 15.102-1.665-48.457 28.684-100.37 43.54-145.46 4.963-15.066 10.798-29.761 16.744-44.458 1.673-4.137 3.37-8.25 5.087-12.371 0.81-1.94 4.48-5.374 2.426-5.823-13.928-3.042-99.303 123.66-106.66 124.3-3.484 0.302 0.722-6.963 1.288-10.414 1.737-10.581 4.429-20.83 7.746-31.028 13.378-41.119-164.47 68.373-143.66 30.573" fill="none"/> <path d="m3172.7 3243.3c-3.182 55.523-6.636 97.858-6.636 197.27-0 61.39-39.902 28.982-43.267 139.41" fill="none"/> <path d="m3407.2 3021.2c-87.748 10.655-209.64 75.31-297.31 86.443-24.334 3.09-60.707 3.892-85.058 6.853-6.846 0.833-100 25.924-94.549 30.145 57.676 44.628 216.54 68.795 281 102.5 49.234 25.742 103.55 19.923 147.95-16.035 90.079-72.949 573.62-96.528 628.67-198.39 115.62-213.92 7.489 117.79 12.857 140.84 17.726 76.125-91.192 505.2-86.27 537.11 0.233 1.511 32.209-47.363 32.616-50.178 16.639-115.3 307.29-26.742 396.52-96.102" fill="none"/> <path d="m2500 4472.5s137.95-180.35 0-171.52" fill="none"/> <path d="m2500 4123.5s-14.466-34.876-25.403-51.929c-2.253-3.512-12.118-14.226-11.931-19.372 0.431-11.831 14.198-21.013 22.673-27.279 11.88-8.783 24.334-16.91 37.058-24.409 1.315-0.774 11.467-5.323 11.885-7.197 1.778-7.967-10.07-19.787-15.523-25.475-13.936-14.533-30.204-27.512-43.405-42.626-4.099-4.693 19.378-23.435 24.206-26.432" fill="none"/> <path d="m3502.4 3014c2.991-53.003 8.398-105.22 14.548-157.92 0.817-6.999-15.002 23.363-16.793 26.611-12.697 23.018-24.074 46.59-35.522 70.246-1.676 3.464-2.53-7.272-3.637-10.958-2.968-9.885-5.295-20.079-7.052-30.254-5.416-31.366-7.546-63.216-8.863-94.987-0.386-9.32-0.689-18.643-0.94-27.967-0.145-5.401 3.472-19.978-0.394-16.204-12.823 12.516-21.326 34.057-27.327 50.615-33.093 91.319 3.239-84.526-9.928-102.39-1.199-1.627-55.856 42.903-59.286 45.68" fill="none"/> <path d="m3067.4 3200c2.012 33.7 1.706 65.454 2.145 99.206 0.191 14.665 0.32 29.33 0.415 43.996 0.121 18.641 0.691 37.364 0.252 55.999-0.136 5.795-7.717-8.654-11.462-13.078-6.203-7.327-11.669-15.177-17.242-22.986-17.195-24.093-28.119-64.612-49.596-84.026-2.345-2.119-8.969 54.748-9.349 56.85" fill="none"/> <path d="m3239.4 3263.3c0 70.455 6.335 138.87 11.761 208.99 0.378 4.887 5.649 80.76 4.14 80.89-19.536 1.689-46.972-28.136-61.224-37.349-9.509-6.147-10.596 20.952-10.596 32.275 0 57.347 7.764 114.5 21.151 170.26" fill="none"/> <path d="m2789.9 3002c-98.287 134.42-190.81 273.26-288.1 408.47" fill="none"/> <path d="m2824.4 3062.5c-46.581 78.026-393.19 577.74-394.93 606.34-7.142 117.52 191.91 199.5 164.77 352.5-27.168 153.19-132.9 207.29-206.69 320.69-35.756 54.948 79.101 244.11 112.49 286.8" fill="none"/> <path d="m2500 3144.7c51.63-59.307 133.72-127.6 173.56-195.19 2.426-4.116-8.323 4.695-12.422 7.148-13.725 8.214-27.386 16.55-41.086 24.807-32.741 19.731-81.935 68.179-120.05 74.142-1.056 0.165-23.012-73.605-26.711-76.85-82.176-72.108 49.306-96.311 61.886-179.4 0.399-2.637-26.488-82.871-26.199-82.835 45.881 5.701 137.67 130.33 152.33 125.48 1.261-0.417-10.235-37.101-11.659-41.444-34.4-104.93-98.454-202.96-149.64-300.53" fill="#fff"/> <path d="m1656.3 3243.3c5.225 43.641 16.55 86.911 22.549 130.46 2.776 20.151 10.427 43.617 9.513 64.058-0.039 0.866-14.359-3.741-16.023-4.713-12.39-7.241-23.258-16.306-32.921-26.897-3.579-3.922-6.809-8.092-10.111-12.244-1.164-1.465-2.878-6.259-3.405-4.463-2.434 8.302 27.479 68.205 32.136 77.495 17.722 35.36 34.356 70.728 49.72 107.19 7.083 16.808 10.991 36.21 19.684 52.14 5.75 10.534 16.699 1.384 24.299 5.595 19.91 11.031 24.203 51.057 18.645 70.71-3.287 11.626-7.827 22.901-12.812 33.885-17.165 37.82-27.099-20.426-34.363-22.921-4.511-1.549-12.902 3.468-16.76 5.467-20.821 10.788-40.076 29.191-59.11 42.965-10.333 7.478-20.527 15.011-29.563 24.04-1.333 1.333-5.332 2.663-4.001 3.999 12.635 12.672 52.076-1.389 67.822-4.507 1.925-0.381 5.417-3.003 5.789-1.076 4.897 25.417-67.266 69.776-84.953 78.547-7.019 3.482-41.336 19.581-40.973 20.187 11.725 19.599 63.777-0.073 77.843 4.778 23.175 7.992-23.066 129.8-27.506 151.96" fill="none"/> <path d="m1070.4 3603c3.755-12.685 5.808-25.58 7.024-38.741 0.372-4.035-2.242-14.622 0.944-12.119 26.463 20.792 40.404 62.963 56.511 91.564 5.43 9.642 10.181 19.5 15.137 29.384 3.051 6.085 8.027 15.402 8.038 15.102 1.665-48.457-28.684-100.37-43.54-145.46-4.963-15.066-10.798-29.761-16.744-44.458-1.673-4.137-3.37-8.25-5.087-12.371-0.81-1.94-4.48-5.374-2.426-5.823 13.928-3.042 99.303 123.66 106.66 124.3 3.484 0.302-0.722-6.963-1.288-10.414-1.737-10.581-4.429-20.83-7.746-31.028-13.378-41.119 164.47 68.373 143.66 30.573" fill="none"/> <path d="m1827.3 3243.3c3.182 55.523 6.636 97.858 6.636 197.27 0 61.39 39.902 28.982 43.267 139.41" fill="none"/> <path d="m1592.8 3021.2c87.748 10.655 209.64 75.31 297.31 86.443 24.334 3.09 60.707 3.892 85.058 6.853 6.846 0.833 100 25.924 94.549 30.145-57.676 44.628-216.54 68.795-281 102.5-49.234 25.742-103.55 19.923-147.95-16.035-90.079-72.949-573.62-96.528-628.67-198.39-115.62-213.92-7.489 117.79-12.857 140.84-17.726 76.125 91.192 505.2 86.27 537.11-0.233 1.511-32.209-47.363-32.616-50.178-16.639-115.3-307.29-26.742-396.52-96.102" fill="none"/> <path d="m2500 4472.5s-137.95-180.35-0-171.52" fill="none"/> <path d="m2500 4123.5s14.466-34.876 25.403-51.929c2.253-3.512 12.118-14.226 11.931-19.372-0.431-11.831-14.198-21.013-22.673-27.279-11.88-8.783-24.334-16.91-37.058-24.409-1.315-0.774-11.467-5.323-11.885-7.197-1.778-7.967 10.07-19.787 15.523-25.475 13.936-14.533 30.204-27.512 43.405-42.626 4.099-4.693-19.378-23.435-24.206-26.432" fill="none"/> <path d="m1497.6 3014c-2.991-53.003-8.398-105.22-14.548-157.92-0.817-6.999 15.002 23.363 16.793 26.611 12.697 23.018 24.074 46.59 35.522 70.246 1.676 3.464 2.53-7.272 3.637-10.958 2.968-9.885 5.295-20.079 7.052-30.254 5.416-31.366 7.546-63.216 8.863-94.987 0.386-9.32 0.689-18.643 0.94-27.967 0.145-5.401-3.472-19.978 0.394-16.204 12.823 12.516 21.326 34.057 27.327 50.615 33.093 91.319-3.239-84.526 9.928-102.39 1.199-1.627 55.856 42.903 59.286 45.68" fill="none"/> <path d="m1932.6 3200c-2.012 33.7-1.706 65.454-2.145 99.206-0.191 14.665-0.32 29.33-0.415 43.996-0.121 18.641-0.691 37.364-0.252 55.999 0.136 5.795 7.717-8.654 11.462-13.078 6.203-7.327 11.669-15.177 17.242-22.986 17.195-24.093 28.119-64.612 49.596-84.026 2.345-2.119 8.969 54.748 9.349 56.85" fill="none"/> <path d="m1760.6 3263.3c-0 70.455-6.335 138.87-11.761 208.99-0.378 4.887-5.649 80.76-4.14 80.89 19.536 1.689 46.972-28.136 61.224-37.349 9.509-6.147 10.596 20.952 10.596 32.275-0 57.347-7.764 114.5-21.151 170.26" fill="none"/> <path d="m2210.1 3002c98.287 134.42 190.81 273.26 288.1 408.47" fill="none"/> <path d="m2175.6 3062.5c46.581 78.026 393.19 577.74 394.93 606.34 7.142 117.52-191.91 199.5-164.77 352.5 27.168 153.19 132.9 207.29 206.69 320.69 35.756 54.948-79.101 244.11-112.49 286.8" fill="none"/> <path d="m1941.7 2822.3c25.547-74.366 43.649-179.6 82.258-247.9 2.351-4.158 0.095 9.556 0.02 14.332-0.25 15.994-0.639 31.992-0.94 47.985-0.717 38.22-18.078 105.05-4.183 141.04 0.385 0.998 75.249-16.873 79.909-15.292 103.54 35.112 58.755-90.856 124.42-143.29 2.084-1.665 85.012-18.497 84.836-18.729-27.877-36.884-181.7-54.059-184.84-69.176-0.27-1.301 37.248-9.687 41.721-10.626 108.07-22.674 224.99-16.215 335.09-20.671" fill="#fff"/> <path d="m2278.1 3602.4c-40.407 17.296-83.543 29.124-124.25 45.701-18.838 7.671-42.986 12.778-60.232 23.791-0.73 0.466 10.419 10.564 12.094 11.519 12.466 7.11 25.75 11.99 39.753 15.062 5.187 1.138 10.413 1.851 15.659 2.634 1.851 0.277 6.86-0.636 5.568 0.717-5.973 6.26-72.807 10.306-83.181 10.918-39.483 2.332-78.43 5.611-117.69 10.535-18.098 2.27-36.855 8.587-54.996 9.023-11.998 0.288-9.548-13.77-16.996-18.246-19.507-11.727-56.318 4.568-70.559 19.208-8.424 8.66-15.919 18.228-22.939 28.038-24.17 33.775 31.239 13.255 37.031 18.299 3.598 3.132 3.448 12.907 3.646 17.248 1.068 23.426-5.242 49.302-7.654 72.673-1.31 12.688-2.736 25.282-6.038 37.622-0.487 1.822 0.36 5.95-1.462 5.465-17.292-4.606-24.835-45.794-30.008-60.989-0.633-1.858-0.108-6.194-1.962-5.551-24.461 8.467-26.795 93.141-25.548 112.84 0.495 7.82 3.711 45.589 3.004 45.578-22.835-0.355-31.825-55.27-43.059-65.025-18.509-16.074-100.88 84.876-117.85 99.798" fill="none"/> <path d="m2259.6 4289.5c9.109-9.595 19.25-17.821 30.039-25.454 3.308-2.339 13.784-5.369 10.023-6.876-31.237-12.523-74.729-3.51-107.55-3.159-11.065 0.119-21.978 0.933-33.016 1.583-6.795 0.4-17.351 0.749-17.097 0.591 41.132-25.671 101.26-25.345 147.74-35.026 15.528-3.234 31.172-5.528 46.873-7.728 4.419-0.619 8.83-1.207 13.257-1.779 2.086-0.27 6.894 1.192 6.256-0.812-4.329-13.582-156.75-24.168-160.98-30.219-2.004-2.867 6.39-2.857 9.662-4.092 10.031-3.786 20.254-6.58 30.744-8.805 42.299-8.974-141.45-108.25-98.307-109.13" fill="none"/> <path d="m2192.6 3454.3c-49.676 25.006-88.067 43.183-174.16 92.887-53.165 30.695-45.05-20.065-142.37 32.235" fill="none"/> <path d="m2502.2 3546.3c-53.102-70.664-170.04-143.9-223.52-214.26-14.844-19.529-33.725-50.628-48.465-70.236-4.144-5.513-72.453-73.644-73.381-66.81-9.811 72.264 48.692 221.93 51.734 294.6 2.323 55.509 34.519 99.636 87.862 120.11 108.21 41.536 370.4 448.5 486.14 445.25 243.08-6.829-98.266 65.382-115.55 81.557-57.063 53.413-483.11 173.63-508.29 193.84-1.192 0.958 57.123 4.213 59.763 3.158 108.17-43.238 176.81 252.75 281.49 295.34" fill="none"/> <path d="m791.76 3486.2s225.16 29.296 148.54-85.758" fill="none"/> <path d="m1094 3311.8s22.97-29.966 32.27-47.964c1.915-3.707 6.261-17.608 10.812-20.019 10.461-5.542 25.296 1.79 34.96 5.996 13.547 5.897 26.812 12.619 39.668 19.889 1.328 0.751 10.343 7.269 12.175 6.694 7.789-2.444 12.102-18.614 14.3-26.181 5.619-19.335 8.725-39.913 15.213-58.903 2.014-5.896 29.985 5.065 34.995 7.748" fill="none"/> <path d="m2556.1 3625.1c47.398-23.911 95.326-45.339 144.03-66.358 6.47-2.792-27.734-1.311-31.443-1.238-26.283 0.513-52.385 2.446-78.595 4.36-3.838 0.281 5.033-5.827 7.672-8.629 7.076-7.513 14.74-14.625 22.674-21.234 24.456-20.374 50.974-38.143 77.83-55.169 7.878-4.994 15.8-9.918 23.75-14.798 4.604-2.826 19.037-6.982 13.835-8.443-17.25-4.846-40.156-1.441-57.497 1.642-95.631 17 74.821-39.458 83.706-59.791 0.809-1.853-65.083-26.922-69.203-28.503" fill="none"/> <path d="m2177.5 3341.4c-28.179 18.592-55.832 34.205-84.843 51.461-12.604 7.497-25.24 14.942-37.893 22.357-16.084 9.426-32.013 19.28-48.371 28.218-5.087 2.779 3.636-11.01 5.595-16.466 3.244-9.035 7.309-17.693 11.285-26.425 12.268-26.937 41.897-56.657 47.97-84.964 0.663-3.091-51.897 19.607-53.907 20.329" fill="none"/> <path d="m2208.6 3522c-61.016 35.228-117.1 74.923-175.11 114.68-4.043 2.771-67.115 45.272-67.983 44.03-11.231-16.075 0.88-54.746 1.733-71.696 0.57-11.309-23.443 1.3-33.249 6.962-49.664 28.673-95.275 63.971-136.87 103.45" fill="none"/> <path d="m2210.2 3002c-165.55-17.911-332.05-28.619-497.8-45.264" fill="none"/> <path d="m2175 3062.2c-90.863-1.327-696.93-51.65-722.58-38.852-105.35 52.577-76.819 265.95-222.88 318.95-146.25 53.064-245.96-11.448-381.08-18.655-65.464-3.492-171.86 190.56-192.14 240.82" fill="none"/> <path d="m1941.7 2822.3c77.177 15.06 177.36 52 255.82 52.713 4.777 0.043-8.227-4.861-12.402-7.184-13.975-7.78-28.025-15.442-42.026-23.178-33.458-18.489-100.01-36.868-124.23-66.896-0.672-0.832 52.237-56.731 53.198-61.557 21.359-107.22 108.06-5.455 186.31-36.105 2.483-0.973 58.524-64.375 58.638-64.106 18.003 42.584-44.037 184.39-32.51 194.66 0.992 0.884 27.013-27.414 30.062-30.818 73.674-82.258 126.54-186.74 185.45-279.86" fill="#fff"/> <path d="m1434.4 2141c-35.182 26.346-66.993 57.789-101.7 84.756-16.062 12.48-32.559 30.839-50.719 40.268-0.769 0.399-3.939-14.306-3.929-16.233 0.075-14.351 2.491-28.295 6.832-41.959 1.608-5.061 3.604-9.943 5.548-14.878 0.687-1.741 3.982-5.623 2.163-5.181-8.407 2.043-45.328 57.9-51.045 66.578-21.761 33.028-44.074 65.118-67.967 96.653-11.015 14.538-25.864 27.624-35.312 43.117-6.249 10.246 7.151 15.154 7.304 23.841 0.401 22.758-32.116 46.489-51.915 51.502-11.711 2.966-23.746 4.672-35.751 5.847-41.336 4.044 4.14-33.681 2.669-41.22-0.914-4.681-9.455-9.439-13.115-11.781-19.754-12.637-45.318-20.111-66.764-29.708-11.643-5.209-23.263-10.271-35.6-13.582-1.821-0.489-4.973-3.287-5.464-1.466-4.657 17.279 27.24 44.405 37.814 56.482 1.293 1.477 5.31 3.19 3.826 4.475-19.563 16.95-94.06-23.365-110.5-34.297-6.525-4.338-37.625-26.008-37.969-25.39-11.11 19.953 31.952 55.196 34.784 69.802 4.666 24.067-123.94 44.926-145.35 52.158" fill="none"/> <path d="m830 1813.5c12.863-3.09 25.058-7.76 37.063-13.288 3.68-1.694 11.542-9.252 10.967-5.241-4.774 33.313-34.325 66.472-51.041 94.722-5.635 9.523-11.796 18.567-17.878 27.801-3.745 5.685-9.325 14.652-9.061 14.512 42.798-22.787 72.583-75.026 104.21-110.44 10.565-11.831 20.374-24.232 30.129-36.73 2.746-3.517 5.46-7.043 8.17-10.591 1.276-1.671 2.415-6.567 3.83-5.012 9.598 10.54-57.443 147.83-54.317 154.52 1.48 3.169 5.668-4.106 8.374-6.322 8.295-6.794 15.825-14.251 22.998-22.223 28.921-32.145 23.023 176.62 45.353 139.7" fill="none"/> <path d="m1519.9 2289.1c-46.494 30.517-81.43 54.676-167.52 104.38-53.165 30.695-5.148 49.047-99.1 107.18" fill="none"/> <path d="m1595 1975c34.646 81.319 39.598 219.2 73.793 300.7 9.492 22.619 26.983 54.521 36.594 77.089 2.702 6.345 27.551 99.568 21.169 96.955-67.488-27.635-167.85-153.13-229.27-192.1-46.91-29.767-69.028-79.713-60.088-136.15 18.136-114.48-203.21-545.03-142.53-643.64 127.45-207.1-105.76 52.409-128.4 59.287-74.789 22.712-391.92 331.58-422.02 343.27-1.425 0.554 24.913-51.576 27.148-53.335 91.529-72.058-130.49-279.49-115.03-391.44" fill="none"/> <path d="m791.76 3486.2s87.211-209.65 148.54-85.758" fill="none"/> <path d="m1094 3311.8s37.436-4.91 57.673-3.965c4.168 0.195 18.379 3.382 22.742 0.646 10.03-6.288 11.099-22.802 12.288-33.274 1.667-14.68 2.478-29.529 2.609-44.298 0.014-1.526-1.123-12.591 0.291-13.891 6.011-5.523 22.171-1.173 29.824 0.706 19.554 4.802 38.928 12.401 58.617 16.277 6.114 1.203 10.607-28.5 10.788-34.18" fill="none"/> <path d="m1553.7 1888.9c44.407-29.092 86.928-59.884 129.48-91.557 5.653-4.207-12.732 24.674-14.65 27.85-13.585 22.505-28.31 44.143-43.073 65.885-2.162 3.184 7.563-1.445 11.308-2.33 10.045-2.372 20.037-5.453 29.727-9.019 29.872-10.993 58.519-25.073 86.692-39.818 8.265-4.325 16.49-8.724 24.691-13.169 4.75-2.575 15.565-12.996 14.23-7.761-4.429 17.363-18.831 35.498-30.171 48.973-62.538 74.319 71.582-45.068 93.634-42.595 2.008 0.225-9.227 69.824-9.917 74.183" fill="none"/> <path d="m1610.1 2358.6c-30.19 15.108-57.537 31.25-86.987 47.745-12.795 7.168-25.561 14.388-38.309 21.639-16.204 9.216-32.703 18.084-48.622 27.781-4.951 3.015 11.353 2.356 17.057 3.388 9.446 1.708 18.977 2.517 28.527 3.439 29.463 2.844 70.015-7.955 97.566 0.938 3.009 0.971-42.928 35.142-44.558 36.521" fill="none"/> <path d="m1469.2 2241.3c-61.016 35.227-123.44 63.95-186.87 94.31-4.422 2.116-72.765 35.488-72.123 36.86 8.306 17.763 47.852 26.611 62.957 34.347 10.079 5.161-12.847 19.652-22.653 25.314-49.664 28.673-103.04 50.524-158.02 66.812" fill="none"/> <path d="m1920.3 2500c-67.266 152.33-141.24 301.87-209.7 453.74" fill="none"/> <path d="m1850.7 2500.3c-44.282 79.353-303.74 629.38-327.64 645.19-98.207 64.947-268.73-66.447-387.66 33.549-119.08 100.12-113.07 218.73-174.38 339.35-29.708 58.44-250.96 53.552-304.62 45.986" fill="none"/> <path d="m1941.7 2177.7c77.177-15.06 177.36-52 255.82-52.713 4.777-0.043-8.227 4.861-12.402 7.184-13.975 7.78-28.025 15.442-42.026 23.178-33.458 18.489-100.01 36.868-124.23 66.896-0.672 0.832 52.237 56.731 53.198 61.557 21.359 107.22 108.06 5.455 186.31 36.105 2.483 0.973 58.524 64.375 58.638 64.106 18.003-42.584-44.037-184.39-32.51-194.66 0.992-0.884 27.013 27.414 30.062 30.818 73.674 82.258 126.54 186.74 185.45 279.86" fill="#fff"/> <path d="m1434.4 2859c-35.182-26.346-66.993-57.789-101.7-84.756-16.062-12.48-32.559-30.839-50.719-40.268-0.769-0.399-3.939 14.306-3.929 16.233 0.075 14.351 2.491 28.295 6.832 41.959 1.608 5.061 3.604 9.943 5.548 14.878 0.687 1.741 3.982 5.623 2.163 5.181-8.407-2.043-45.328-57.9-51.045-66.578-21.761-33.028-44.074-65.118-67.967-96.653-11.015-14.538-25.864-27.624-35.312-43.117-6.249-10.246 7.151-15.154 7.304-23.841 0.401-22.758-32.116-46.489-51.915-51.502-11.711-2.966-23.746-4.672-35.751-5.847-41.336-4.044 4.14 33.681 2.669 41.22-0.914 4.681-9.455 9.439-13.115 11.781-19.754 12.637-45.318 20.111-66.764 29.708-11.643 5.209-23.263 10.271-35.6 13.582-1.821 0.489-4.973 3.287-5.464 1.466-4.657-17.279 27.24-44.405 37.814-56.482 1.293-1.477 5.31-3.19 3.826-4.475-19.563-16.95-94.06 23.365-110.5 34.297-6.525 4.338-37.625 26.008-37.969 25.39-11.11-19.953 31.952-55.196 34.784-69.802 4.666-24.067-123.94-44.926-145.35-52.158" fill="none"/> <path d="m830 3186.5c12.863 3.09 25.058 7.76 37.063 13.288 3.68 1.694 11.542 9.252 10.967 5.241-4.774-33.313-34.325-66.472-51.041-94.722-5.635-9.523-11.796-18.567-17.878-27.801-3.745-5.685-9.325-14.652-9.061-14.512 42.798 22.787 72.583 75.026 104.21 110.44 10.565 11.831 20.374 24.232 30.129 36.73 2.746 3.517 5.46 7.043 8.17 10.591 1.276 1.671 2.415 6.567 3.83 5.012 9.598-10.54-57.443-147.83-54.317-154.52 1.48-3.169 5.668 4.106 8.374 6.322 8.295 6.794 15.825 14.251 22.998 22.223 28.921 32.145 23.023-176.62 45.353-139.7" fill="none"/> <path d="m1519.9 2710.9c-46.494-30.517-81.43-54.676-167.52-104.38-53.165-30.695-5.148-49.047-99.1-107.18" fill="none"/> <path d="m1595 3025c34.646-81.319 39.598-219.2 73.793-300.7 9.492-22.619 26.983-54.521 36.594-77.089 2.702-6.345 27.551-99.568 21.169-96.955-67.488 27.635-167.85 153.13-229.27 192.1-46.91 29.767-69.028 79.713-60.088 136.15 18.136 114.48-203.21 545.03-142.53 643.64 127.45 207.1-105.76-52.409-128.4-59.287-74.789-22.712-391.92-331.58-422.02-343.27-1.425-0.554 24.913 51.576 27.148 53.335 91.529 72.058-130.49 279.49-115.03 391.44" fill="none"/> <path d="m791.76 1513.8s87.211 209.65 148.54 85.758" fill="none"/> <path d="m1094 1688.2s37.436 4.91 57.673 3.965c4.168-0.195 18.379-3.382 22.742-0.646 10.03 6.288 11.099 22.802 12.288 33.274 1.667 14.68 2.478 29.529 2.609 44.298 0.014 1.526-1.123 12.591 0.291 13.891 6.011 5.523 22.171 1.173 29.824-0.706 19.554-4.802 38.928-12.401 58.617-16.277 6.114-1.203 10.607 28.5 10.788 34.18" fill="none"/> <path d="m1553.7 3111.1c44.407 29.092 86.928 59.884 129.48 91.557 5.653 4.207-12.732-24.674-14.65-27.85-13.585-22.505-28.31-44.143-43.073-65.885-2.162-3.184 7.563 1.445 11.308 2.33 10.045 2.372 20.037 5.453 29.727 9.019 29.872 10.993 58.519 25.073 86.692 39.818 8.265 4.325 16.49 8.724 24.691 13.169 4.75 2.575 15.565 12.996 14.23 7.761-4.429-17.363-18.831-35.498-30.171-48.973-62.538-74.319 71.582 45.068 93.634 42.595 2.008-0.225-9.227-69.824-9.917-74.183" fill="none"/> <path d="m1610.1 2641.4c-30.19-15.108-57.537-31.25-86.987-47.745-12.795-7.168-25.561-14.388-38.309-21.639-16.204-9.216-32.703-18.084-48.622-27.781-4.951-3.015 11.353-2.356 17.057-3.388 9.446-1.708 18.977-2.517 28.527-3.439 29.463-2.844 70.015 7.955 97.566-0.938 3.009-0.971-42.928-35.142-44.558-36.521" fill="none"/> <path d="m1469.2 2758.7c-61.016-35.227-123.44-63.95-186.87-94.31-4.422-2.116-72.765-35.488-72.123-36.86 8.306-17.763 47.852-26.611 62.957-34.347 10.079-5.161-12.847-19.652-22.653-25.314-49.664-28.673-103.04-50.524-158.02-66.812" fill="none"/> <path d="m1920.3 2500c-67.266-152.33-141.24-301.87-209.7-453.74" fill="none"/> <path d="m1850.7 2499.7c-44.282-79.353-303.74-629.38-327.64-645.19-98.207-64.947-268.73 66.447-387.66-33.549-119.08-100.12-113.07-218.73-174.38-339.35-29.708-58.44-250.96-53.552-304.62-45.986" fill="none"/> <path d="m1941.7 2177.7c25.547 74.366 43.649 179.6 82.258 247.9 2.351 4.158 0.095-9.556 0.02-14.332-0.25-15.994-0.639-31.992-0.94-47.985-0.717-38.22-18.078-105.05-4.183-141.04 0.385-0.998 75.249 16.873 79.909 15.292 103.54-35.112 58.755 90.856 124.42 143.29 2.084 1.665 85.012 18.497 84.836 18.729-27.877 36.884-181.7 54.059-184.84 69.176-0.27 1.301 37.248 9.687 41.721 10.626 108.07 22.674 224.99 16.215 335.09 20.671" fill="#fff"/> <path d="m2278.1 1397.6c-40.407-17.296-83.543-29.124-124.25-45.701-18.838-7.671-42.986-12.778-60.232-23.791-0.73-0.466 10.419-10.564 12.094-11.519 12.466-7.11 25.75-11.99 39.753-15.062 5.187-1.138 10.413-1.851 15.659-2.634 1.851-0.277 6.86 0.636 5.568-0.717-5.973-6.26-72.807-10.306-83.181-10.918-39.483-2.332-78.43-5.611-117.69-10.535-18.098-2.27-36.855-8.587-54.996-9.023-11.998-0.288-9.548 13.77-16.996 18.246-19.507 11.727-56.318-4.568-70.559-19.208-8.424-8.66-15.919-18.228-22.939-28.038-24.17-33.775 31.239-13.255 37.031-18.299 3.598-3.132 3.448-12.907 3.646-17.248 1.068-23.426-5.242-49.302-7.654-72.673-1.31-12.688-2.736-25.282-6.038-37.622-0.487-1.822 0.36-5.95-1.462-5.465-17.292 4.606-24.835 45.794-30.008 60.989-0.633 1.858-0.108 6.194-1.962 5.551-24.461-8.467-26.795-93.141-25.548-112.84 0.495-7.82 3.711-45.589 3.004-45.578-22.835 0.355-31.825 55.27-43.059 65.025-18.509 16.074-100.88-84.876-117.85-99.798" fill="none"/> <path d="m2259.6 710.47c9.109 9.595 19.25 17.821 30.039 25.454 3.308 2.339 13.784 5.369 10.023 6.876-31.237 12.523-74.729 3.51-107.55 3.159-11.065-0.119-21.978-0.933-33.016-1.583-6.795-0.4-17.351-0.749-17.097-0.591 41.132 25.671 101.26 25.345 147.74 35.026 15.528 3.234 31.172 5.528 46.873 7.728 4.419 0.619 8.83 1.207 13.257 1.779 2.086 0.27 6.894-1.192 6.256 0.812-4.329 13.582-156.75 24.168-160.98 30.219-2.004 2.867 6.39 2.857 9.662 4.092 10.031 3.786 20.254 6.58 30.744 8.805 42.299 8.974-141.45 108.25-98.307 109.13" fill="none"/> <path d="m2192.6 1545.7c-49.676-25.006-88.067-43.183-174.16-92.887-53.165-30.695-45.05 20.065-142.37-32.235" fill="none"/> <path d="m2502.2 1453.7c-53.102 70.664-170.04 143.9-223.52 214.26-14.844 19.529-33.725 50.628-48.465 70.236-4.144 5.513-72.453 73.644-73.381 66.81-9.811-72.264 48.692-221.93 51.734-294.6 2.323-55.509 34.519-99.636 87.862-120.11 108.21-41.536 370.4-448.5 486.14-445.25 243.08 6.829-98.266-65.382-115.55-81.557-57.063-53.413-483.11-173.63-508.29-193.84-1.192-0.958 57.123-4.213 59.763-3.158 108.17 43.238 176.81-252.75 281.49-295.34" fill="none"/> <path d="m791.76 1513.8s225.16-29.296 148.54 85.758" fill="none"/> <path d="m1094 1688.2s22.97 29.966 32.27 47.964c1.915 3.707 6.261 17.608 10.812 20.019 10.461 5.542 25.296-1.79 34.96-5.996 13.547-5.897 26.812-12.619 39.668-19.889 1.328-0.751 10.343-7.269 12.175-6.694 7.789 2.444 12.102 18.614 14.3 26.181 5.619 19.335 8.725 39.913 15.213 58.903 2.014 5.896 29.985-5.065 34.995-7.748" fill="none"/> <path d="m2556.1 1374.9c47.398 23.911 95.326 45.339 144.03 66.358 6.47 2.792-27.734 1.311-31.443 1.238-26.283-0.513-52.385-2.446-78.595-4.36-3.838-0.281 5.033 5.827 7.672 8.629 7.076 7.513 14.74 14.625 22.674 21.234 24.456 20.374 50.974 38.143 77.83 55.169 7.878 4.994 15.8 9.918 23.75 14.798 4.604 2.826 19.037 6.982 13.835 8.443-17.25 4.846-40.156 1.441-57.497-1.642-95.631-17 74.821 39.458 83.706 59.791 0.809 1.853-65.083 26.922-69.203 28.503" fill="none"/> <path d="m2177.5 1658.6c-28.179-18.592-55.832-34.205-84.843-51.461-12.604-7.497-25.24-14.942-37.893-22.357-16.084-9.426-32.013-19.28-48.371-28.218-5.087-2.779 3.636 11.01 5.595 16.466 3.244 9.035 7.309 17.693 11.285 26.425 12.268 26.937 41.897 56.657 47.97 84.964 0.663 3.091-51.897-19.607-53.907-20.329" fill="none"/> <path d="m2208.6 1478c-61.016-35.228-117.1-74.923-175.11-114.68-4.043-2.771-67.115-45.272-67.983-44.03-11.231 16.075 0.88 54.746 1.733 71.696 0.57 11.309-23.443-1.3-33.249-6.962-49.664-28.673-95.275-63.971-136.87-103.45" fill="none"/> <path d="m2210.2 1998c-165.55 17.911-332.05 28.619-497.8 45.264" fill="none"/> <path d="m2175 1937.8c-90.863 1.327-696.93 51.65-722.58 38.852-105.35-52.577-76.819-265.95-222.88-318.95-146.25-53.064-245.96 11.448-381.08 18.655-65.464 3.492-171.86-190.56-192.14-240.82" fill="none"/> </g> </svg>