<?xml version='1.0' encoding='utf-8'?>
<svg xmlns="http://www.w3.org/2000/svg" version="1.1" viewBox="0 0 148.25 210.85"> <g transform="translate(-165.88 -74.575)"> <g fill-rule="nonzero" stroke-dasharray="" stroke-miterlimit="10" style="mix-blend-mode:normal" data-paper-data="{&quot;isPaintingLayer&quot;:true}"> <path d="m188.83 231.76c0-28.259 22.908-51.167 51.167-51.167s51.167 22.908 51.167 51.167-22.908 51.167-51.167 51.167-51.167-22.908-51.167-51.167z" fill="#e2e2e2" stroke="#d2d2d2" stroke-width="5"/> <path d="m208.9 161.09c0-17.176 13.924-31.1 31.1-31.1s31.1 13.924 31.1 31.1-13.924 31.1-31.1 31.1-31.1-13.924-31.1-31.1z" fill="#e2e2e2" stroke="#d2d2d2" stroke-width="5"/> <path d="m241.42 156.46 23.901 4.0599-23.971 5.1544" fill="#ffa221" stroke="#ff9500" stroke-linecap="round" stroke-width="3.5"/> <path d="m223.8 147.46c0-2.7614 2.2386-5 5-5s5 2.2386 5 5-2.2386 5-5 5-5-2.2386-5-5z" stroke-width=".5"/> <path d="m246.2 147.46c0-2.7614 2.2386-5 5-5s5 2.2386 5 5-2.2386 5-5 5-5-2.2386-5-5z" stroke-width=".5"/> <path d="m229.94 173.07s5.1743 4.2891 11.887 4.4c7.0273 0.11614 12.513-4.4 12.513-4.4" fill="none" stroke="#000" stroke-linecap="round" stroke-width="5"/> <path d="m228.06 206.3c0.50754-3.4941 2.5017-17.223 2.5017-17.223l11.253 2.3639s-2.0231 13.928-2.5249 17.383c-0.21313 1.4672-1.4248 2.932-2.7604 2.6514-2.4396-0.51248-6.1015-1.2817-7.3114-1.5359-0.7724-0.16225-1.3799-2.1108-1.1579-3.6392z" fill="#1eb600" stroke="#1ba400" stroke-width="3"/> <path d="m218.32 206.01c0.95804-3.3983 4.7223-16.751 4.7223-16.751l10.85 3.8086s-3.8189 13.546-4.7662 16.906c-0.40231 1.427-1.7943 2.7216-3.0821 2.2696-2.3522-0.82569-5.8828-2.0651-7.0493-2.4746-0.74471-0.26142-1.0934-2.2725-0.67431-3.759z" fill="#24d700" stroke="#20c500" stroke-width="3"/> <path d="m210.34 189.07c-2.9571-1.0492-1.5433-11.12 2.4-9.6 3.6111 1.3919 18.948 6.9879 28 6.8 14.162-0.294 20.045-4.6843 24.971-5.8 3.3489-0.75864 7.6434 6.2899 5.2 8-2.798 1.9583-16.696 7.5684-29.971 7.6-15.385 0.03665-29.226-6.5126-30.6-7z" fill="#24d700" stroke="#20c500" stroke-width="3"/> <path d="m232.67 251.46c0-4.0501 3.2832-7.3333 7.3333-7.3333s7.3333 3.2832 7.3333 7.3333-3.2832 7.3333-7.3333 7.3333-7.3333-3.2832-7.3333-7.3333z" fill="#424242" stroke="#212121" stroke-width="4"/> <path d="m232.83 221.46c0-4.0501 3.2832-7.3333 7.3333-7.3333s7.3333 3.2832 7.3333 7.3333-3.2832 7.3333-7.3333 7.3333-7.3333-3.2832-7.3333-7.3333z" fill="#424242" stroke="#212121" stroke-width="4"/> <path d="m237.68 168.48v-15.25h4.4167v15.25z" fill="#e2e2e2" stroke-width="0"/> <path d="m215.96 126.35v-46.383c0-1.5443 1.4009-2.8952 2.9825-2.8952h41.818c2.0539 0 3.2816 0.94114 3.2816 2.0945v47.183z" fill="#424242" stroke="#212121" stroke-width="5"/> <path d="m205.25 134.3v-11.97c0-1.0889 1.093-2.2844 2.4792-2.2844h64.242c1.7702 0 2.7783 1.2872 2.7783 2.4359v11.818c0 1.4432-0.89346 2.4126-2.4753 2.4126h-64.697c-1.3083 0-2.3277-0.96854-2.3277-2.4126z" fill="#424242" stroke="#212121" stroke-width="5"/> <path d="m215 120.88v-11.306h50.01v11.306z" fill="#f00" stroke="#e60000" stroke-width="3.5"/> <g fill="none" stroke="#d48500" stroke-linecap="round" stroke-width="5"> <path d="m168.38 179.79 36.581 27.436"/> <path d="m181.25 176.77 2.0742 14.519-14.519 2.0742"/> </g> <g fill="none" stroke="#d48500" stroke-linecap="round" stroke-width="5" data-paper-data="{&quot;index&quot;:null}"> <path d="m311.62 179.79-36.581 27.436"/> <path d="m311.2 193.37-14.519-2.0742 2.0742-14.519"/> </g> </g> </g> </svg>